<svg xmlns="http://www.w3.org/2000/svg" xmlns:xlink="http://www.w3.org/1999/xlink" viewBox="0 0 225.18 228.59"><defs><style>.cls-1{isolation:isolate;}.cls-2,.cls-29,.cls-30{fill:#30323d;}.cls-2{opacity:0.15;}.cls-15,.cls-2,.cls-29,.cls-30{mix-blend-mode:multiply;}.cls-3{fill:url(#linear-gradient);}.cls-4{fill:url(#linear-gradient-2);}.cls-5{fill:url(#linear-gradient-3);}.cls-6{fill:url(#linear-gradient-4);}.cls-7{fill:url(#linear-gradient-5);}.cls-8{fill:url(#linear-gradient-6);}.cls-9{fill:url(#linear-gradient-7);}.cls-10{fill:#36527a;}.cls-11{fill:url(#linear-gradient-8);}.cls-12{fill:url(#linear-gradient-9);}.cls-13{fill:url(#linear-gradient-10);}.cls-14{fill:url(#linear-gradient-11);}.cls-15{fill:#dfe3ea;opacity:0.8;}.cls-16{fill:url(#linear-gradient-12);}.cls-17{fill:url(#linear-gradient-13);}.cls-18{fill:url(#linear-gradient-14);}.cls-19{fill:url(#linear-gradient-15);}.cls-20{fill:url(#linear-gradient-16);}.cls-21{fill:url(#linear-gradient-17);}.cls-22{fill:#94b0b5;}.cls-23{fill:url(#linear-gradient-18);}.cls-24{fill:url(#linear-gradient-19);}.cls-25{fill:url(#linear-gradient-20);}.cls-26{fill:url(#linear-gradient-21);}.cls-27{fill:#c3cbd7;}.cls-28{fill:url(#linear-gradient-22);}.cls-29{opacity:0.6;}.cls-30{opacity:0.2;}.cls-31{fill:url(#linear-gradient-23);}.cls-32{fill:url(#linear-gradient-24);}.cls-33{fill:url(#linear-gradient-25);}.cls-34{fill:url(#linear-gradient-26);}.cls-35{fill:#fff;}.cls-36,.cls-42{fill:none;}.cls-37{fill:url(#linear-gradient-27);}.cls-38{fill:url(#linear-gradient-28);}.cls-39{fill:#7084a1;}.cls-40{fill:url(#linear-gradient-29);}.cls-41{fill:#f65859;}.cls-42{stroke:#36527a;stroke-linecap:round;stroke-linejoin:round;stroke-width:2px;}.cls-43{fill:url(#linear-gradient-30);}.cls-44{fill:url(#linear-gradient-31);}.cls-45{fill:#a115ff;}</style><linearGradient id="linear-gradient" x1="181.62" y1="39.52" x2="229.12" y2="47.53" gradientUnits="userSpaceOnUse"><stop offset="0" stop-color="#cbd2dd"/><stop offset="1" stop-color="#fff"/></linearGradient><linearGradient id="linear-gradient-2" x1="185.47" y1="67.23" x2="185.47" y2="-16.03" gradientUnits="userSpaceOnUse"><stop offset="0" stop-color="#b5bfce"/><stop offset="1" stop-color="#fff"/></linearGradient><linearGradient id="linear-gradient-3" x1="130.51" y1="31.14" x2="198.7" y2="24.75" xlink:href="#linear-gradient"/><linearGradient id="linear-gradient-4" x1="96.77" y1="96.97" x2="96.77" y2="60.67" xlink:href="#linear-gradient-2"/><linearGradient id="linear-gradient-5" x1="110.58" y1="145.38" x2="110.62" y2="95.06" xlink:href="#linear-gradient"/><linearGradient id="linear-gradient-6" x1="262.95" y1="823.3" x2="225.6" y2="811.97" gradientTransform="matrix(0.25, 1.04, -0.99, 0.24, 875.52, -325.73)" xlink:href="#linear-gradient-2"/><linearGradient id="linear-gradient-7" x1="40.22" y1="192.76" x2="40.22" y2="91.36" gradientUnits="userSpaceOnUse"><stop offset="0" stop-color="#5e7595"/><stop offset="1" stop-color="#abb7c7"/></linearGradient><linearGradient id="linear-gradient-8" x1="46.57" y1="162.75" x2="46.57" y2="61.35" gradientUnits="userSpaceOnUse"><stop offset="0" stop-color="#5e7595"/><stop offset="1" stop-color="#a2b0c2"/></linearGradient><linearGradient id="linear-gradient-9" x1="56.16" y1="238.27" x2="56.16" y2="100.61" gradientUnits="userSpaceOnUse"><stop offset="0" stop-color="#afbaca"/><stop offset="1" stop-color="#fff"/></linearGradient><linearGradient id="linear-gradient-10" x1="12.26" y1="214.17" x2="48.77" y2="214.17" gradientUnits="userSpaceOnUse"><stop offset="0" stop-color="#36527a"/><stop offset="1" stop-color="#607796"/></linearGradient><linearGradient id="linear-gradient-11" x1="22.23" y1="200.15" x2="56.43" y2="200.15" xlink:href="#linear-gradient-10"/><linearGradient id="linear-gradient-12" x1="39.62" y1="157.31" x2="22.38" y2="118.73" xlink:href="#linear-gradient"/><linearGradient id="linear-gradient-13" x1="14.38" y1="134.89" x2="40.84" y2="127.54" xlink:href="#linear-gradient-10"/><linearGradient id="linear-gradient-14" x1="306.93" y1="141.13" x2="330.43" y2="141.13" gradientTransform="translate(-296.86 20)" xlink:href="#linear-gradient-10"/><linearGradient id="linear-gradient-15" x1="37.37" y1="156.18" x2="2.02" y2="143.75" xlink:href="#linear-gradient-2"/><linearGradient id="linear-gradient-16" x1="17.11" y1="160.08" x2="17.11" y2="127.55" xlink:href="#linear-gradient-2"/><linearGradient id="linear-gradient-17" x1="64.94" y1="127.79" x2="66.23" y2="102.71" xlink:href="#linear-gradient-10"/><linearGradient id="linear-gradient-18" x1="125.08" y1="135.81" x2="158.06" y2="135.81" xlink:href="#linear-gradient-10"/><linearGradient id="linear-gradient-19" x1="123.88" y1="139.15" x2="142.36" y2="134.54" xlink:href="#linear-gradient-10"/><linearGradient id="linear-gradient-20" x1="65.34" y1="216.42" x2="65.34" y2="50.93" xlink:href="#linear-gradient-9"/><linearGradient id="linear-gradient-21" x1="33.9" y1="99.47" x2="33.9" y2="71.9" xlink:href="#linear-gradient-2"/><linearGradient id="linear-gradient-22" x1="47.58" y1="75.61" x2="89.12" y2="98.16" gradientUnits="userSpaceOnUse"><stop offset="0" stop-color="#a115ff"/><stop offset="0.1" stop-color="#9d1efe"/><stop offset="0.26" stop-color="#9235fc"/><stop offset="0.45" stop-color="#805bf8"/><stop offset="0.68" stop-color="#678ff2"/><stop offset="0.93" stop-color="#48d2eb"/><stop offset="1" stop-color="#3fe5e9"/></linearGradient><linearGradient id="linear-gradient-23" x1="819.69" y1="182.84" x2="861.26" y2="182.84" gradientTransform="matrix(-1, 0, 0, 1, 878.05, 0)" gradientUnits="userSpaceOnUse"><stop offset="0" stop-color="#607796"/><stop offset="1" stop-color="#36527a"/></linearGradient><linearGradient id="linear-gradient-24" x1="76.68" y1="188.18" x2="99.99" y2="183.13" xlink:href="#linear-gradient-10"/><linearGradient id="linear-gradient-25" x1="67.03" y1="212.53" x2="103.09" y2="212.53" xlink:href="#linear-gradient-10"/><linearGradient id="linear-gradient-26" x1="68.01" y1="200.74" x2="96.4" y2="200.74" xlink:href="#linear-gradient-10"/><linearGradient id="linear-gradient-27" x1="34.52" y1="98.57" x2="34.52" y2="75.64" gradientUnits="userSpaceOnUse"><stop offset="0" stop-color="#667c9a"/><stop offset="1" stop-color="#b3bdcd"/></linearGradient><linearGradient id="linear-gradient-28" x1="46.48" y1="158.81" x2="48.71" y2="137.04" gradientUnits="userSpaceOnUse"><stop offset="0" stop-color="#a9b5c6"/><stop offset="1" stop-color="#cbd2dd"/></linearGradient><linearGradient id="linear-gradient-29" x1="71.87" y1="157.66" x2="74.76" y2="118.85" xlink:href="#linear-gradient-10"/><linearGradient id="linear-gradient-30" x1="425.81" y1="106.38" x2="431.62" y2="118.16" gradientTransform="translate(-296.86 20)" xlink:href="#linear-gradient-10"/><linearGradient id="linear-gradient-31" x1="71.36" y1="165.36" x2="71.36" y2="165.34" xlink:href="#linear-gradient-2"/></defs><title>str</title><g class="cls-1"><g id="Layer_2" data-name="Layer 2"><g id="Page_33" data-name="Page 33"><ellipse class="cls-2" cx="56.4" cy="214.15" rx="56.4" ry="14.45"/><path class="cls-3" d="M177.94,54.15c-3.23-.1-5.39,3-5.59,5.43s1.42,5.86,5.88,6c11.22.26,20.61,1.56,29.14,7.94,3.21-10.82,12.11-35.62,17.81-49.16-11.79-7.48-23.72-11.78-36.77-13.08C185.49,19.26,177.94,54.15,177.94,54.15Z"/><path class="cls-4" d="M190.23,53.55c-1,3.2-8.84,1.87-11.11,1.66-1.3-.12-5.66-.34-6.77,4.37.88-6.9,14.88-50.78,14.88-50.78l11.37.52Z"/><path class="cls-5" d="M190.23,53.55c1.42-7.85-46-8.92-58.73,0V5.89c17.18-7.4,70.07-9.42,67.1,3.43Z"/><path class="cls-6" d="M93,71.49s7.5,1.18,8.07,10.23c.59,9.53-3.54,11.92-6.78,11.92S93,71.49,93,71.49Z"/><path class="cls-7" d="M87.93,102.81c2.48,6.16,10.43,13.91,18.44,17.49,10.44,4.67,17.08,6.32,24.71,6,5.15-.18,3.95,18.59-2.32,18.42-9.34-.25-28.24-3-34.73-13.17S85.4,96.55,87.93,102.81Z"/><path class="cls-8" d="M129.39,127.47c-2.24,5.26-2.61,11.41-1.25,18.23.43,2.16-5.56,2.33-6.75-1.43-1.77-5.58-1.71-13.48,1.2-18.63C124.31,122.59,130.6,124.61,129.39,127.47Z"/><rect class="cls-9" x="28.09" y="91.59" width="24.27" height="61.84"/><path class="cls-10" d="M31.51,121.59a.75.75,0,0,1-.75-.75V110.45a.75.75,0,1,1,1.5,0v10.39A.76.76,0,0,1,31.51,121.59Z"/><rect class="cls-11" x="35.14" y="91.59" width="22.86" height="61.84"/><path class="cls-12" d="M93.41,204.76c2.39-14.1,7.25-35.89,7.25-57.84,0-18.1-5.54-34.21-13.41-44.9-7.2-9.78-38.75-4.68-42.32-1.31-5.15,4.86-7.5,25.27-5.54,38.87C40.93,156.06,30.75,182,23.1,199.1c-4.35,9.72-9.47,10.86-11,12.93s0,3.92,1.62,4.7c6.47,3,21.69,3.35,27.52-.74,2.14-1.5,4.5-5.61,7.2-9.93a309.26,309.26,0,0,0,20.83-40.74c.74,0,1.48.05,2.24,0a75,75,0,0,1-.72,22.26C68.28,201.22,64,209.8,68,213.71c6.68,6.48,31.93,6.68,32.71,2.31S92.64,209.3,93.41,204.76Z"/><path class="cls-13" d="M27.57,213.89c-8.35,0-13.3-2.59-12.07-4.59A19.55,19.55,0,0,0,12.15,212c-1.39,1.94,0,3.92,1.61,4.7,6.48,3,21.7,3.35,27.53-.74,1.57-1.1,3.26-3.61,5.12-6.57C44.22,212.31,34.7,213.89,27.57,213.89Z"/><path class="cls-14" d="M24.81,195c3.74,3.77,23.07,4.67,29.41,1.84l-3.74,6.64c-8.64,3.14-23.17,1.88-28.89-2.14Z"/><path class="cls-15" d="M41,178c2.75-10.23,6-22.65,6.72-39.91.42-9.94,3.87-22,13.21-25L44.17,101.57c-4.61,6.06-6.64,25.1-4.78,38C40.93,156.06,30.75,182,23.1,199.1c-4.35,9.72-9.47,10.86-11,12.93s0,3.92,1.61,4.7a27.61,27.61,0,0,0,8.33,2C30.11,207.49,37.25,191.75,41,178Z"/><path class="cls-10" d="M26.25,171.42c2.56-1.49,3.55-4.76,3.48-6.82,0-1.33-1.76-5.83-3.4-6.46s-4.06,10-4.06,10Z"/><path class="cls-16" d="M42.86,105.84c-7.52,4.2-21.86,23.24-28,38.58C9.77,157.09,11.14,159.75,18,161.1c5.25,1,9.46-.59,13.14-10.43,4.5-12.06,8.18-15.58,11.57-19.42C49.36,123.76,46.21,104,42.86,105.84Z"/><path class="cls-15" d="M18.89,154.69C23.7,136.88,35.84,119.41,46,111c-.69-3.53-1.91-5.82-3.15-5.12-7.52,4.2-21.86,23.24-28,38.58-4.51,11.24-3.93,14.6,1.07,16.16A13.55,13.55,0,0,0,18.89,154.69Z"/><path class="cls-17" d="M17.45,136.74a95.86,95.86,0,0,1,8-13.36c2.21-3,10,.76,8.48,2.8A108.09,108.09,0,0,0,26,140.11C24.74,142.72,16.06,139.76,17.45,136.74Z"/><path class="cls-18" d="M32,163.85c-.43-1.3-2.2-4.34-2.3-7.82.22-.4.44-.8.69-1.21l-.65-.08v-.11l-.37.07c-7.55-1-16.24-5.08-16.24-5.08C7,159.87,10.26,169.36,13,171.29c3.32,2.33,15,1.45,14.26-1.29-.36-1.3-1.88-2.43-1.64-3.64a25.64,25.64,0,0,1,.71-2.72A18.14,18.14,0,0,0,28,166.45C29.51,168.49,32.48,165.33,32,163.85Z"/><path class="cls-19" d="M15.16,145a41.53,41.53,0,0,0,16.3,5.44c1.47.16.24,5.67-2,5.47-4.88-.43-13.21-2.86-16.81-5.41C10.12,148.68,13.2,143.87,15.16,145Z"/><path class="cls-20" d="M15.16,145c-2-1.09-5,3.72-2.53,5.5a28.85,28.85,0,0,0,7,3.19c1.56-.87,2.75-3.46,2.93-5.29A46.91,46.91,0,0,1,15.16,145Z"/><path class="cls-21" d="M73.53,100.65a59,59,0,0,0-21.14,1c-2.34.56-8.14,2.35-10.43,4.63,3.62,6.43,15.14,10.38,26.48,9.57,10.11-.73,19.76-5.55,21.74-10.34C87.37,103.39,80.38,101.71,73.53,100.65Z"/><rect class="cls-22" x="131.5" y="1.41" width="3.55" height="216.36" rx="1.75"/><path class="cls-23" d="M127.85,126.12c5.67-.62,11.33-1.41,12.58,2.11.94,2.63,1.61,13.27-.45,15.64-2.28,2.63-11.5,3.22-14.35-.16C123.89,140.71,123.36,126.6,127.85,126.12Z"/><path class="cls-24" d="M132.18,127.29c5.88,3.3,7.95,1.9,8.25.94,1.55,3.18,1.53,13.27.08,15.64-1.6,2.63-8.08,3.22-10.09-.16C129.2,140.71,129.38,125.71,132.18,127.29Z"/><path class="cls-25" d="M63.12,51.38C83.22,49.51,97,66.88,97.73,81.24c1.06,17.51-4.42,30.1-28.81,31.84-21.09,1.5-36-7.82-36.08-27C32.79,68.73,43.28,53.23,63.12,51.38Z"/><path class="cls-15" d="M41.82,86.59c.52-16.92,9.84-34.14,24.9-35.34a33.69,33.69,0,0,0-3.6.13C43.28,53.23,32.79,68.73,32.84,86.11c0,16.61,11.3,25.82,28.05,27C48.56,111.06,41.38,101.1,41.82,86.59Z"/><path class="cls-26" d="M28,82.29c1.74-6.18,6.36-8,8.91-5.67,2,1.88,3.59,4.66,3.59,10,0,5.9-1.11,11.92-5.32,11.92C28.35,98.57,26,89.48,28,82.29Z"/><path class="cls-27" d="M67.25,107.31c-9,0-16.15-2-19.58-5.39-6.42-6.43-5.5-21.87-1.34-26.84,3.25-3.9,7.56-4.43,11.73-4.43,1.29,0,2.62,0,4,.11,1.59.07,3.16.14,4.81.14.83,0,1.6,0,2.35-.06,2.32-.1,4.45-.33,6.51-.55a61,61,0,0,1,6.42-.48c3.77,0,6.44.85,8.63,2.75,3.45,3,3.86,10,3.88,13,0,2.19-.18,9.64-3.29,13.5-4.14,5.14-11.23,7.84-21.68,8.25C68.89,107.29,68.06,107.31,67.25,107.31ZM58.06,72.15c-3.81,0-7.72.47-10.58,3.89-3.73,4.46-4.38,19.18,1.25,24.81,3.15,3.15,9.9,5,18.52,5,.79,0,1.6,0,2.41,0,10-.39,16.72-2.9,20.57-7.69,2.8-3.48,3-10.49,3-12.55s-.29-9.19-3.36-11.83c-1.9-1.64-4.26-2.38-7.65-2.38a60.78,60.78,0,0,0-6.24.47c-2.1.23-4.26.46-6.63.56-.77,0-1.56.06-2.41.06-1.68,0-3.27-.07-4.8-.14S59.32,72.15,58.06,72.15Z"/><path class="cls-28" d="M48.46,76.86c4.36-5.21,11.46-2.82,20.91-3.24,8.88-.39,15.39-2.62,19.63,1,3.84,3.32,3.85,18.12.24,22.61-4,5-11.26,6.89-19.63,7.21-9.44.37-16.91-1.47-20-4.53C44.3,94.61,45.2,80.76,48.46,76.86Z"/><path class="cls-29" d="M89,74.66a7.72,7.72,0,0,0-1.33-.92c3.16,4.37,3,17.65-.43,21.86-4,5-11.26,6.89-19.63,7.22-8.06.31-14.69-1-18.35-3.28a4.86,4.86,0,0,0,.38.41c3.06,3.06,10.53,4.9,20,4.53,8.37-.32,15.58-2.19,19.63-7.21C92.85,92.78,92.84,78,89,74.66Z"/><path class="cls-30" d="M87.82,98.78C68.13,104,61.34,97.22,59.05,92c-1.61-3.64-2-12.27.89-18.57-4.86-.15-8.72.1-11.48,3.4C45.2,80.76,44.3,94.61,49.64,100c3.06,3.06,10.53,4.9,20,4.53C77.07,104.19,83.62,102.67,87.82,98.78Z"/><path class="cls-31" d="M46.07,177.86c-6.3-.3-11.12-1.54-13.47-2.65-1.79-.86-6,11.6-4.82,12.27,3.71,2,9,3.19,14.89,3C46.28,190.39,49,178,46.07,177.86Z"/><path class="cls-32" d="M84.18,178.37a50.7,50.7,0,0,0,14,.45c1.64-.19-.56,13.11-1.92,13.41a30.56,30.56,0,0,1-14.2-.6C79.44,190.78,80.67,177.75,84.18,178.37Z"/><path class="cls-33" d="M66.62,206.08c-.54,3.42-.35,5.95,1.37,7.63,6.68,6.48,31.93,6.68,32.71,2.31a4.1,4.1,0,0,0-1.36-3.52c.5,1.22-5.9,3.6-18.54,1.38C72.59,212.43,66.35,208.85,66.62,206.08Z"/><path class="cls-34" d="M69,195.16c2.36,3.22,21.91,6.39,25.6,4.76-.31,2.45-.55,4.49-.67,5.94-7.33,1.52-22-1-26.42-4.83C68,199.34,69,195.16,69,195.16Z"/><ellipse class="cls-35" cx="51.83" cy="81.21" rx="2.13" ry="2.78"/><ellipse class="cls-35" cx="51.84" cy="87.83" rx="1.17" ry="1.52"/><path class="cls-36" d="M28,82.29c1.74-6.18,6.36-8,8.91-5.67,2,1.88,3.59,4.66,3.59,10,0,5.9-1.11,11.92-5.32,11.92C28.35,98.57,26,89.48,28,82.29Z"/><path class="cls-37" d="M34.08,75.64a5.44,5.44,0,0,0-3.19,1.54c2.71.94,4.39,4.95,4.3,10.39A19.48,19.48,0,0,1,32.43,98a6.75,6.75,0,0,0,2.75.57c.12,0,.23,0,.34,0a23.3,23.3,0,0,0,2.63-10.92C38.24,82.13,36.74,77.85,34.08,75.64Z"/><path class="cls-38" d="M40.32,158.14a5.34,5.34,0,0,1-3.17-1,4.53,4.53,0,0,1-1.77-3.75h3a1.59,1.59,0,0,0,.57,1.37,2.94,2.94,0,0,0,2.44.23c1.27-.39,3.73-2.76,4.91-7.49,2.32-9.22,8.6-9.3,13.64-9.36l0,3c-5.63.07-9.16.59-10.8,7.12-1.41,5.61-4.49,8.86-6.92,9.6A6.63,6.63,0,0,1,40.32,158.14Z"/><rect class="cls-39" x="54.75" y="138.13" width="5.76" height="4"/><path class="cls-40" d="M85.21,146.88a96.46,96.46,0,0,1-23.13.68,3,3,0,0,1-2.72-3.1c.35-6.89.47-14.24.14-20.8a3,3,0,0,1,3-3.19,203.13,203.13,0,0,0,21.15-.76,3.22,3.22,0,0,1,3.52,2.88A174.33,174.33,0,0,1,87.81,144,3.09,3.09,0,0,1,85.21,146.88Z"/><circle class="cls-41" cx="82.89" cy="124.1" r="1.41"/><path class="cls-42" d="M63.81,129.2a158.72,158.72,0,0,0,20.06-.46"/><path class="cls-42" d="M63.81,133.34c5.2.46,17.77-.16,20.06-.46"/><path class="cls-42" d="M63.81,137.47A158.72,158.72,0,0,0,83.87,137"/><path class="cls-42" d="M63.81,141.61a158.72,158.72,0,0,0,20.06-.46"/><path class="cls-43" d="M138.27,128.29c-.74-.94-3.22-4-5.29-4.45-3.61-.75-7.11,3.4-7.11,3.4-1.41,1.64-1.4,7.18-1.4,7.18a5.53,5.53,0,0,0,4.12-1c1.46-1.15,2-3,3.26-4h0c.91,0,2,1.09,2.94,2C136.38,133,140,130.44,138.27,128.29Z"/><path class="cls-10" d="M31.48,177.71A9,9,0,0,0,34,179.28a23.07,23.07,0,0,0,3,1.11,34.13,34.13,0,0,0,6.37,1.31,34.76,34.76,0,0,1-6.6-.22,24.11,24.11,0,0,1-3.31-.63,10.79,10.79,0,0,1-3.31-1.42Z"/><path class="cls-10" d="M97.31,185.58a48.85,48.85,0,0,1-6.33-.74c-1-.18-2.06-.38-3.09-.62a24.24,24.24,0,0,1-3-.87,23.1,23.1,0,0,0,3.1.32c1,.06,2.07.07,3.11.07a49.58,49.58,0,0,0,6.13-.38Z"/><path class="cls-10" d="M96.72,189.74a52.37,52.37,0,0,1-6.33-.74c-1-.18-2.07-.38-3.09-.62a24.28,24.28,0,0,1-3-.88,23,23,0,0,0,3.1.33c1,0,2.07.07,3.1.06a47.76,47.76,0,0,0,6.14-.37Z"/><path class="cls-10" d="M29.81,182a8.81,8.81,0,0,0,2.47,1.58,23.07,23.07,0,0,0,3,1.11A35.82,35.82,0,0,0,41.63,186a36.5,36.5,0,0,1-6.6-.22,24.11,24.11,0,0,1-3.31-.63,11.15,11.15,0,0,1-3.31-1.42Z"/><path class="cls-44" d="M71.17,165.36h.39A2.54,2.54,0,0,0,71.17,165.36Z"/><path class="cls-15" d="M77.61,191.71c1.59-7.06,3.71-20.29,3.71-27.35a28.33,28.33,0,0,1-9.76,1,75,75,0,0,1-.72,22.26C68.28,201.22,64,209.8,68,213.71c1.68,1.63,4.53,2.86,7.87,3.72C73.15,210.26,76.16,198.17,77.61,191.71Z"/><path class="cls-10" d="M31.51,106.9a.74.74,0,0,1-.75-.75V103a.75.75,0,1,1,1.5,0v3.17A.75.75,0,0,1,31.51,106.9Z"/><path class="cls-45" d="M151.35,32l10.4-20.7a2.91,2.91,0,0,1,5.19,0l6.87,13.67c-1.62.88-3.38,1.72-5.23,2.51L164.34,19,158.4,30.85A40,40,0,0,1,151.35,32Zm33.57-16.48c-.61-1.56-2.91-2.32-6.26-2.32a39.36,39.36,0,0,0-9.21,1.31l.37.73A38.13,38.13,0,0,1,178.66,14c3.06,0,5.06.66,5.51,1.81.52,1.34-1,3.57-4,6a53,53,0,0,1-13.6,7.37c-6.1,2.34-12.13,3.68-16.55,3.68-3.05,0-5.06-.66-5.5-1.81-.52-1.34,1-3.57,4-6a44.86,44.86,0,0,1,7.87-4.86L157,19c-8.72,4.14-14.39,9.26-13.21,12.3.6,1.56,2.91,2.32,6.25,2.32h.61a2.9,2.9,0,0,0,2.84,3.51,3,3,0,0,0,2.6-1.6l1.4-2.8a64.3,64.3,0,0,0,9.39-2.84c.83-.31,1.64-.65,2.44-1l3.33,6.63a2.9,2.9,0,0,0,2.59,1.6h0a2.88,2.88,0,0,0,2.59-4.18l-3.29-6.56C181.61,22.52,186,18.18,184.92,15.48Z"/></g></g></g></svg>