<svg xmlns="http://www.w3.org/2000/svg" xmlns:xlink="http://www.w3.org/1999/xlink" viewBox="0 0 672.32 364.11"><defs><style>.cls-1{isolation:isolate;}.cls-2{fill:#2a3c47;}.cls-3{fill:url(#linear-gradient);}.cls-4{fill:url(#linear-gradient-2);}.cls-5{fill:url(#linear-gradient-3);}.cls-6{fill:url(#linear-gradient-4);}.cls-7{fill:#36527a;opacity:0.2;}.cls-17,.cls-20,.cls-24,.cls-26,.cls-7{mix-blend-mode:multiply;}.cls-8{fill:url(#linear-gradient-5);}.cls-9{fill:url(#linear-gradient-6);}.cls-10{fill:#fff;}.cls-11,.cls-13,.cls-21{fill:none;}.cls-11,.cls-13{stroke:#30323d;}.cls-11,.cls-21{stroke-linecap:round;stroke-linejoin:round;}.cls-11{stroke-width:4px;}.cls-11,.cls-12{opacity:0.8;}.cls-13{stroke-miterlimit:10;stroke-width:2px;}.cls-14{fill:#30323d;}.cls-15{fill:url(#linear-gradient-7);}.cls-16{fill:url(#linear-gradient-8);}.cls-17,.cls-20,.cls-24,.cls-26{opacity:0.3;}.cls-17{fill:url(#linear-gradient-9);}.cls-18{fill:url(#linear-gradient-10);}.cls-19{fill:#d9a17e;}.cls-20{fill:url(#linear-gradient-11);}.cls-21{stroke:#d9a17e;stroke-width:2.5px;}.cls-22{fill:url(#linear-gradient-12);}.cls-23{fill:url(#linear-gradient-13);}.cls-24{fill:url(#linear-gradient-14);}.cls-25{fill:url(#linear-gradient-15);}.cls-26{fill:url(#linear-gradient-16);}</style><linearGradient id="linear-gradient" x1="188.4" y1="365.03" x2="302.16" y2="-256.61" gradientUnits="userSpaceOnUse"><stop offset="0" stop-color="#36527a"/><stop offset="0.14" stop-color="#375f84"/><stop offset="0.41" stop-color="#39839f"/><stop offset="0.76" stop-color="#3cbbca"/><stop offset="1" stop-color="#3fe5e9"/></linearGradient><linearGradient id="linear-gradient-2" x1="-50.25" y1="-7.09" x2="397.33" y2="255.91" gradientUnits="userSpaceOnUse"><stop offset="0" stop-color="#fff"/><stop offset="1" stop-color="#bdbdc1"/></linearGradient><linearGradient id="linear-gradient-3" x1="133.89" y1="88.12" x2="571.57" y2="313.68" gradientUnits="userSpaceOnUse"><stop offset="0.14" stop-color="#fff"/><stop offset="0.44" stop-color="#ebebec"/><stop offset="1" stop-color="#bdbdc1"/></linearGradient><linearGradient id="linear-gradient-4" x1="407.64" y1="415.51" x2="552.74" y2="-377.42" xlink:href="#linear-gradient"/><linearGradient id="linear-gradient-5" x1="437.32" y1="370.04" x2="607.63" y2="5.5" xlink:href="#linear-gradient-2"/><linearGradient id="linear-gradient-6" x1="602.84" y1="-70.49" x2="346.83" y2="290.12" xlink:href="#linear-gradient-2"/><linearGradient id="linear-gradient-7" x1="550.18" y1="161.07" x2="508.25" y2="244.19" gradientUnits="userSpaceOnUse"><stop offset="0" stop-color="#f2be8d"/><stop offset="0.53" stop-color="#e7b186"/><stop offset="1" stop-color="#d9a17e"/></linearGradient><linearGradient id="linear-gradient-8" x1="623.73" y1="156.66" x2="609.92" y2="282.99" xlink:href="#linear-gradient-7"/><linearGradient id="linear-gradient-9" x1="564.84" y1="127.69" x2="575.46" y2="127.85" gradientUnits="userSpaceOnUse"><stop offset="0" stop-color="#f2be8d"/><stop offset="0.2" stop-color="#f2be8d" stop-opacity="0.76"/><stop offset="0.49" stop-color="#f2be8d" stop-opacity="0.44"/><stop offset="0.73" stop-color="#f2be8d" stop-opacity="0.2"/><stop offset="0.91" stop-color="#f2be8d" stop-opacity="0.06"/><stop offset="1" stop-color="#f2be8d" stop-opacity="0"/></linearGradient><linearGradient id="linear-gradient-10" x1="497.34" y1="123.52" x2="531.08" y2="147.28" gradientTransform="translate(-7.12 12.14)" gradientUnits="userSpaceOnUse"><stop offset="0" stop-color="#fbe9d9"/><stop offset="1" stop-color="#f2be8d"/></linearGradient><linearGradient id="linear-gradient-11" x1="586.33" y1="222.56" x2="547.57" y2="257.57" gradientUnits="userSpaceOnUse"><stop offset="0" stop-color="#f2be8d" stop-opacity="0"/><stop offset="0.09" stop-color="#f2be8d" stop-opacity="0.06"/><stop offset="0.27" stop-color="#f2be8d" stop-opacity="0.2"/><stop offset="0.51" stop-color="#f2be8d" stop-opacity="0.44"/><stop offset="0.8" stop-color="#f2be8d" stop-opacity="0.76"/><stop offset="1" stop-color="#f2be8d"/></linearGradient><linearGradient id="linear-gradient-12" x1="-640.06" y1="161.07" x2="-681.98" y2="244.19" gradientTransform="matrix(-1, 0, 0, 1, -517.91, 0)" xlink:href="#linear-gradient-7"/><linearGradient id="linear-gradient-13" x1="-566.51" y1="156.66" x2="-580.31" y2="282.99" gradientTransform="matrix(-1, 0, 0, 1, -517.91, 0)" xlink:href="#linear-gradient-7"/><linearGradient id="linear-gradient-14" x1="-625.4" y1="127.69" x2="-614.78" y2="127.85" gradientTransform="matrix(-1, 0, 0, 1, -517.91, 0)" xlink:href="#linear-gradient-9"/><linearGradient id="linear-gradient-15" x1="-443.83" y1="852.12" x2="-410.09" y2="875.88" gradientTransform="matrix(1, 0, 0, -1, 612.92, 1000.41)" xlink:href="#linear-gradient-10"/><linearGradient id="linear-gradient-16" x1="-603.9" y1="222.56" x2="-642.67" y2="257.57" gradientTransform="matrix(-1, 0, 0, 1, -517.91, 0)" xlink:href="#linear-gradient-11"/></defs><title>book with hand</title><g class="cls-1"><g id="Layer_2" data-name="Layer 2"><g id="book"><polygon class="cls-2" points="107.69 322.74 336.16 364.11 336.16 64.27 107.69 22.89 107.69 322.74"/><polygon class="cls-3" points="107.69 311.07 336.16 352.44 336.16 52.6 107.69 11.23 107.69 311.07"/><path class="cls-4" d="M131.91,278.07c80.64,0,204.25,46.11,204.25,46.11V46.11C336.16,27.57,212.55,0,131.91,0Z"/><path class="cls-5" d="M131.91,238.34c80.64,0,204.25,46.1,204.25,46.1V46.11C336.16,27.57,212.55,0,131.91,0Z"/><polygon class="cls-2" points="564.64 322.74 336.16 364.11 336.16 64.27 564.64 22.89 564.64 322.74"/><polygon class="cls-6" points="564.64 311.07 336.16 352.44 336.16 52.6 564.64 11.23 564.64 311.07"/><polygon class="cls-7" points="550.08 23.77 564.64 38.36 564.64 311.07 507.79 267.45 550.08 23.77"/><polygon class="cls-8" points="540.41 0 550.08 23.77 550.08 278.07 540.41 278.07 540.41 0"/><path class="cls-9" d="M540.41,278.07c-80.63,0-204.25,46.11-204.25,46.11V46.11C336.16,27.57,459.78,0,540.41,0Z"/><path class="cls-10" d="M540.41,238.34c-80.63,0-204.25,46.1-204.25,46.1V46.11C336.16,27.57,459.78,0,540.41,0Z"/><path class="cls-11" d="M375.52,75.53c33.75-10.28,84-19.54,129.11-23.06"/><path class="cls-11" d="M375.52,102c33.75-10.27,84-19.53,129.11-23.06"/><path class="cls-11" d="M375.52,128.47a531.11,531.11,0,0,1,54.3-13"/><g class="cls-12"><line class="cls-13" x1="196.61" y1="112.27" x2="247.54" y2="89.48"/><line class="cls-13" x1="222.89" y1="68.01" x2="255.28" y2="44.63"/><line class="cls-13" x1="247.54" y1="89.48" x2="222.89" y2="68.01"/><line class="cls-13" x1="274.61" y1="147.24" x2="247.54" y2="89.48"/><line class="cls-13" x1="196.61" y1="112.27" x2="222.89" y2="68.01"/><circle class="cls-14" cx="196.61" cy="112.27" r="3.65"/><circle class="cls-14" cx="274.61" cy="147.24" r="4.15"/><circle class="cls-14" cx="247.54" cy="89.48" r="4.94"/><circle class="cls-14" cx="222.89" cy="68.01" r="4.15"/><circle class="cls-14" cx="255.28" cy="44.63" r="4.15"/></g><g class="cls-12"><line class="cls-13" x1="241.42" y1="206.51" x2="186.67" y2="185.94"/><line class="cls-13" x1="281.99" y1="228.19" x2="274.36" y2="177.23"/><line class="cls-13" x1="274.36" y1="177.23" x2="241.42" y2="206.51"/><line class="cls-13" x1="281.99" y1="228.19" x2="241.42" y2="206.51"/><circle class="cls-14" cx="186.67" cy="185.94" r="3.3"/><circle class="cls-14" cx="274.36" cy="177.23" r="3.88"/><circle class="cls-14" cx="241.42" cy="206.51" r="5.4"/><circle class="cls-14" cx="281.99" cy="228.19" r="3.88"/></g><g class="cls-12"><line class="cls-13" x1="440.29" y1="158.81" x2="413.57" y2="213.51"/><line class="cls-13" x1="466.49" y1="207.89" x2="440.29" y2="158.81"/><circle class="cls-14" cx="413.57" cy="213.51" r="3.3"/><circle class="cls-14" cx="440.29" cy="158.81" r="5.4"/><circle class="cls-14" cx="466.49" cy="207.89" r="3.88"/></g></g><g id="hands"><path class="cls-15" d="M484.23,133.15a17.56,17.56,0,0,0,3.32,24.41c38.37,29.65,47.37,37,47.18,46.59-.21,10.21-.35,16,2.2,32.83,4.25,28,22,38.86,32.58,45,1-16.12,3.63-88.9,2.92-94.18-1.54-11.56-24.17-31.33-31.39-36.39-9.49-6.66-20.31-13.49-32.48-22.11a17.66,17.66,0,0,0-24.33,3.82Z"/><path class="cls-16" d="M564.64,81.12c21.63,26.78,34.71,31.09,38.82,59.9,11.3,79.28,32.66,125.08,68.11,184.71,11.28,19-106.93-9.26-106.93-9.26Z"/><path class="cls-17" d="M564.64,81.12c8.06,15.59,12,60.95,12,71.37s-3.49,24.27-12,21.42Z"/><path class="cls-18" d="M496.72,130.78h7.2a4,4,0,0,1,4,4v14.39a4,4,0,0,1-4,4h-7.2a11.2,11.2,0,0,1-11.2-11.2v0a11.2,11.2,0,0,1,11.2-11.2Z" transform="translate(190.85 -274.36) rotate(37.75)"/><path class="cls-19" d="M564.64,173.91c6.91,8.64,15.12,15.1,23.89,14.86-9.89-3.79-17.92-9.59-23.89-19.19Z"/><path class="cls-19" d="M564.64,169.58c5.73,5.28,12.51,8.44,19.34,6.7-7.63-1.1-14.7-4.32-19.34-9.78Z"/><path class="cls-19" d="M564.64,145.7c6.39-6.91,14.81-9.14,23.73-7.53-10.42,1.89-16.92,3.06-23.73,11.47Z"/><path class="cls-20" d="M538.73,203.9c-.46,14-3.37,59.54,36.94,77.13,41.17,18,13.3-48.46-1.77-67.08S539.24,188.54,538.73,203.9Z"/><path class="cls-21" d="M535.63,155.05c-2.18,1.88-6.71,9.72-7.27,11.8"/><path class="cls-22" d="M188.09,133.15a17.55,17.55,0,0,1-3.32,24.41c-38.36,29.65-47.37,37-47.17,46.59.21,10.21.34,16-2.21,32.83-4.25,28-22,38.86-32.57,45-1-16.12-3.63-88.9-2.93-94.18,1.55-11.56,24.17-31.33,31.39-36.39,9.5-6.66,20.32-13.49,32.49-22.11a17.64,17.64,0,0,1,24.32,3.82Z"/><path class="cls-23" d="M107.69,81.12C86.05,107.9,73,112.21,68.87,141,57.56,220.3,36.2,266.1.76,325.73c-11.28,19,106.93-9.26,106.93-9.26Z"/><path class="cls-24" d="M107.69,81.12c-8.07,15.59-12,60.95-12,71.37s3.49,24.27,12,21.42Z"/><path class="cls-25" d="M175.6,130.78h7.2a4,4,0,0,1,4,4v14.39a4,4,0,0,1-4,4h-7.2A11.2,11.2,0,0,1,164.4,142v0A11.2,11.2,0,0,1,175.6,130.78Z" transform="translate(401.36 146.74) rotate(142.25)"/><path class="cls-19" d="M107.69,173.91c-6.91,8.64-15.13,15.1-23.9,14.86,9.89-3.79,17.93-9.59,23.9-19.19Z"/><path class="cls-19" d="M107.69,169.58c-5.73,5.28-12.52,8.44-19.34,6.7C96,175.18,103,172,107.69,166.5Z"/><path class="cls-19" d="M107.69,145.7c-6.4-6.91-14.81-9.14-23.74-7.53,10.42,1.89,16.92,3.06,23.74,11.47Z"/><path class="cls-26" d="M133.59,203.9c.46,14,3.37,59.54-36.94,77.13C55.48,299,83.36,232.57,98.43,214S133.09,188.54,133.59,203.9Z"/><path class="cls-21" d="M136.7,155.05c2.17,1.88,6.7,9.72,7.27,11.8"/></g></g></g></svg>