<?xml version="1.0" encoding="utf-8"?>
<!-- Generator: Adobe Illustrator 23.0.0, SVG Export Plug-In . SVG Version: 6.00 Build 0)  -->
<svg version="1.1" id="Layer_1" xmlns="http://www.w3.org/2000/svg" xmlns:xlink="http://www.w3.org/1999/xlink" x="0px" y="0px"
	 viewBox="0 0 672.3 364.1" style="enable-background:new 0 0 672.3 364.1;" xml:space="preserve">
<style type="text/css">
	.st0{fill:#2A3C47;}
	.st1{fill:url(#SVGID_1_);}
	.st2{fill:url(#SVGID_2_);}
	.st3{fill:url(#SVGID_3_);}
	.st4{fill:url(#SVGID_4_);}
	.st5{opacity:0.2;fill:#36527A;enable-background:new    ;}
	.st6{fill:url(#SVGID_5_);}
	.st7{fill:url(#SVGID_6_);}
	.st8{fill:#FFFFFF;}
	.st9{opacity:0.8;fill:none;stroke:#30323D;stroke-width:4;stroke-linecap:round;stroke-linejoin:round;enable-background:new    ;}
	.st10{opacity:0.8;}
	.st11{fill:none;stroke:#30323D;stroke-width:2;stroke-miterlimit:10;}
	.st12{fill:#30323D;}
	.st13{fill:url(#SVGID_7_);}
	.st14{fill:url(#SVGID_8_);}
	.st15{opacity:0.3;fill:url(#SVGID_9_);enable-background:new    ;}
	.st16{fill:url(#SVGID_10_);}
	.st17{fill:#D9A17E;}
	.st18{opacity:0.3;fill:url(#SVGID_11_);enable-background:new    ;}
	.st19{fill:none;stroke:#D9A17E;stroke-width:2.5;stroke-linecap:round;stroke-linejoin:round;}
	.st20{fill:url(#SVGID_12_);}
	.st21{fill:url(#SVGID_13_);}
	.st22{opacity:0.3;fill:url(#SVGID_14_);enable-background:new    ;}
	.st23{fill:url(#SVGID_15_);}
	.st24{opacity:0.3;fill:url(#SVGID_16_);enable-background:new    ;}
	.st25{opacity:0.2;fill:#231F20;}
</style>
<title>book with hand</title>
<g>
	<g>
		<g id="book">
			<polygon class="st0" points="107.7,322.7 336.2,364.1 336.2,64.3 107.7,22.9 			"/>
			
				<linearGradient id="SVGID_1_" gradientUnits="userSpaceOnUse" x1="188.4003" y1="0.9699" x2="302.1603" y2="622.6099" gradientTransform="matrix(1 0 0 -1 0 366)">
				<stop  offset="0" style="stop-color:#36527A"/>
				<stop  offset="0.14" style="stop-color:#375F84"/>
				<stop  offset="0.41" style="stop-color:#39839F"/>
				<stop  offset="0.76" style="stop-color:#3CBBCA"/>
				<stop  offset="1" style="stop-color:#3FE5E9"/>
			</linearGradient>
			<polygon class="st1" points="107.7,311.1 336.2,352.4 336.2,52.6 107.7,11.2 			"/>
			
				<linearGradient id="SVGID_2_" gradientUnits="userSpaceOnUse" x1="-50.2499" y1="373.0902" x2="397.3301" y2="110.0902" gradientTransform="matrix(1 0 0 -1 0 366)">
				<stop  offset="0" style="stop-color:#FFFFFF"/>
				<stop  offset="1" style="stop-color:#BDBDC1"/>
			</linearGradient>
			<path class="st2" d="M131.9,278.1c80.6,0,204.3,46.1,204.3,46.1V46.1C336.2,27.6,212.6,0,131.9,0V278.1z"/>
			
				<linearGradient id="SVGID_3_" gradientUnits="userSpaceOnUse" x1="133.8896" y1="277.8793" x2="571.5696" y2="52.3193" gradientTransform="matrix(1 0 0 -1 0 366)">
				<stop  offset="0.14" style="stop-color:#FFFFFF"/>
				<stop  offset="0.44" style="stop-color:#EBEBEC"/>
				<stop  offset="1" style="stop-color:#BDBDC1"/>
			</linearGradient>
			<path class="st3" d="M131.9,238.3c80.6,0,204.3,46.1,204.3,46.1V46.1C336.2,27.6,212.6,0,131.9,0V238.3z"/>
			<polygon class="st0" points="564.6,322.7 336.2,364.1 336.2,64.3 564.6,22.9 			"/>
			
				<linearGradient id="SVGID_4_" gradientUnits="userSpaceOnUse" x1="407.6393" y1="-49.5099" x2="552.7393" y2="743.4202" gradientTransform="matrix(1 0 0 -1 0 366)">
				<stop  offset="0" style="stop-color:#36527A"/>
				<stop  offset="0.14" style="stop-color:#375F84"/>
				<stop  offset="0.41" style="stop-color:#39839F"/>
				<stop  offset="0.76" style="stop-color:#3CBBCA"/>
				<stop  offset="1" style="stop-color:#3FE5E9"/>
			</linearGradient>
			<polygon class="st4" points="564.6,311.1 336.2,352.4 336.2,52.6 564.6,11.2 			"/>
			<polygon class="st5" points="550.1,23.8 564.6,38.4 564.6,311.1 507.8,267.5 			"/>
			
				<linearGradient id="SVGID_5_" gradientUnits="userSpaceOnUse" x1="437.3212" y1="-4.0406" x2="607.6312" y2="360.4995" gradientTransform="matrix(1 0 0 -1 0 366)">
				<stop  offset="0" style="stop-color:#FFFFFF"/>
				<stop  offset="1" style="stop-color:#BDBDC1"/>
			</linearGradient>
			<polygon class="st6" points="540.4,0 550.1,23.8 550.1,278.1 540.4,278.1 			"/>
			
				<linearGradient id="SVGID_6_" gradientUnits="userSpaceOnUse" x1="602.8364" y1="436.4926" x2="346.8263" y2="75.8826" gradientTransform="matrix(1 0 0 -1 0 366)">
				<stop  offset="0" style="stop-color:#FFFFFF"/>
				<stop  offset="1" style="stop-color:#BDBDC1"/>
			</linearGradient>
			<path class="st7" d="M540.4,278.1c-80.6,0-204.3,46.1-204.3,46.1V46.1C336.2,27.6,459.8,0,540.4,0V278.1z"/>
			<path class="st8" d="M540.4,238.3c-80.6,0-204.3,46.1-204.3,46.1V46.1C336.2,27.6,459.8,0,540.4,0V238.3z"/>
			<path class="st9" d="M375.5,75.5c33.8-10.3,84-19.5,129.1-23.1"/>
			<path class="st9" d="M375.5,102c33.8-10.3,84-19.5,129.1-23.1"/>
			<path class="st9" d="M375.5,128.5c17.9-5.3,36-9.6,54.3-13"/>
			<g class="st10">
				<line class="st11" x1="196.6" y1="112.3" x2="247.5" y2="89.5"/>
				<line class="st11" x1="222.9" y1="68" x2="255.3" y2="44.6"/>
				<line class="st11" x1="247.5" y1="89.5" x2="222.9" y2="68"/>
				<line class="st11" x1="274.6" y1="147.2" x2="247.5" y2="89.5"/>
				<line class="st11" x1="196.6" y1="112.3" x2="222.9" y2="68"/>
				<circle class="st12" cx="196.6" cy="112.3" r="3.6"/>
				<circle class="st12" cx="274.6" cy="147.2" r="4.1"/>
				<circle class="st12" cx="247.5" cy="89.5" r="4.9"/>
				<circle class="st12" cx="222.9" cy="68" r="4.1"/>
				<circle class="st12" cx="255.3" cy="44.6" r="4.1"/>
			</g>
			<g class="st10">
				<line class="st11" x1="241.4" y1="206.5" x2="186.7" y2="185.9"/>
				<line class="st11" x1="282" y1="228.2" x2="274.4" y2="177.2"/>
				<line class="st11" x1="274.4" y1="177.2" x2="241.4" y2="206.5"/>
				<line class="st11" x1="282" y1="228.2" x2="241.4" y2="206.5"/>
				<circle class="st12" cx="186.7" cy="185.9" r="3.3"/>
				<circle class="st12" cx="274.4" cy="177.2" r="3.9"/>
				<circle class="st12" cx="241.4" cy="206.5" r="5.4"/>
				<circle class="st12" cx="282" cy="228.2" r="3.9"/>
			</g>
			<g class="st10">
				<line class="st11" x1="440.3" y1="158.8" x2="413.6" y2="213.5"/>
				<line class="st11" x1="466.5" y1="207.9" x2="440.3" y2="158.8"/>
				<circle class="st12" cx="413.6" cy="213.5" r="3.3"/>
				<circle class="st12" cx="440.3" cy="158.8" r="5.4"/>
				<circle class="st12" cx="466.5" cy="207.9" r="3.9"/>
			</g>
		</g>
		<g id="hands">
			
				<linearGradient id="SVGID_7_" gradientUnits="userSpaceOnUse" x1="550.1741" y1="204.9329" x2="508.2441" y2="121.813" gradientTransform="matrix(1 0 0 -1 0 366)">
				<stop  offset="0" style="stop-color:#F2BE8D"/>
				<stop  offset="0.53" style="stop-color:#E7B186"/>
				<stop  offset="1" style="stop-color:#D9A17E"/>
			</linearGradient>
			<path class="st13" d="M484.2,133.1c-5.7,7.7-4.3,18.5,3.3,24.4c38.4,29.6,47.4,37,47.2,46.6c-0.2,10.2-0.3,16,2.2,32.8
				c4.3,28,22,38.9,32.6,45c1-16.1,3.6-88.9,2.9-94.2c-1.5-11.6-24.2-31.3-31.4-36.4c-9.5-6.7-20.3-13.5-32.5-22.1
				C500.8,123.8,490,125.5,484.2,133.1L484.2,133.1z"/>
			
				<linearGradient id="SVGID_8_" gradientUnits="userSpaceOnUse" x1="623.7309" y1="209.3399" x2="609.9209" y2="83.0099" gradientTransform="matrix(1 0 0 -1 0 366)">
				<stop  offset="0" style="stop-color:#F2BE8D"/>
				<stop  offset="0.53" style="stop-color:#E7B186"/>
				<stop  offset="1" style="stop-color:#D9A17E"/>
			</linearGradient>
			<path class="st14" d="M564.6,81.1c21.6,26.8,34.7,31.1,38.8,59.9c11.3,79.3,32.7,125.1,68.1,184.7c11.3,19-106.9-9.3-106.9-9.3
				V81.1z"/>
			
				<linearGradient id="SVGID_9_" gradientUnits="userSpaceOnUse" x1="564.84" y1="238.3089" x2="575.46" y2="238.1489" gradientTransform="matrix(1 0 0 -1 0 366)">
				<stop  offset="0" style="stop-color:#F2BE8D"/>
				<stop  offset="0.2" style="stop-color:#F2BE8D;stop-opacity:0.76"/>
				<stop  offset="0.49" style="stop-color:#F2BE8D;stop-opacity:0.44"/>
				<stop  offset="0.73" style="stop-color:#F2BE8D;stop-opacity:0.2"/>
				<stop  offset="0.91" style="stop-color:#F2BE8D;stop-opacity:6.000000e-02"/>
				<stop  offset="1" style="stop-color:#F2BE8D;stop-opacity:0"/>
			</linearGradient>
			<path class="st15" d="M564.6,81.1c8.1,15.6,12,61,12,71.4s-3.5,24.3-12,21.4V81.1z"/>
			
				<linearGradient id="SVGID_10_" gradientUnits="userSpaceOnUse" x1="634.0188" y1="268.6927" x2="667.7589" y2="244.9326" gradientTransform="matrix(0.7907 0.6122 0.6122 -0.7907 -170.4065 -42.6772)">
				<stop  offset="0" style="stop-color:#FBE9D9"/>
				<stop  offset="1" style="stop-color:#F2BE8D"/>
			</linearGradient>
			<path class="st16" d="M503.5,133.1l5.7,4.4c1.7,1.4,2.1,3.9,0.7,5.6l-8.8,11.4c-1.4,1.7-3.9,2.1-5.6,0.7l-5.7-4.4
				c-4.9-3.8-5.8-10.8-2-15.7c0,0,0,0,0,0l0,0C491.6,130.2,498.7,129.4,503.5,133.1L503.5,133.1L503.5,133.1z"/>
			<path class="st17" d="M564.6,173.9c6.9,8.6,15.1,15.1,23.9,14.9c-9.9-3.8-17.9-9.6-23.9-19.2V173.9z"/>
			<path class="st17" d="M564.6,169.6c5.7,5.3,12.5,8.4,19.3,6.7c-7.6-1.1-14.7-4.3-19.3-9.8V169.6z"/>
			<path class="st17" d="M564.6,145.7c6.4-6.9,14.8-9.1,23.7-7.5c-10.4,1.9-16.9,3.1-23.7,11.5V145.7z"/>
			
				<linearGradient id="SVGID_11_" gradientUnits="userSpaceOnUse" x1="586.3348" y1="143.4347" x2="547.5748" y2="108.4247" gradientTransform="matrix(1 0 0 -1 0 366)">
				<stop  offset="0" style="stop-color:#F2BE8D;stop-opacity:0"/>
				<stop  offset="9.000000e-02" style="stop-color:#F2BE8D;stop-opacity:6.000000e-02"/>
				<stop  offset="0.27" style="stop-color:#F2BE8D;stop-opacity:0.2"/>
				<stop  offset="0.51" style="stop-color:#F2BE8D;stop-opacity:0.44"/>
				<stop  offset="0.8" style="stop-color:#F2BE8D;stop-opacity:0.76"/>
				<stop  offset="1" style="stop-color:#F2BE8D"/>
			</linearGradient>
			<path class="st18" d="M538.7,203.9c-0.5,14-3.4,59.5,36.9,77.1c41.2,18,13.3-48.5-1.8-67.1S539.2,188.5,538.7,203.9z"/>
			<path class="st19" d="M535.6,155.1c-2.2,1.9-6.7,9.7-7.3,11.8"/>
			
				<linearGradient id="SVGID_12_" gradientUnits="userSpaceOnUse" x1="-580.0671" y1="204.9336" x2="-621.9871" y2="121.8136" gradientTransform="matrix(-1 0 0 -1 -457.91 366)">
				<stop  offset="0" style="stop-color:#F2BE8D"/>
				<stop  offset="0.53" style="stop-color:#E7B186"/>
				<stop  offset="1" style="stop-color:#D9A17E"/>
			</linearGradient>
			<path class="st20" d="M188.1,133.1c5.7,7.7,4.3,18.5-3.3,24.4c-38.4,29.6-47.4,37-47.2,46.6c0.2,10.2,0.3,16-2.2,32.8
				c-4.3,28-22,38.9-32.6,45c-1-16.1-3.6-88.9-2.9-94.2c1.6-11.6,24.2-31.3,31.4-36.4c9.5-6.7,20.3-13.5,32.5-22.1
				C171.6,123.8,182.4,125.5,188.1,133.1L188.1,133.1z"/>
			
				<linearGradient id="SVGID_13_" gradientUnits="userSpaceOnUse" x1="-506.5128" y1="209.3403" x2="-520.3129" y2="83.0103" gradientTransform="matrix(-1 0 0 -1 -457.91 366)">
				<stop  offset="0" style="stop-color:#F2BE8D"/>
				<stop  offset="0.53" style="stop-color:#E7B186"/>
				<stop  offset="1" style="stop-color:#D9A17E"/>
			</linearGradient>
			<path class="st21" d="M107.7,81.1C86.1,107.9,73,112.2,68.9,141C57.6,220.3,36.2,266.1,0.8,325.7c-11.3,19,106.9-9.3,106.9-9.3
				V81.1z"/>
			
				<linearGradient id="SVGID_14_" gradientUnits="userSpaceOnUse" x1="-565.4" y1="238.3089" x2="-554.78" y2="238.1489" gradientTransform="matrix(-1 0 0 -1 -457.91 366)">
				<stop  offset="0" style="stop-color:#F2BE8D"/>
				<stop  offset="0.2" style="stop-color:#F2BE8D;stop-opacity:0.76"/>
				<stop  offset="0.49" style="stop-color:#F2BE8D;stop-opacity:0.44"/>
				<stop  offset="0.73" style="stop-color:#F2BE8D;stop-opacity:0.2"/>
				<stop  offset="0.91" style="stop-color:#F2BE8D;stop-opacity:6.000000e-02"/>
				<stop  offset="1" style="stop-color:#F2BE8D;stop-opacity:0"/>
			</linearGradient>
			<path class="st22" d="M107.7,81.1c-8.1,15.6-12,61-12,71.4s3.5,24.3,12,21.4V81.1z"/>
			
				<linearGradient id="SVGID_15_" gradientUnits="userSpaceOnUse" x1="-259.7065" y1="-423.1696" x2="-225.9665" y2="-446.9296" gradientTransform="matrix(-0.7907 0.6122 -0.6122 -0.7907 -287.5432 -42.5908)">
				<stop  offset="0" style="stop-color:#FBE9D9"/>
				<stop  offset="1" style="stop-color:#F2BE8D"/>
			</linearGradient>
			<path class="st23" d="M182.4,150.8l-5.7,4.4c-1.7,1.4-4.3,1-5.6-0.7l-8.8-11.4c-1.4-1.7-1-4.3,0.7-5.6l5.7-4.4
				c4.9-3.8,11.9-2.9,15.7,2l0,0C188.2,140,187.3,147,182.4,150.8C182.5,150.8,182.5,150.8,182.4,150.8z"/>
			<path class="st17" d="M107.7,173.9c-6.9,8.6-15.1,15.1-23.9,14.9c9.9-3.8,17.9-9.6,23.9-19.2V173.9z"/>
			<path class="st17" d="M107.7,169.6c-5.7,5.3-12.5,8.4-19.3,6.7c7.6-1.1,14.6-4.3,19.3-9.8V169.6z"/>
			<path class="st17" d="M107.7,145.7c-6.4-6.9-14.8-9.1-23.7-7.5c10.4,1.9,16.9,3.1,23.7,11.5V145.7z"/>
			
				<linearGradient id="SVGID_16_" gradientUnits="userSpaceOnUse" x1="-543.8947" y1="143.4341" x2="-582.6646" y2="108.4241" gradientTransform="matrix(-1 0 0 -1 -457.91 366)">
				<stop  offset="0" style="stop-color:#F2BE8D;stop-opacity:0"/>
				<stop  offset="9.000000e-02" style="stop-color:#F2BE8D;stop-opacity:6.000000e-02"/>
				<stop  offset="0.27" style="stop-color:#F2BE8D;stop-opacity:0.2"/>
				<stop  offset="0.51" style="stop-color:#F2BE8D;stop-opacity:0.44"/>
				<stop  offset="0.8" style="stop-color:#F2BE8D;stop-opacity:0.76"/>
				<stop  offset="1" style="stop-color:#F2BE8D"/>
			</linearGradient>
			<path class="st24" d="M133.6,203.9c0.5,14,3.4,59.5-36.9,77.1c-41.2,18-13.3-48.5,1.8-67S133.1,188.5,133.6,203.9z"/>
			<path class="st19" d="M136.7,155.1c2.2,1.9,6.7,9.7,7.3,11.8"/>
		</g>
		<path class="st25" d="M188.1,133.1L188.1,133.1c-5.7-7.7-16.5-9.4-24.3-3.8c-12.2,8.6-23,15.5-32.5,22.1
			c-4.7,3.3-15.9,12.8-23.6,22.2V81.1C86,107.9,73,112.2,68.9,141C57.6,220.3,36.2,266.1,0.8,325.7c-11.3,19,106.9-9.3,106.9-9.3
			V279c10.5-6.6,24.1-18,27.7-42.1c2.5-16.8,2.4-22.6,2.2-32.8c-0.2-9.6,8.8-16.9,47.2-46.6C192.4,151.7,193.8,140.8,188.1,133.1z"
			/>
		<path class="st25" d="M671.6,325.7c-35.5-59.6-56.8-105.4-68.1-184.7c-4.1-28.8-17.2-33.1-38.8-59.9v92.5
			c-7.7-9.4-18.9-18.9-23.6-22.2c-9.5-6.7-20.3-13.5-32.5-22.1c-7.8-5.5-18.6-3.8-24.3,3.8v0c-5.7,7.7-4.3,18.5,3.3,24.4
			c38.4,29.6,47.4,37,47.2,46.6c-0.2,10.2-0.3,16,2.2,32.8c3.6,24,17.2,35.4,27.7,42.1v37.4C564.6,316.5,682.9,344.7,671.6,325.7z"
			/>
	</g>
</g>
</svg>
