<svg xmlns="http://www.w3.org/2000/svg" xmlns:xlink="http://www.w3.org/1999/xlink" viewBox="0 0 226.96 534.14"><defs><style>.cls-1{fill:none;}.cls-2{fill:#4a6488;}.cls-3{fill:#2f4e6d;}.cls-4{fill:#425c7c;}.cls-5{fill:url(#linear-gradient);}.cls-6{fill:#597091;}.cls-7{fill:#4c6588;}.cls-8{fill:url(#linear-gradient-2);}.cls-9{clip-path:url(#clip-path);}.cls-10{fill:#fff;opacity:0.2;}</style><linearGradient id="linear-gradient" x1="-17.45" y1="383.85" x2="244.9" y2="121.5" gradientUnits="userSpaceOnUse"><stop offset="0" stop-color="#afbaca"/><stop offset="1" stop-color="#fff"/></linearGradient><linearGradient id="linear-gradient-2" x1="74.96" y1="246.19" x2="150.4" y2="170.75" gradientTransform="translate(274.86 35.7) rotate(71.58)" gradientUnits="userSpaceOnUse"><stop offset="0" stop-color="#a115ff"/><stop offset="0.1" stop-color="#9d1efe"/><stop offset="0.26" stop-color="#9235fc"/><stop offset="0.45" stop-color="#805bf8"/><stop offset="0.68" stop-color="#678ff2"/><stop offset="0.93" stop-color="#48d2eb"/><stop offset="1" stop-color="#3fe5e9"/></linearGradient><clipPath id="clip-path"><circle class="cls-1" cx="112.68" cy="208.47" r="53.34" transform="translate(-120.72 249.5) rotate(-71.58)"/></clipPath></defs><title>rocket</title><g id="Layer_2" data-name="Layer 2"><g id="slide_6" data-name="slide 6"><path class="cls-2" d="M187.69,393.17s37.8,82.13,11.65,141c0,0-23.33-40.66-61.87-40.66Z"/><path class="cls-3" d="M187.69,393.17l-4.59,11.44c19.3,66,11.4,121.66,11.4,121.66h0c3.13,4.66,4.84,7.87,4.84,7.87C225.49,475.3,187.69,393.17,187.69,393.17Z"/><path class="cls-2" d="M41.17,392.65s-38.06,82-12.1,141c0,0,21.22-40.42,62-40.42Z"/><path class="cls-3" d="M29.07,533.6s1.05-2,3-5.05c-19-58.68,10.82-115.18,10.82-115.18l4-6.22-5.76-14.5S3.11,474.61,29.07,533.6Z"/><path class="cls-4" d="M119.75,26.64c-5.12-5-11.12-4.78-16.16.6C70.41,62.63,44.28,118.71,36.08,194.56,26.41,284,42.46,389.06,84.86,489.41c1.66,3.93,4.1,6.5,6.77,7.3a73.35,73.35,0,0,0,21,3.17,74.45,74.45,0,0,0,26.7-5c2.65-1,5-3.7,6.61-7.73,40.76-103.42,55.12-209.58,44-298.28C180.51,113.69,153.49,59.57,119.75,26.64Z"/><path class="cls-5" d="M122.27,3.67c-7.26-5.09-15.76-4.87-22.9.58-47,35.91-84,92.83-95.55,169.86C-9.82,265,13,371.64,73.13,473.61a15.05,15.05,0,0,0,9.6,7.42,141.61,141.61,0,0,0,67.53-1.79,15.55,15.55,0,0,0,9.36-7.83c57.68-105,78-212.79,62.17-302.89C208.4,92.14,170.09,37.14,122.27,3.67Z"/><path class="cls-3" d="M112.14,457.86a335.4,335.4,0,0,1-45.86-3.28,27.16,27.16,0,0,1-4.45-1q5.42,10.05,11.3,20.05a15.05,15.05,0,0,0,9.6,7.42,141.61,141.61,0,0,0,67.53-1.79,15.55,15.55,0,0,0,9.36-7.83q5-9.15,9.67-18.33A333.87,333.87,0,0,1,112.14,457.86Z"/><path class="cls-2" d="M114.42,399.25h0c7.74,0,13,1.63,11.8,20.39l-5.48,88.29c-.31,4.92-3.22,8.62-6.51,8.61h0c-3.29,0-6.19-3.72-6.48-8.64l-5.2-88.33C101.45,400.81,106.68,399.22,114.42,399.25Z"/><path class="cls-3" d="M114.39,419.88h0c3.56,0,6,1.34,5.42,16.83l-2.58,72.89c-.14,4.07-1.49,7.12-3,7.11h0c-1.51,0-2.85-3.06-3-7.12l-2.34-72.91C108.41,421.19,110.82,419.87,114.39,419.88Z"/><path class="cls-6" d="M113.71,85.59A118.51,118.51,0,0,0,181.6,64.82,228.31,228.31,0,0,0,122.27,3.67c-7.26-5.09-15.76-4.87-22.9.58A237.14,237.14,0,0,0,44.64,63.52,118.55,118.55,0,0,0,113.71,85.59Z"/><path class="cls-3" d="M115.59,53.73a119.61,119.61,0,0,1-54.13-13A240.77,240.77,0,0,0,44.64,63.52a118.55,118.55,0,0,0,69.07,22.07A118.51,118.51,0,0,0,181.6,64.82a236.13,236.13,0,0,0-16.22-21.65A119.84,119.84,0,0,1,115.59,53.73Z"/><circle class="cls-3" cx="112.79" cy="214.19" r="59.21" transform="translate(-118.42 142.49) rotate(-45)"/><circle class="cls-7" cx="112.78" cy="220.18" r="59.21" transform="matrix(0.32, -0.95, 0.95, 0.32, -131.75, 257.61)"/><circle class="cls-8" cx="112.68" cy="208.47" r="53.34" transform="translate(-120.72 249.5) rotate(-71.58)"/><g class="cls-9"><rect class="cls-10" x="104.74" y="151.77" width="23.83" height="122.12" transform="translate(184.66 -20.15) rotate(45)"/><rect class="cls-10" x="128.93" y="169.16" width="10.24" height="122.12" transform="translate(202.05 -27.36) rotate(45)"/></g></g></g></svg>