<svg xmlns="http://www.w3.org/2000/svg" xmlns:xlink="http://www.w3.org/1999/xlink" width="113.06" height="33" viewBox="0 0 113.06 33">
  <defs>
    <style>
      .cls-1 {
        fill-rule: evenodd;
        fill: url(#linear-gradient);
      }
    </style>
    <linearGradient id="linear-gradient" x1="1623.97" y1="1918.5" x2="1737.03" y2="1918.5" gradientUnits="userSpaceOnUse">
      <stop offset="0" stop-color="#001fff"/>
      <stop offset="0.173" stop-color="#2de5ea"/>
      <stop offset="0.34" stop-color="#86e028"/>
      <stop offset="0.51" stop-color="#ffce00"/>
      <stop offset="0.68" stop-color="#ff7900"/>
      <stop offset="0.85" stop-color="#f72d2d"/>
      <stop offset="1" stop-color="#ff107d"/>
    </linearGradient>
  </defs>
  <path id="Asyncy_wordmark" data-name="Asyncy wordmark" class="cls-1" d="M1626.4,1926.86a1.248,1.248,0,0,1-1.17.82h0a1.265,1.265,0,0,1-1.16-1.72l8.59-22.73a1.892,1.892,0,0,1,1.77-1.23h0a1.888,1.888,0,0,1,1.76,1.23l8.59,22.73a1.265,1.265,0,0,1-1.16,1.72h0a1.248,1.248,0,0,1-1.17-.82l-8.02-21.64Zm23.61-12.77a2.221,2.221,0,0,0,1.09,1.95,9.813,9.813,0,0,0,2.65,1.17c1.04,0.31,2.07.61,3.1,0.91a5.486,5.486,0,0,1,2.62,1.63,4.416,4.416,0,0,1,1.07,3.09,4.667,4.667,0,0,1-1.82,3.81,7.286,7.286,0,0,1-4.71,1.47,8.026,8.026,0,0,1-4.42-1.17,6.565,6.565,0,0,1-2.02-2.01,1.157,1.157,0,0,1,.39-1.59l0.09-.05a1.12,1.12,0,0,1,1.51.38,4.492,4.492,0,0,0,1.33,1.27,5.763,5.763,0,0,0,3.12.82,5.644,5.644,0,0,0,2.96-.71,2.421,2.421,0,0,0,1.19-2.22,2.282,2.282,0,0,0-1.08-1.98,9.322,9.322,0,0,0-2.64-1.18l-3.1-.9a5.738,5.738,0,0,1-2.63-1.61,4.257,4.257,0,0,1-1.08-3.03,4.722,4.722,0,0,1,1.75-3.74,6.531,6.531,0,0,1,4.41-1.5,7.279,7.279,0,0,1,3.86,1,6.253,6.253,0,0,1,1.83,1.67,1.146,1.146,0,0,1-.36,1.65l-0.01.01a1.1,1.1,0,0,1-1.46-.29,4.383,4.383,0,0,0-3.86-1.7,4.718,4.718,0,0,0-2.66.74A2.386,2.386,0,0,0,1650.01,1914.09Zm27.38-4.75h0a1.193,1.193,0,0,1,1.1,1.63l-7.1,18.4a9.916,9.916,0,0,1-2.97,4.27,5.991,5.991,0,0,1-3.04,1.35,1.122,1.122,0,0,1-1.27-1.12h0a1.145,1.145,0,0,1,1.02-1.13c1.66-.21,2.97-1.48,3.91-3.82l0.46-1.18-7.34-16.75a1.172,1.172,0,0,1,1.06-1.65h0a1.148,1.148,0,0,1,1.05.69l6.45,14.55,5.58-14.48A1.165,1.165,0,0,1,1677.39,1909.34Zm13.05-.44a6.69,6.69,0,0,1,5.17,2.03,7.719,7.719,0,0,1,1.9,5.49v10.05a1.2,1.2,0,0,1-1.19,1.21h0a1.2,1.2,0,0,1-1.19-1.21v-10.05a5.377,5.377,0,0,0-1.28-3.82,4.773,4.773,0,0,0-3.63-1.36,5.634,5.634,0,0,0-4.22,1.67q-1.62,1.68-1.62,5.16v8.4a1.2,1.2,0,0,1-1.19,1.21h0a1.2,1.2,0,0,1-1.19-1.21v-15.92a1.2,1.2,0,0,1,1.19-1.21h0a1.2,1.2,0,0,1,1.19,1.21v1.65A6.639,6.639,0,0,1,1690.44,1908.9Zm20.09,19.22a9.062,9.062,0,0,1-6.78-2.77,9.987,9.987,0,0,1,0-13.68,9.614,9.614,0,0,1,11.58-1.47,7.745,7.745,0,0,1,2.52,2.44,1.153,1.153,0,0,1-.38,1.62h0a1.13,1.13,0,0,1-1.51-.35,5.652,5.652,0,0,0-1.81-1.69,7.129,7.129,0,0,0-8.67,1.13,7.48,7.48,0,0,0,0,10.31,6.947,6.947,0,0,0,10.61-.65,1.107,1.107,0,0,1,1.46-.28l0.06,0.03a1.17,1.17,0,0,1,.35,1.67,8.463,8.463,0,0,1-2.63,2.41A9.322,9.322,0,0,1,1710.53,1928.12Zm25.28-18.78h0.04a1.177,1.177,0,0,1,1.08,1.6l-7.11,18.43a9.916,9.916,0,0,1-2.97,4.27,5.991,5.991,0,0,1-3.04,1.35,1.122,1.122,0,0,1-1.27-1.12h0a1.144,1.144,0,0,1,1.01-1.13q2.505-.315,3.92-3.82l0.46-1.18-7.34-16.75a1.172,1.172,0,0,1,1.06-1.65h0a1.158,1.158,0,0,1,1.05.69l6.44,14.55,5.59-14.5A1.148,1.148,0,0,1,1735.81,1909.34Z" transform="translate(-1623.97 -1902)"/>
</svg>
