<svg xmlns="http://www.w3.org/2000/svg" xmlns:xlink="http://www.w3.org/1999/xlink" viewBox="0 0 231.72 154.23"><defs><style>.cls-1{fill:none;}.cls-2{isolation:isolate;}.cls-3{fill:url(#linear-gradient);}.cls-4,.cls-7{opacity:0.2;}.cls-4{mix-blend-mode:color-dodge;}.cls-5{fill:url(#linear-gradient-2);}.cls-6{clip-path:url(#clip-path);}.cls-7{fill:#a115ff;}.cls-7,.cls-8{mix-blend-mode:screen;}.cls-8{fill:#d18cff;opacity:0.5;}.cls-9{opacity:0.1;mix-blend-mode:multiply;}.cls-10{fill:url(#linear-gradient-3);}</style><linearGradient id="linear-gradient" x1="161.52" y1="55.45" x2="69.86" y2="-36.21" gradientTransform="matrix(1, 0, 0, -1, 0.35, 86.73)" gradientUnits="userSpaceOnUse"><stop offset="0" stop-color="#90f0f2"/><stop offset="0.2" stop-color="#3fe5e9"/><stop offset="0.29" stop-color="#4fc4ec"/><stop offset="0.48" stop-color="#6c86f3"/><stop offset="0.65" stop-color="#8355f8"/><stop offset="0.8" stop-color="#9332fc"/><stop offset="0.92" stop-color="#9d1dfe"/><stop offset="1" stop-color="#a115ff"/></linearGradient><linearGradient id="linear-gradient-2" x1="177.5" y1="22.61" x2="68.5" y2="131.62" gradientTransform="matrix(1, 0, 0, 1, 0, 0)" xlink:href="#linear-gradient"/><clipPath id="clip-path" transform="translate(-6.96)"><path class="cls-1" d="M58.08,79.82a64.93,64.93,0,0,0,3.46,18.41l119.58-45,.16-4.17a66.18,66.18,0,0,0-6-10.06l60-17.33L246,50.76,12.28,138.94,0,107.88Z"/></clipPath><linearGradient id="linear-gradient-3" x1="1451.64" y1="123.67" x2="1362.15" y2="34.18" gradientTransform="matrix(-1, 0, 0, 1, 1529.52, 0)" xlink:href="#linear-gradient"/></defs><title>planet blue purple</title><g class="cls-2"><g id="Layer_2" data-name="Layer 2"><g id="Layer_1-2" data-name="Layer 1"><circle class="cls-3" cx="116.04" cy="77.12" r="64.82"/><g class="cls-4"><path class="cls-5" d="M123,12.3A64.82,64.82,0,1,1,58.18,77.12,64.82,64.82,0,0,1,123,12.3M123,0a77.12,77.12,0,1,0,77.12,77.12A77.2,77.2,0,0,0,123,0Z" transform="translate(-6.96)"/></g><g class="cls-6"><path class="cls-7" d="M7.11,119.23c3.24,8.88,57.78-2.79,121.58-26S241.77,43.88,238.54,35,180.77,37.79,117,61,3.88,110.35,7.11,119.23ZM118.66,65.65c45.41-16.53,84.24-24.83,86.54-18.51S172.41,72.05,127,88.58s-84.23,24.83-86.53,18.51S73.24,82.18,118.66,65.65Z" transform="translate(-6.96)"/><path class="cls-8" d="M118.07,64C66.2,82.9,26.14,104.13,28.77,111.35s47-2.27,98.83-21.14,91.92-40.11,89.3-47.33-47,2.26-98.83,21.14m10,27.57C70.75,112.47,21.72,123,18.81,115s41.4-31.46,98.75-52.33S223.94,31.27,226.85,39.26s-41.4,31.46-98.75,52.33" transform="translate(-6.96)"/></g><g class="cls-9"><path class="cls-10" d="M180.67,47.49C160.58,30,135.37,13.94,106.42,22.11c-18.71,5.29-29.51,17-39.2,22a63.51,63.51,0,0,0-6.49,15c19.37-4.33,30.78-23.94,48.55-25.57,42.58-3.89,58.36,40.39,78.43,39.8A64.48,64.48,0,0,0,180.67,47.49ZM72.8,118.12a64.44,64.44,0,0,0,10.39,10.16c20.4-18,43.87-3.26,49.2,13a64.53,64.53,0,0,0,30.47-13C122.59,89.74,88.75,103.88,72.8,118.12ZM160.87,71c-20.06-19.4-32.21-31.71-53.26-29.26-20.68,2.4-34,29.23-49.35,32.15,0,1.08-.08,2.17-.08,3.26a64.81,64.81,0,0,0,1.9,15.62C75.41,88,82.83,63.93,108.4,60.4c31.52-4.35,52.1,39.38,75.09,40.05a64.62,64.62,0,0,0,4-16.77C180,84.53,169.18,79,160.87,71Zm-2,27.61C142.16,85.31,126.62,67.39,106.3,71,89,74,76.94,93.61,62.11,99.41a64.46,64.46,0,0,0,7.44,14.38C79.62,106.92,88.24,96,103.41,93.35c31.41-5.58,49.36,19.86,66,29.08a65,65,0,0,0,9.89-13.09C173.52,108.39,166.53,104.65,158.9,98.58Z" transform="translate(-6.96)"/></g><path class="cls-1" d="M187.82,77.12q0,3.31-.32,6.56A64.81,64.81,0,0,1,72.8,118.12c-1.15-1.4-2.24-2.84-3.25-4.33A64.6,64.6,0,0,1,58.18,77.12c0-1.09,0-2.18.08-3.26a64.79,64.79,0,0,1,9-29.77A64.81,64.81,0,0,1,187.71,73.33C187.78,74.59,187.82,75.85,187.82,77.12Z" transform="translate(-6.96)"/></g></g></g></svg>