<svg xmlns="http://www.w3.org/2000/svg" xmlns:xlink="http://www.w3.org/1999/xlink" viewBox="0 0 200 200"><defs><style>.cls-1{fill:none;}.cls-2{isolation:isolate;}.cls-3{fill:url(#linear-gradient);}.cls-4,.cls-9{opacity:0.2;}.cls-4{mix-blend-mode:color-dodge;}.cls-5{fill:url(#linear-gradient-2);}.cls-6,.cls-7{fill:#36527a;mix-blend-mode:multiply;}.cls-6{opacity:0.12;}.cls-7{opacity:0.09;}.cls-8{clip-path:url(#clip-path);}.cls-9{fill:#9ff2f4;}.cls-10{fill:#83eff2;opacity:0.52;}</style><linearGradient id="linear-gradient" x1="675.01" y1="541.57" x2="605.76" y2="472.33" gradientTransform="translate(194.48 911.29) rotate(-135)" gradientUnits="userSpaceOnUse"><stop offset="0" stop-color="#88eff1"/><stop offset="0.2" stop-color="#3fe5e9"/><stop offset="1" stop-color="#36527a"/></linearGradient><linearGradient id="linear-gradient-2" x1="100.13" y1="39.04" x2="100.13" y2="160.96" gradientTransform="matrix(1, 0, 0, 1, 0, 0)" xlink:href="#linear-gradient"/><clipPath id="clip-path"><path class="cls-1" d="M149,102.05a49.15,49.15,0,0,1-2.61,13.9L56.1,82,56,78.83a48.29,48.29,0,0,1,4.54-7.6L15.22,58.14l-8.14,22L183.64,146.7l9.28-23.46Z"/></clipPath></defs><title>planet_blue</title><g class="cls-2"><g id="Layer_1" data-name="Layer 1"><circle class="cls-3" cx="100.13" cy="100" r="48.96"/><g class="cls-4"><path class="cls-5" d="M100.13,51A49,49,0,1,1,65.51,65.38,48.81,48.81,0,0,1,100.13,51m0-12a61,61,0,1,0,43.11,17.85A60.6,60.6,0,0,0,100.13,39Z"/></g><path class="cls-6" d="M149.1,100a48.73,48.73,0,0,1-2.79,16.32,27.34,27.34,0,0,1-9.91-4.84c-11.17-8.3-13-16.82-22-19.92C105.82,88.62,98,90,85.8,90.8c-13.53.89-25.68-9.7-26.19-18.29A49.06,49.06,0,0,1,70.52,61C68.62,76,99.27,82,112.38,71.82c6.78-5.29,13-8.39,18.56-9.87a47.12,47.12,0,0,1,5.1,4.78c-3.86.64-7.25,2.53-9,6.74-4.35,10.26,5.94,21.45,21.91,22.2C149,97.1,149.1,98.54,149.1,100Z"/><path class="cls-7" d="M135.5,133.85a48.9,48.9,0,0,1-12.56,9.49h0c-8,1.09-17.31-1.1-28.79-7.25-8.6-4.61-25.38-7.76-24.8,2A49.13,49.13,0,0,1,58.64,126a22.62,22.62,0,0,1,13.84-4.92c6.75-.06,7.11-3.69-.86-5.5a26.87,26.87,0,0,0-17.23,1.91,48.4,48.4,0,0,1-3.11-14.18c9.94-2.13,22.22,1.74,32.5,10.59C99.73,127.64,115,142.09,135.5,133.85Z"/><g class="cls-8"><path class="cls-9" d="M104.56,87.83c-48.2-17.54-89.4-26.35-91.84-19.64s34.78,26.43,83,44,89.4,26.36,91.84,19.66S152.75,105.38,104.56,87.83Zm57.79,34.82c-1.74,4.77-31.06-1.5-65.37-14S36.17,82.13,37.91,77.35s31.07,1.5,65.37,14S164.09,117.87,162.35,122.65Z"/><path class="cls-10" d="M103.73,90.11c-39.18-14.26-72.67-21.43-74.66-16s28.28,21.49,67.46,35.75,72.67,21.43,74.66,16-28.28-21.49-67.46-35.75m-7.58,20.82C52.82,95.17,19.36,77.43,21.55,71.4s39.23,1.89,82.56,17.66,76.79,33.51,74.6,39.54-39.24-1.9-82.56-17.67"/></g></g></g></svg>