<svg xmlns="http://www.w3.org/2000/svg" xmlns:xlink="http://www.w3.org/1999/xlink" viewBox="0 0 160.81 160.89"><defs><style>.cls-1{fill:none;}.cls-2{isolation:isolate;}.cls-3{fill:url(#linear-gradient);}.cls-13,.cls-21,.cls-25,.cls-4{opacity:0.2;}.cls-4{mix-blend-mode:color-dodge;}.cls-5{fill:url(#linear-gradient-2);}.cls-6{clip-path:url(#clip-path);}.cls-7{opacity:0.14;fill:url(#linear-gradient-3);}.cls-10,.cls-13,.cls-15,.cls-17,.cls-19,.cls-21,.cls-23,.cls-25,.cls-27,.cls-7,.cls-8,.cls-9{mix-blend-mode:multiply;}.cls-8{opacity:0.12;fill:url(#linear-gradient-4);}.cls-9{opacity:0.06;fill:url(#linear-gradient-5);}.cls-10{opacity:0.07;fill:url(#linear-gradient-6);}.cls-11{opacity:0.2;mix-blend-mode:overlay;}.cls-12{fill:url(#linear-gradient-7);}.cls-13{fill:url(#linear-gradient-8);}.cls-14{fill:url(#linear-gradient-9);}.cls-15,.cls-27{opacity:0.3;}.cls-15{fill:url(#linear-gradient-10);}.cls-16{fill:url(#linear-gradient-11);}.cls-17,.cls-23{opacity:0.25;}.cls-17{fill:url(#linear-gradient-12);}.cls-18{fill:url(#linear-gradient-13);}.cls-19{opacity:0.15;fill:url(#linear-gradient-14);}.cls-20{fill:url(#linear-gradient-15);}.cls-21{fill:url(#linear-gradient-16);}.cls-22{fill:url(#linear-gradient-17);}.cls-23{fill:url(#linear-gradient-18);}.cls-24{fill:url(#linear-gradient-19);}.cls-25{fill:url(#linear-gradient-20);}.cls-26{fill:url(#linear-gradient-21);}.cls-27{fill:url(#linear-gradient-22);}</style><linearGradient id="linear-gradient" x1="557.02" y1="490.81" x2="692.74" y2="490.81" gradientTransform="translate(175.21 869.36) rotate(-135)" gradientUnits="userSpaceOnUse"><stop offset="0" stop-color="#25613e"/><stop offset="0.8" stop-color="#3fe5e9"/><stop offset="1" stop-color="#88eff1"/></linearGradient><linearGradient id="linear-gradient-2" x1="139.75" y1="142.36" x2="25.99" y2="28.6" gradientTransform="matrix(1, 0, 0, 1, 0, 0)" xlink:href="#linear-gradient"/><clipPath id="clip-path" transform="translate(-2.46 -5.04)"><path class="cls-1" d="M0,0V170.07H167.9V0ZM116.8,52.92c7.21,3.25,11.89,8.87,12.3,16.42.67,12.51-12.06,17.27-22.17,8.91-7.63-6.32-8.24-16.39-5.69-21.15C103.91,52.11,111.8,50.66,116.8,52.92Zm-30-24.81c.86-5.52,10.43-4.78,14.88-2.35,3.59,2,6.69,6.7,2.17,9.22C98.61,37.9,85.71,35,86.79,28.11ZM64.49,52.48c-.67-5,3.55-8.23,8.08-7.7a5.89,5.89,0,0,1,4,9.61C72.92,59.1,65.27,58.24,64.49,52.48ZM78.9,89.08c-2.12,2.12-8.07,4.34-13.92.1s-5.4-13.69,1.82-16.73c3.83-1.62,9.37.29,11.69,3.32C82.43,80.92,81.45,86.54,78.9,89.08Zm-47-26.64c-2.24-1.77-3.42-6.61-1-11.17,2.9-5.52,9.8-8.66,13.45-5.93,4.53,3.4,3.65,8.67-.68,14.14C40,64,34.07,64.15,31.91,62.44Zm11.67,60.1a19.66,19.66,0,0,1-10.8-16.79c-.35-6.68,3.81-11.57,10.48-11.86,7.85-.35,15,8.21,16.17,16.23C61.39,123.29,50.47,126.06,43.58,122.54Zm66.57,10.83c-3,6.8-15.43,9.25-22,3.36-4.08-3.7-4.8-9.62.22-14.06,3.57-3.15,8.54-4.23,15-2.16C109.17,122.35,112.44,128.14,110.15,133.37Zm25.37-22.15c-6.59,4.61-11.73-.52-11-6.4.62-4.9,2.88-8.08,7-11.15,3.53-2.63,10-1.16,9.45,6.21C140.65,104.75,139.42,108.49,135.52,111.22Z"/></clipPath><linearGradient id="linear-gradient-3" x1="148.68" y1="102.15" x2="63.9" y2="17.38" gradientTransform="matrix(1, 0, 0, 1, 0, 0)" xlink:href="#linear-gradient"/><linearGradient id="linear-gradient-4" x1="108.55" y1="155.62" x2="14.05" y2="61.11" gradientTransform="matrix(1, 0, 0, 1, 0, 0)" xlink:href="#linear-gradient"/><linearGradient id="linear-gradient-5" x1="141.92" y1="72.2" x2="81.66" y2="11.94" gradientTransform="matrix(1, 0, 0, 1, 0, 0)" xlink:href="#linear-gradient"/><linearGradient id="linear-gradient-6" x1="129.88" y1="134.02" x2="34.12" y2="38.26" gradientTransform="matrix(1, 0, 0, 1, 0, 0)" xlink:href="#linear-gradient"/><linearGradient id="linear-gradient-7" x1="127.62" y1="99.88" x2="138.06" y2="105.91" gradientUnits="userSpaceOnUse"><stop offset="0"/><stop offset="0.21" stop-color="#313131"/><stop offset="0.68" stop-color="#ababab"/><stop offset="1" stop-color="#fff"/></linearGradient><linearGradient id="linear-gradient-8" x1="739.05" y1="458.87" x2="739.05" y2="445.77" gradientTransform="translate(871.89 482.13) rotate(180) scale(1 0.84)" gradientUnits="userSpaceOnUse"><stop offset="0" stop-color="#36527a"/><stop offset="0.38" stop-color="#8798af"/><stop offset="0.81" stop-color="#dde2e8"/><stop offset="1" stop-color="#fff"/></linearGradient><linearGradient id="linear-gradient-9" x1="33.54" y1="50.24" x2="42.93" y2="57.79" xlink:href="#linear-gradient-7"/><linearGradient id="linear-gradient-10" x1="790.3" y1="541.1" x2="790.3" y2="528.01" gradientTransform="translate(828.54 502.2) rotate(180) scale(1 0.84)" xlink:href="#linear-gradient-8"/><linearGradient id="linear-gradient-11" x1="106.09" y1="74.28" x2="122.94" y2="59.41" xlink:href="#linear-gradient-7"/><linearGradient id="linear-gradient-12" x1="249.81" y1="448.94" x2="249.81" y2="427.74" gradientTransform="matrix(0, 1, -0.97, 0, 540.45, -182.97)" xlink:href="#linear-gradient-8"/><linearGradient id="linear-gradient-13" x1="94.8" y1="34.5" x2="96.83" y2="25.79" xlink:href="#linear-gradient-7"/><linearGradient id="linear-gradient-14" x1="90.07" y1="270.21" x2="90.07" y2="259.13" gradientTransform="matrix(0, 1.05, -0.73, 0, 288.74, -64.39)" xlink:href="#linear-gradient-8"/><linearGradient id="linear-gradient-15" x1="97.41" y1="121.58" x2="98.51" y2="138.29" xlink:href="#linear-gradient-7"/><linearGradient id="linear-gradient-16" x1="818.07" y1="69.15" x2="818.07" y2="57.93" gradientTransform="translate(1308.77 216.69) rotate(180) scale(1.48 1.37)" xlink:href="#linear-gradient-8"/><linearGradient id="linear-gradient-17" x1="69.72" y1="46.77" x2="72.84" y2="54.97" xlink:href="#linear-gradient-7"/><linearGradient id="linear-gradient-18" x1="808.4" y1="188.59" x2="808.4" y2="183.83" gradientTransform="translate(1338.12 366.65) rotate(180) scale(1.57 1.7)" xlink:href="#linear-gradient-8"/><linearGradient id="linear-gradient-19" x1="74.16" y1="75.12" x2="68.28" y2="89.19" xlink:href="#linear-gradient-7"/><linearGradient id="linear-gradient-20" x1="878.32" y1="-15.93" x2="878.32" y2="-29.03" gradientTransform="matrix(0, -0.99, 1.07, 0, 95.32, 948.64)" xlink:href="#linear-gradient-8"/><linearGradient id="linear-gradient-21" x1="52.71" y1="103.69" x2="38.95" y2="116.59" xlink:href="#linear-gradient-7"/><linearGradient id="linear-gradient-22" x1="756" y1="-93.43" x2="756" y2="-108.06" gradientTransform="matrix(0, -1.31, 1.18, 0, 164.51, 1100.42)" xlink:href="#linear-gradient-8"/></defs><title>planet cyan</title><g class="cls-2"><g id="Layer_2" data-name="Layer 2"><g id="Layer_1-2" data-name="Layer 1"><circle class="cls-3" cx="80.41" cy="80.44" r="67.86"/><g class="cls-4"><path class="cls-5" d="M82.87,17.62a67.86,67.86,0,1,1-48,19.88,67.66,67.66,0,0,1,48-19.88M82.87,5A80.44,80.44,0,0,0,26,142.36,80.44,80.44,0,0,0,139.75,28.6,79.89,79.89,0,0,0,82.87,5Z" transform="translate(-2.46 -5.04)"/></g><g class="cls-6"><path class="cls-7" d="M149.79,74.24c-13.6-.29-32.82.47-53.72-15.12C73.7,42.43,70,26.43,68,19.27a65.32,65.32,0,0,0-8.46,2.47C61.26,32,66.47,45.81,81.39,63.37c22,25.83,52.08,37.42,67.26,38.81A67.88,67.88,0,0,0,149.79,74.24Z" transform="translate(-2.46 -5.04)"/><path class="cls-8" d="M45.11,106.51C32.28,91.1,39.69,69.8,24.77,50.39A67.06,67.06,0,0,0,18.62,63.6c7.13,13.46,2.9,35,15.64,54.93,15.69,24.59,42.34,30.54,64.35,33A67.38,67.38,0,0,0,128.13,136C116.27,120.15,74.56,141.9,45.11,106.51Z" transform="translate(-2.46 -5.04)"/><path class="cls-9" d="M137.35,45c-12.92.36-27.7-2.79-41.65-16.74a55.65,55.65,0,0,1-7-10.39A66.33,66.33,0,0,0,75.58,18c1.67,8.88,6.24,16.79,13,23.48,16.88,16.65,44.89,25.78,59.34,24.68A67.34,67.34,0,0,0,137.35,45Z" transform="translate(-2.46 -5.04)"/><path class="cls-10" d="M144.41,114.11C128.4,96.26,100.52,113,73,80.35,55.49,59.54,59,41.91,48.07,27.21A67.67,67.67,0,0,0,34.88,37.5c-.59.59-1.17,1.2-1.74,1.81C46.43,53.49,46.48,74.55,58,94.17c12.37,21.15,32.05,24.42,52.59,26,13.15,1,20.52,3.22,24.56,8.65A67.32,67.32,0,0,0,144.41,114.11Z" transform="translate(-2.46 -5.04)"/></g><g class="cls-11"><path class="cls-12" d="M135,95.21a3.94,3.94,0,0,1,2,.51c2.63,1.52,2.9,6,.62,9.92-1.77,3.06-4.55,4.94-6.93,4.94a4,4,0,0,1-2-.51c-2.63-1.52-2.9-6-.61-9.92,1.76-3.06,4.54-4.94,6.92-4.94m0-.54h0c-2.66,0-5.56,2-7.39,5.21-2.43,4.21-2.07,9,.81,10.65a4.38,4.38,0,0,0,2.24.59c2.66,0,5.57-2.05,7.39-5.21a11.26,11.26,0,0,0,1.61-6.18,5.27,5.27,0,0,0-2.42-4.47,4.38,4.38,0,0,0-2.24-.59Z" transform="translate(-2.46 -5.04)"/></g><ellipse class="cls-13" cx="132.84" cy="102.9" rx="8.28" ry="5.49" transform="translate(-25.15 161.45) rotate(-60)"/><g class="cls-11"><path class="cls-14" d="M40.81,46.7a4.13,4.13,0,0,1,2.62.86c2.36,1.9,2,6.33-.92,9.9-2,2.47-4.63,3.87-6.85,3.87A4.13,4.13,0,0,1,33,60.47c-2.36-1.9-1.95-6.33.92-9.9,2-2.46,4.63-3.87,6.85-3.87m0-.54h0c-2.46,0-5.25,1.56-7.27,4.08-3.05,3.79-3.42,8.57-.83,10.65a4.64,4.64,0,0,0,2.95,1c2.46,0,5.25-1.56,7.27-4.08,3-3.79,3.43-8.56.84-10.65a4.67,4.67,0,0,0-3-1Z" transform="translate(-2.46 -5.04)"/></g><ellipse class="cls-15" cx="38.24" cy="54.02" rx="8.28" ry="5.49" transform="translate(-30.28 44.92) rotate(-51.19)"/><g class="cls-11"><path class="cls-16" d="M111.5,54.7A14.85,14.85,0,0,1,122.24,60c4.9,5.55,5.42,13.1,1.15,16.87A8.65,8.65,0,0,1,117.54,79a14.8,14.8,0,0,1-10.74-5.33c-4.91-5.55-5.42-13.1-1.16-16.87a8.74,8.74,0,0,1,5.86-2.09m0-.94A9.64,9.64,0,0,0,105,56.09a10.14,10.14,0,0,0-3.17,8.53,16.55,16.55,0,0,0,4.24,9.66,15.8,15.8,0,0,0,11.45,5.65A9.55,9.55,0,0,0,124,77.6a10.12,10.12,0,0,0,3.18-8.53,16.5,16.5,0,0,0-4.25-9.66,15.8,15.8,0,0,0-11.44-5.65Z" transform="translate(-2.46 -5.04)"/></g><ellipse class="cls-17" cx="114.52" cy="66.85" rx="10.3" ry="13.41" transform="translate(-18.04 87.48) rotate(-41.43)"/><g class="cls-11"><path class="cls-18" d="M93.87,25.88a12.69,12.69,0,0,1,2.86.33c4,.92,6.76,3.43,6.25,5.6-.38,1.63-2.51,2.61-5.22,2.61a12.73,12.73,0,0,1-2.86-.34c-4-.92-6.75-3.42-6.25-5.6.38-1.63,2.51-2.6,5.22-2.6m0-.44h0c-3,0-5.23,1.16-5.64,2.95-.57,2.44,2.32,5.13,6.57,6.11a12.71,12.71,0,0,0,3,.35c3,0,5.23-1.15,5.64-2.94.57-2.44-2.32-5.13-6.57-6.12a13.28,13.28,0,0,0-3-.35Z" transform="translate(-2.46 -5.04)"/></g><ellipse class="cls-19" cx="95.82" cy="30.15" rx="4.04" ry="7.36" transform="translate(42.32 111.62) rotate(-76.93)"/><g class="cls-11"><path class="cls-20" d="M98.42,122.27c5.36,0,9.75,3,10,7,.28,4.22-4.19,7.95-10,8.33-.33,0-.65,0-1,0-5.36,0-9.76-3-10-7-.28-4.22,4.18-7.95,10-8.33q.48,0,1,0m0-.72h0c-.34,0-.67,0-1,0-6.17.41-10.94,4.49-10.63,9.09.28,4.36,4.9,7.65,10.73,7.65.33,0,.67,0,1,0,6.17-.41,10.94-4.49,10.64-9.09-.29-4.36-4.9-7.65-10.73-7.65Z" transform="translate(-2.46 -5.04)"/></g><ellipse class="cls-21" cx="97.96" cy="129.94" rx="10.5" ry="7.66" transform="translate(-10.81 1.7) rotate(-3.78)"/><g class="cls-11"><path class="cls-22" d="M71.76,46.73a4.06,4.06,0,0,1,3.93,2.46c.8,2.08-.53,4.52-3,5.45A5.26,5.26,0,0,1,70.8,55a4.05,4.05,0,0,1-3.93-2.45c-.8-2.09.54-4.53,3-5.46a5.48,5.48,0,0,1,1.92-.36m0-.34h0a5.55,5.55,0,0,0-2,.38,5.46,5.46,0,0,0-2.88,2.45,4.09,4.09,0,0,0-.3,3.45,4.41,4.41,0,0,0,4.26,2.68,5.76,5.76,0,0,0,2-.38,5.46,5.46,0,0,0,2.88-2.45,4.11,4.11,0,0,0,.3-3.46,4.42,4.42,0,0,0-4.26-2.67Z" transform="translate(-2.46 -5.04)"/></g><ellipse class="cls-23" cx="71.28" cy="50.87" rx="4.72" ry="4.04" transform="translate(-15.9 23.66) rotate(-20.84)"/><g class="cls-11"><path class="cls-24" d="M70.36,75a9.2,9.2,0,0,1,3.57.73c4.16,1.74,6.32,6,4.83,9.63a7,7,0,0,1-6.69,4,9.32,9.32,0,0,1-3.56-.72c-4.16-1.74-6.33-6-4.83-9.63A7,7,0,0,1,70.36,75m0-.6a7.65,7.65,0,0,0-7.24,4.42c-1.62,3.88.69,8.56,5.16,10.42a9.67,9.67,0,0,0,3.79.78,7.68,7.68,0,0,0,7.25-4.43,7.1,7.1,0,0,0-.32-6,9.39,9.39,0,0,0-4.84-4.41,9.89,9.89,0,0,0-3.8-.77Z" transform="translate(-2.46 -5.04)"/></g><ellipse class="cls-25" cx="71.22" cy="82.16" rx="7.02" ry="8.17" transform="translate(-34.51 111.16) rotate(-67.32)"/><g class="cls-11"><path class="cls-26" d="M42.41,99.52a13.92,13.92,0,0,1,9.7,4.73c4.58,4.88,5.48,11.48,2,14.73a7,7,0,0,1-4.87,1.79A13.92,13.92,0,0,1,39.54,116c-4.58-4.88-5.47-11.48-2-14.74a7,7,0,0,1,4.87-1.78m0-.82h0a7.78,7.78,0,0,0-5.43,2,8.36,8.36,0,0,0-2.27,7.46A15.72,15.72,0,0,0,39,116.59c2.93,3.13,6.78,5,10.3,5a7.75,7.75,0,0,0,5.42-2,8.36,8.36,0,0,0,2.27-7.46,15.77,15.77,0,0,0-4.23-8.43c-2.93-3.12-6.78-5-10.3-5Z" transform="translate(-2.46 -5.04)"/></g><ellipse class="cls-27" cx="45.83" cy="110.14" rx="8.62" ry="12.12" transform="translate(-65.4 56.11) rotate(-43.16)"/></g></g></g></svg>