<?xml version="1.0" encoding="utf-8"?>
<!-- Generator: Adobe Illustrator 23.0.0, SVG Export Plug-In . SVG Version: 6.00 Build 0)  -->
<svg version="1.1" id="Layer_1" xmlns="http://www.w3.org/2000/svg" xmlns:xlink="http://www.w3.org/1999/xlink" x="0px" y="0px"
	 viewBox="0 0 1378.2 1377.2" style="enable-background:new 0 0 1378.2 1377.2;" xml:space="preserve">
<style type="text/css">
	.st0{fill:url(#SVGID_1_);}
	.st1{opacity:0.2;}
	.st2{fill:url(#SVGID_2_);}
	.st3{fill:url(#SVGID_3_);}
	.st4{fill:url(#SVGID_4_);}
	.st5{clip-path:url(#SVGID_6_);}
	.st6{fill:url(#SVGID_7_);}
	.st7{fill:url(#SVGID_8_);}
</style>
<title>easrth</title>
<g>
	<g>
		<g id="slide_5">
			
				<linearGradient id="SVGID_1_" gradientUnits="userSpaceOnUse" x1="172.1703" y1="882.5609" x2="1276.0616" y2="470.0804" gradientTransform="matrix(1 0 0 -1 0 1378)">
				<stop  offset="0" style="stop-color:#88EFF1"/>
				<stop  offset="0.2" style="stop-color:#3FE5E9"/>
				<stop  offset="0.32" style="stop-color:#3DD6E0"/>
				<stop  offset="0.55" style="stop-color:#37AFC7"/>
				<stop  offset="0.86" style="stop-color:#2E70A0"/>
				<stop  offset="1" style="stop-color:#29518C"/>
			</linearGradient>
			<path class="st0" d="M691.2,100h-2.1C363.8,100,100,363.5,100,688.6s263.8,588.6,589.1,588.6c0.7,0,1.4,0,2.1,0
				c324.4-1.1,587-264.2,587-588.6S1015.6,101.2,691.2,100z"/>
			<g class="st1">
				
					<linearGradient id="SVGID_2_" gradientUnits="userSpaceOnUse" x1="-0.2222" y1="689.4297" x2="1378.484" y2="689.4297" gradientTransform="matrix(1 0 0 -1 0 1378)">
					<stop  offset="0" style="stop-color:#88EFF1"/>
					<stop  offset="0.2" style="stop-color:#3FE5E9"/>
					<stop  offset="1" style="stop-color:#36527A"/>
				</linearGradient>
				<path class="st2" d="M689.1,100h2.1c324.4,1.2,587,264.2,587,588.6s-262.6,587.4-587,588.6c-0.7,0-1.4,0-2.1,0
					c-325.4,0-589.1-263.5-589.1-588.5S363.8,100,689.1,100 M689.1,0C551.8-0.2,417.6,40.8,303.8,117.6
					C193,192.3,106.4,297.5,54.2,420.5c-90.8,214.4-66.9,460.3,63.6,653.2c74.8,110.7,180.1,197.3,303.1,249.3
					c84.9,35.9,176.1,54.3,268.2,54.1c0.8,0,2,0,3.5,0c136.6-0.5,270-41.7,383.1-118.4c110.3-74.7,196.7-179.8,248.6-302.6
					c90.5-214,66.7-459.3-63.3-651.9C1133.5,114.6,920.2,0.6,691.7,0l0,0H689.1L689.1,0z"/>
			</g>
			
				<linearGradient id="SVGID_3_" gradientUnits="userSpaceOnUse" x1="172.1703" y1="882.5609" x2="1276.0616" y2="470.0804" gradientTransform="matrix(1 0 0 -1 0 1378)">
				<stop  offset="0" style="stop-color:#88EFF1"/>
				<stop  offset="0.2" style="stop-color:#3FE5E9"/>
				<stop  offset="0.32" style="stop-color:#3DD6E0"/>
				<stop  offset="0.55" style="stop-color:#37AFC7"/>
				<stop  offset="0.86" style="stop-color:#2E70A0"/>
				<stop  offset="1" style="stop-color:#29518C"/>
			</linearGradient>
			<path class="st3" d="M691.2,100h-2.1C363.8,100,100,363.5,100,688.6s263.8,588.6,589.1,588.6c0.7,0,1.4,0,2.1,0
				c324.4-1.1,587-264.2,587-588.6S1015.6,101.2,691.2,100z"/>
			<g class="st1">
				
					<linearGradient id="SVGID_4_" gradientUnits="userSpaceOnUse" x1="244.4295" y1="244.7161" x2="1133.7864" y2="1134.083" gradientTransform="matrix(1 0 0 -1 0 1378)">
					<stop  offset="0" style="stop-color:#88EFF1"/>
					<stop  offset="0.2" style="stop-color:#3FE5E9"/>
					<stop  offset="1" style="stop-color:#36527A"/>
				</linearGradient>
				<path class="st4" d="M689.1,100h2.1c324.4,1.2,587,264.2,587,588.6s-262.6,587.4-587,588.6c-0.7,0-1.4,0-2.1,0
					c-325.4,0-589.1-263.5-589.1-588.5S363.8,100,689.1,100 M689.1,60c-125.4-0.2-247.9,37.2-351.8,107.4
					c-101.1,68.2-180.3,164.2-227.9,276.5c-82.9,195.7-61.1,420.1,58,596.2c68.3,101.1,164.4,180.1,276.8,227.7
					c77.5,32.8,160.8,49.6,244.9,49.4c0.8,0,1.7,0,2.7,0c124.9-0.3,246.8-38,350.2-108.1c100.7-68.2,179.6-164.2,227-276.3
					c82.5-195.4,60.8-419.2-57.8-595c-68-100.9-163.8-180-275.7-227.7C858.3,77.2,775.3,60.2,691.4,60h-0.6H689.1z"/>
			</g>
			<g>
				<defs>
					<path id="SVGID_5_" d="M691.2,100h-2.1C363.8,100,100,363.5,100,688.6s263.8,588.6,589.1,588.6c0.7,0,1.4,0,2.1,0
						c324.4-1.1,587-264.2,587-588.6S1015.6,101.2,691.2,100z"/>
				</defs>
				<clipPath id="SVGID_6_">
					<use xlink:href="#SVGID_5_"  style="overflow:visible;"/>
				</clipPath>
				<g class="st5">
					
						<linearGradient id="SVGID_7_" gradientUnits="userSpaceOnUse" x1="282.0334" y1="928.5773" x2="1284.2633" y2="405.0974" gradientTransform="matrix(1 0 0 -1 0 1378)">
						<stop  offset="0" style="stop-color:#80D73A"/>
						<stop  offset="0.2" style="stop-color:#8AD34F"/>
						<stop  offset="1" style="stop-color:#677119"/>
					</linearGradient>
					<path class="st6" d="M986.5,338.4c-0.2-3.3-1.9-6.4-4.6-8.3c-17.2-12.6-18.8-9.8-18.9-21.1c0-0.8,0.2-1.5,0.6-2.1
						c4.6-6.8,9.4-11.1,19.1-10.2c7.7,0.7,2.3-2.6,5.9,3.3c2.5,4.1,1.9,11.5,3.3,16.1c4.7,14.5,13.3,24.6,26.2,30.8
						c1.7,0.8,2.5,2.9,1.6,4.7c-0.1,0.2-0.3,0.5-0.4,0.7c-5.6,7-8.2,10.4-18.7,11.4c-6.4,0.6-12.5,1-18.8,1.1
						c-6,0.1-11-4.6-11.1-10.7c0-0.2,0-0.4,0-0.6c0.1-3.9,0.6-7.5,1.8-8.9C977.4,339,986.7,345.8,986.5,338.4z M950.9,323.9
						c-11,2.6-13.5,10.4-19.2,19.9c-0.3,0.5-0.5,1.2-0.5,1.8c-0.1,4.4-1.1,9.5,1.8,11.3c2.3,1.4,10.3,0.3,12.8-0.6
						c6.4-2.2,21-12.8,23.5-18.7C975.2,323.8,960.4,321.7,950.9,323.9z M1255.1,524.7c-2.2,1.2-4.9,0.5-7.7,0.7
						c-10.7,0.9-29.7,3.3-40,0s-17.4-16.8-27.7-20.5c-4.4-1.5-27.3-1.1-30.9,2c-6.5,5.5,8.1,24.1-10,18.5c-3.9-1.2-6.8-5.8-10.6-7.4
						c-4.9-2.2-11.1-2.8-16.3-4.1c-7.1-1.8-31.4-3.7-35.7-9c-3-3.7-1.5-17-0.6-26.3c0.4-3.5-2.2-6.7-5.7-7c-0.3,0-0.6,0-1,0
						c-19.6,0.8-42.3-0.4-60.1,5.4c-10.7,3.5-16.1,10.4-27.7,10.4c-8.6,0-22.7-2.9-31-1.2c-6.9,1.4-25.3,11.2-29.8,16.5
						c-5.7,6.7-0.1,20.9-1.9,29.7c-1.5,7.5-5.4,8.6-12.3,13.5l-36,26c-5.2,3.8-15.5,8.5-16.3,14.3c-0.3,2.3,2.8,15.8,4.7,17.4
						c2.1,1.8,10.3,0.6,13.3,0.6c-0.8,4.5-0.6,16-3.5,19.1c-6.6,7.2-7.9-3-11.7,17.5c-0.8,4.2,0.2,8.5,1.8,12.5s-2,16.3,0.2,22.8
						c3,8.6,15.5,18.4,21.5,25.2c9.8,11.2,20.3,28.6,32.6,37.1c5.9,4.1,19.3,4.5,26.7,2.5c1-0.3,1.4-3.3,3.5-3.9c2.4-0.7,6.5,0,9,0
						h23.6c5.1,0,7.5,0.3,11.5-1.8c4.5-2.4,7.1-8.3,11.9-9.9c12.4-4.1,23.5-0.2,31.8,8c9.6,9.4,22.1,6.8,35.2,8.8
						c5.4,0.8,6-0.4,7.5,3.1c1.7,3.9-1.5,15.2-1.9,19.3c-0.9,8.9-4.1,20.7-2,29.3c2.8,11.6,14.1,24.9,20,35.2
						c5.2,9.2,18.2,24.1,19.7,34.7c1.1,7.7-8.5,19.8-12.2,27c-6,11.4-11.2,18.8-7.4,32.2c2.7,9.3,14.5,13.4,17.5,22.1
						c4.4,12.9-3.2,30,0,43.3c2.4,10.2,12.9,18.6,18.6,27.7c6,9.6,3.9,19.7,3.9,31.3c0,4.4-1.3,11.3,1.6,13.2l0.1,0.1
						c3.7,2.3,5.8,6.4,5.5,10.8C1265.7,920.6,1310.1,715.2,1255.1,524.7L1255.1,524.7z M786.4,824.8c-6.6-2.1-9.4-2.5-13.6-7.1
						c-4.6-5-7.2-18.1-13-21.4c-2.9-1.6-10.3-0.3-13.6-0.3c-13.3-0.1-28.5,1.8-41.4-1.5c-7.7-1.9-34.4-9.2-38.3-14.6
						c-2.9-4.1-0.9-17.3-1.5-22.2c-0.6-5.9-1-7.4-3.6-12.6c-2.1-4.3-6.7-16.1-10.6-18.6s-15.7-0.2-20.2-0.3
						c-3.9-0.1-13.8,1.6-17.2-0.5c-5-3.2-9.2-14.5-12.4-19.4c-4.4-6.9-7.8-11-12.1-14.3c-5.5-4.3-13-3.5-18.6,0.8
						c-0.3,0.2-0.5,0.4-0.8,0.6c-4.3,2.5-16.6,1-21.4,1.2c-3.1,0.2-8.7,1.5-11.4,0.2c-4.9-2.6-6.7-11.9-11-15.4
						c-6.5-5.2-18.9-5.4-27.3-7.1c-10.8-2.2-10.1-2.5-17.2,5.8c-5.5,6.3-14.9,22.9-22.5,26.1c-5.4,2.2-18.2-2.5-24-3.4
						c-5.3-0.9-20.7-1-23.6-5c-4.2-5.6-1.7-26.6-2.1-33.6c-0.5-7.8,1.1-15.3-4.4-18.9c-6.9-4.5-22.9-3.9-31.2-5.3
						c3.7-7,9.1-14.3,11.6-21.9l0.1-0.2c1.6-4.9-1-10.2-5.9-11.8c-2.7-0.9-5.7-0.5-8.1,1.1l-19.5,13c-11.5,7.7-12.3,9-25.9,7.4
						c-4.1-0.5-12.9,0-16.1-2.4s-8.3-15.8-9-19.7c-1.4-7.7,3-18.8,6.1-26.2c3.5-8.4,9.4-22.2,16.1-28.1c7.3-6.3,25.3-15.5,34.7-17.6
						c10-2.3,23,0,33.1,0h22.7c7.2,0,13,5.8,13,13c-0.1,3.5,0.3,6.7,1.6,8.7c0.4,0.6,0.9,1.1,1.5,1.5c8.5,7,21.3-0.2,20.7-11.2
						c-0.2-3.4-0.2-6.9,0.1-10.3c0.9-8.7,7.1-13.1,14-19.4c11.1-10.3,33.5-16.9,40.4-29.3c4.8-8.6,0.6-13.5,7.9-21
						c8.8-9.2,17.3-18.9,26.5-27.6c11.8-11.1,28.4-17.7,42.6-25.6c-1.2-0.9-2.3-1.9-3.4-2.8c8.8-8.3,29.4-37.3,40-16.5
						c3.7-4,7.2-10,12.3-12.1c-4.4-0.6-17.8-1.1-21-4.9c-3.7-4.4-0.7-12.9,4.6-15.3c4.2-2,15.4-1.1,19.2,2.2
						c7.3,6.4,0.5,9.5,11.3,9.4c2.3,0,11.6-0.9,15.2-2.4c2.1-0.9,3.6-0.2,5-1.7s0.5-6.9,2.3-7.9c6.4-3.7,12.9,5.5,10.3,11.2
						c-1.5,3.4-8.1,4.4-9.5,7.6c-6.2,13.5,18.7,15.8,26.1,18.1c3.2,1,11.7,5,15.1,2.3c1.4-1.1,2-12.6,0.8-14.4
						c-3.4-5.3-31.1-7.4-27-18c1.2-3.1,12.3-4.1,15.8-6c7-3.8,5.7-3.1,6.1-12.2c0.4-9.7,1.3-9.8-7-14.8c-3.7-2.2-12.1-5.4-14.3-8.7
						c-3.1-4.8-2.9-14.6-2.6-23.4c0.1-3.9-2.9-7.1-6.7-7.2c-1.2,0-2.4,0.2-3.4,0.7c-6.5,3.4-12.8,6.5-19.7,8.3
						c-4.3,1.1-8.7-1.4-9.8-5.7c-0.3-1.2-0.4-2.4-0.1-3.6c1.3-6.5,2.4-13.6,0.8-15.7c-2.9-3.9-22.3-5.3-27.3-6.4
						c-10.4-2.4-12.5-4.5-20.9,1.1c-9.3,6.2-11.3,7.1-11.3,17.5c0,5.7,3.5,26.4,0,30.9c-3.9,5-19.9,5.5-25.7,8.3
						c-8.5,4.1-9.5,10.1-13.9,19.2c-1,2.3-2.2,4.4-3.8,6.3c-4.8,5.6-14,1.7-13.6-5.6c0.3-6,0.6-12.1-0.4-17.5
						c-1.7-8.9-4.5-6.5-14.7-7.9c-18-2.5-30.7-7.3-33.6-27.1c-1.3-8.6-0.5-6.8,7.6-11.6l27.9-16.3c11.2-6.5,21.3-10.5,33-14.3
						c3.6-1.2,7.4,0.8,8.6,4.4c0.1,0.4,0.2,0.8,0.3,1.2c0.5,4,1.3,7.9,3.6,9.1c0.7,0.3,10.8,0.1,11.7-0.6c1.7-1.6,0.1-6.4,1.8-8
						c3.5-3.4,15.7,1.1,15.3-5.9c-0.1-0.8-5.9-2.1-6.5-3.1c-0.1-0.2-0.3-0.5-0.4-0.8c-1.4-4,1.7-8.1,5.9-8.4
						c6.7-0.4,11.4-1.2,17.1-6.9c4.4-4.4,7.1-8.3,12.5-10.4c7.2-2.7,26.3-5.8,33.8-4.3c5,1,9.6,5.2,13.9,9.4c2.1,2,2.2,5.2,0.2,7.3
						c-0.4,0.4-0.9,0.8-1.4,1l-31.6,16.7c-1.4,0.8-1.9,2.7-1.1,4.1c0.4,0.7,1,1.2,1.8,1.4l25.7,6.1c7.1,1.7,19.7,7.1,24.6,3.6
						c4.1-2.9,2.4-13.5,6.4-16.6c1.7-1.3,7.8-0.5,10.3-0.5c9.5,0,13.3-0.4,16.2-3.5c4.8-5.1,2.3-13.4-4.3-15.9
						c-2.6-0.8-4.7-2.6-5.8-5.1c-4.8-11.2,5.3-14.8-7-20.8c-14.3-7-31.3-17.3-46.7-20.7c-11.1-2.4-31,0.8-41.8,4.6
						c-5.7,2-17.3,7.2-19.6,12c-1.7,3.8-0.6,11.3,0.3,17.7c0.5,3.4-1.8,6.6-5.2,7.2c-0.5,0.1-1,0.1-1.5,0.1
						c-9.1-0.7-17.6-1.6-17.3-13.4c0.2-7,6.2-12.4,12.5-17.4c1.8-1.5,2.1-4.1,0.6-5.9c-0.7-0.9-1.8-1.5-2.9-1.6
						c-8.9-0.8-18.1-1.8-26.7-1c-10.9,1-13.4,3.9-16.5,11.7c-0.9,2.2,0.2,4.6,2.3,5.5c0.3,0.1,0.6,0.2,0.9,0.2l3.3,0.6
						c3.4,0.6,5.7,3.8,5.2,7.2c0,0,0,0.1,0,0.1c-1.6,8.1-2.5,8.4-14.2,9.1c-2,0.1-10.7-0.6-12.5,0.7c-2.7,2-1.9,8.1-4.8,9.8
						c-3.7,2.1-28.7,3.1-32.3,0.9c-2.4-1.4-2-1.5-3.4-5.8c-0.1-0.4-0.2-3.9-0.5-7.4c-0.3-3.5,2.3-6.6,5.8-6.9c0.3,0,0.7,0,1,0
						c7.1,0.5,15.3,1,20-1c6.1-2.5,12.5-10.8,17.8-17c1.6-1.8,1.4-4.6-0.4-6.1c-0.2-0.2-0.5-0.4-0.8-0.5c-5-2.7-6.4-3.1-12.4,2.1
						c-5.6,4.8-7.4,8.5-14.2,9.6c-4.3,0.7-18.3,0.9-22.1-1.4c-6.1-3.7-7.8-14.7-13.7-18.9c-6.5-4.6-27.6-5.1-35.8-2
						c-9.6,3.6-19.5,13.2-28.3,20.8c-1,0.8-1.2,2.4-0.3,3.4c0.5,0.6,1.3,0.9,2.1,0.8c8-0.8,18.2-1.9,22.7,0.5
						c6.8,3.8,4.4,8.6,0.6,12.8c-1,1.1-0.9,2.7,0.1,3.7c0.5,0.5,1.2,0.7,1.9,0.7c7.4-0.1,15.1-0.5,22,0.8c7.4,1.4,8.1,2.3,10.1,7.4
						c0.8,2.1-0.2,4.4-2.3,5.2c-0.5,0.2-1,0.3-1.5,0.3c-9.5,0.1-20.3,1-28.8-1.3s-0.8-0.9-6.3-6.5c-3.8-3.9-2.6-3.9-10.1-5.5
						c-4.9-1.1-10.8-1.5-15.5-3.4c-4.6-1.7-8.5-6.2-13.2-7.3c-8.5-2.1-20.1,0.1-29.1,0.2l-3.3,0.8
						C257.9,274.2,191.2,357.1,149.1,453v4.9c0,0,0,0,0-0.1c0,0.3,0,0.6,0,1v0.1c-0.3,8.3-3.6,26.8,0.2,32.6
						c4.7,7.1,20.6,5.8,24.3,13.6c4.9,10.6-1.8,29.6,0,41.2c1.4,9.5,8.5,18,13.4,26.4c6.3,10.7,9.2,21.6,24.2,19.4
						c5.9-0.8,6,1,6.4-7.6c0.4-6.7,0.3-5.3-2.9-11.4c-5.2-9.8-15-18.7-18.7-29.2c-3.5-9.8-3-23-4.4-33.4c13.9,0,13-1,15.2,12.6
						c1.2,7.5,1.3,16.6,4.4,23.5c4.2,9.3,12.5,18.2,18.3,26.6c3,4.3,13.2,14.8,13.3,20c0.3,12.2-11.4,9.7-4,21.6
						c4.1,6.5,10,20.7,16.4,25.1c6,4.1,18.8,4.7,25.7,6.4l21.4,5.3c1.9,0.5,3.8-0.7,4.2-2.6c0.1-0.3,0.1-0.5,0.1-0.8
						c0-1.9,1.5-3.5,3.5-3.5c0.1,0,0.2,0,0.3,0c6.8,0.5,14.8,0.6,16.4,5.4c1.1,3.3-2.9,9.4-0.9,11.9c1.6,2,11.3,2,13.9,2.5
						c7.6,1.7,18,2.8,24.8,6.6c5.2,2.9,9,8.6,13,13.2c6.6,7.5,14.2,20.4,22.6,25.8c4.6,2.9,10.3,2.4,16.2,2.8
						c6.2,0.5,25.3-1.5,30.1,2.3c3.2,2.5,2.5,18.9,3,23.2c1.1,9.4,3,10.8-2.7,16.6c-6.4,6.5-18.6,9.4-24,16.8
						c-6.5,8.8-2.6,25.3-4.5,36.7c-1,6.3-4.7,13.6-2.9,19.4c2,6.1,11.1,13.9,15,18.8c8.8,11,22.8,23.5,28.6,36.3
						c4.2,9.4-0.6,15.1,8.5,19.8c5.9,3.1,12.4,3,18.4,6.4c9.4,5.4,27.9,16,30.7,26.1c2,7.3,0,18.3,0,25.8v31.3
						c0,7.8-4.3,35.2,0.9,40.7c7.8,8.3,11.5-2.8,9.9,11.1c-1.1,9.8-3.5,19.7-5.3,29.4c-1.5,8.6-1.8,8.8,3.1,15.6
						c4.3,5.9,13.7,13.9,15.6,20.8c3.8,13.8-6.1,31.1-3.5,45.3c2.5,13.7,16.1,29.9,23.2,42s19.2,20.3,29.8,29.5
						c6.1,5.4,7.2,7,14.5,8c5.5,0.8,23.3,3.3,28.1,0.5c17-9.9-13.4-23.8-18.2-30.7c-2.3-3.3-2.3-8.5-1.3-14.1
						c1.9-11.2-3.7-22-13.1-28.4c-0.4-0.3-0.8-0.6-1.2-0.9c-10.2-8.5-3.1-9.6,3.4-17c3.7-4.2,9.7-10.8,5.3-15.7
						c-3.4-3.6-22.5-1.4-13.7-12.9c3-4,15.8-2.7,21.2-4.2c5.8-1.7,11.1-4.7,16.6-7.3c5.9-2.8,15.7-5.3,20.4-9.8
						c5.3-4.9,7.5-15,11.5-21.1c7.6-11.7,17.4-22.4,26-33.4c2.8-3.7,7.8-7.9,9.4-12c2.1-5.1-0.1-9.7-1.5-15.6
						c-3.5-15.2-8.9-25.9,3.5-38.6c4.9-5,4.9-4.1,13.1-3.9c6.4,0.2,16.1,2.4,22.2,0.7c7.2-2,21.2-13.7,23.9-20.4
						c5.6-13.9,3.7-35.7,5.2-50.6c1.5-14.3,1.8-17.8,10.6-29c8.9-11.3,18-19.6,19.4-34.4C797.3,825.8,796.8,828.2,786.4,824.8z
						 M599.5,410.2c-0.9,3.2,0.9,6.5,4.1,7.4s6.5-0.9,7.4-4.1c0.2-0.6,0.3-1.2,0.2-1.8c0.1-4.3-1-8.9-6.2-8.6
						C602,403.3,600.4,406.6,599.5,410.2z M1075.4,256.2c-4.2,4.7-10.4,6-16.6,8.4c-10.6,4.1-31.6,15-21.2,29.8
						c3,4.3,11.1,1.3,14.8,5c1.9,1.8,3.3,5.1,4.4,8.7c1.9,5.8,8.2,9,14,7.1c0.2-0.1,0.5-0.2,0.7-0.3l0.3-0.1
						c5.5-2.2,11.8,0.4,14.1,6c0.3,0.8,0.6,1.7,0.7,2.6l0.1,1c0.8,6.1-3.4,11.7-9.5,12.5c-1,0.1-2.1,0.1-3.1,0
						c-12-1.8-25-4.4-34.7,1.8c-6.6,4.2-12.3,17.6-16.9,23.9c-5.4,7.3-7.2,6.7-16.5,8.2c-8.7,1.4-15.6,0.1-19.2,7
						c-1.1,2.1-5.1,19.7-3.7,22c1.5,2.6,11.4,0.4,12.9,3c0.7,1.2-2.1,10.7-2.5,11.5c-2.1,4.2,0.3,3.6-2.8,5
						c-2.5,1.1-11.1-2.2-13.5-2.7c-6.7-1.4-12.3-2.9-18.9-2.2c-4.9,0.5-20.4,2-24,5.3c-9.2,8.4-5.6,35.3-1.5,44.5
						c6,13.5,27.8,11.2,40.4,10.9c5.8-0.2,15,1,19.8-1.5c5.2-2.7,5-9.7,8.2-15.2c4.5-8,11.7-15.3,17.3-22.5
						c2.3-3.1,7.5-13.3,11.4-14.8c5.7-2.2,14.4,4.8,20.4,2.6c3.3-1.2,6.7-4.4,9.9-7.8c2.4-2.6,6.5-2.8,9.1-0.4
						c0.6,0.5,1.1,1.2,1.4,1.9c2.5,5.4,5.9,7.5,14,13l25.5,17.2c3,2,3.8,6,1.8,9c-0.8,1.2-2,2.1-3.4,2.6l-0.2,0.1
						c-7.4,2.1-5.1,13.4,2.5,12.6c2.3-0.3,4.6-0.8,6.8-1.5c9.3-3.1,8.8-3.5,8.7-12.7c-0.1-4.6-0.5-7.3,1.1-9.3
						c2.3-2.9,1.3-7.2-1.7-9.3c-7.2-5-15.5-8.1-22.9-13.2c-6.8-4.6-9.1-10.7-11.4-17.9c-1.1-3.4,0.8-7.1,4.2-8.2
						c0.5-0.2,1.1-0.3,1.7-0.3c7.3-0.3,14.5-0.4,20.1,3.4c7.2,4.8,20.5,15.4,24.8,22.1c4.7,7.3-0.2,17.4,3.4,25.1
						c2.6,5.5,8.6,11.1,14.3,16.2c2.6,2.4,6.7,2.2,9.1-0.4c0.8-0.8,1.3-1.9,1.5-3c1.1-5.8,2.6-11.4,4.7-16.9c1.5-3.9,4.4-7,8-9
						c3.1-1.9,7.2-0.9,9.1,2.2c0.5,0.8,0.8,1.8,0.9,2.8c1,10.4,2.4,17.8,10.8,27c6.2,6.8,5.6,6.6,14.2,7.2
						c6.2,0.2,12.4,0.2,18.6-0.3c0.6,0,1.2,0.1,1.8,0.2c-34.1-87.8-88.8-166.1-159.3-228.4C1079.4,250.2,1078.3,253.1,1075.4,256.2
						L1075.4,256.2z M644.5,393.8c-3.8,1.6-1.9,6.1-5.1,8.6c-6.5,5.1-18-6.2-17,6.3c0.3,0.4,0.6,0.8,0.9,1.2
						c3.1,4.7,8.9,6.7,14.2,4.8c0.3-0.1,0.6-0.2,0.9-0.4c5.1-2.5,3.5-4.4,6.3-7.5c3.6-3.9,1.9-4.1,9.2-4.8l0,0
						c2.3-3.2,0.2-7.8-3.7-8.4C648,393.3,645.9,393.2,644.5,393.8z"/>
					<g>
						<g>
							
								<linearGradient id="SVGID_8_" gradientUnits="userSpaceOnUse" x1="168.6876" y1="1306.6799" x2="1220.0684" y2="255.2991" gradientTransform="matrix(1 0 0 -1 0 1378)">
								<stop  offset="0" style="stop-color:#CAF4F5"/>
								<stop  offset="0.3881" style="stop-color:#74E8EE"/>
								<stop  offset="0.5114" style="stop-color:#6AD9E7"/>
								<stop  offset="0.7481" style="stop-color:#51B2D6"/>
								<stop  offset="1" style="stop-color:#3182C1"/>
							</linearGradient>
							<path class="st7" d="M436.9,177.3c8.2,0,17,1.3,20.8,4c5.9,4.2,7.5,15.2,13.7,18.9c2.3,1.4,8.5,1.9,14,1.9
								c2.7,0,5.4-0.1,8.1-0.5c6.8-1.1,8.6-4.8,14.2-9.6c3.3-2.9,5.2-4.1,7.1-4.1c1.5,0,3,0.8,5.3,2c2.1,1.2,2.9,3.8,1.7,5.9
								c-0.1,0.3-0.3,0.5-0.5,0.8c-5.4,6.2-11.8,14.5-17.9,17c-2.6,1.1-6.2,1.4-10.2,1.4c-3.2,0-6.7-0.2-9.9-0.5h-0.5
								c-3.5,0-6.3,2.9-6.3,6.4c0,0.2,0,0.3,0,0.5c0.3,3.5,0.4,7,0.5,7.4c1.3,4.2,1,4.4,3.4,5.8c1.5,0.9,6.4,1.3,11.9,1.3
								c8.3,0,18.2-0.8,20.4-2.1c2.9-1.7,2.1-7.8,4.8-9.8c0.9-0.7,3.5-0.8,6.2-0.8c2.3,0,4.7,0.1,5.9,0.1h0.5
								c11.8-0.7,12.7-1.1,14.2-9.1c0.6-3.4-1.6-6.7-5-7.3c0,0-0.1,0-0.1,0l-3.3-0.6c-2.3-0.4-3.8-2.6-3.4-4.8
								c0.1-0.3,0.1-0.6,0.2-0.9c3-7.8,5.5-10.7,16.5-11.7c2.2-0.2,4.5-0.3,6.8-0.3c6.5,0,13.3,0.7,19.9,1.3c2.3,0.2,4,2.2,3.8,4.5
								c-0.1,1.1-0.7,2.2-1.6,2.9c-6.3,5-12.3,10.4-12.5,17.4c-0.3,11.8,8.2,12.7,17.3,13.4c0.2,0,0.3,0,0.5,0
								c3.5,0,6.3-2.8,6.3-6.3c0-0.3,0-0.7-0.1-1c-1-6.4-2.1-13.9-0.3-17.7c2.2-4.9,13.8-10,19.6-12c10.5-3.5,21.4-5.3,32.5-5.5
								c3.1,0,6.3,0.2,9.3,0.8c15.3,3.2,32.3,13.6,46.7,20.6c12.3,6,2.2,9.6,7,20.8c1.1,2.5,3.2,4.3,5.8,5.1
								c6.6,2.4,9.2,10.7,4.3,15.9c-2.9,3-6.6,3.5-16.2,3.5c-1.4,0-3.8-0.2-6-0.2c-1.8,0-3.5,0.2-4.3,0.8c-4,3.1-2.3,13.7-6.4,16.6
								c-1.4,0.8-3,1.2-4.5,1.1c-6,0-14.6-3.5-20-4.8l-25.7-6.1c-1.6-0.4-2.5-2.1-2.1-3.7c0.2-0.7,0.7-1.4,1.4-1.8l31.6-16.8
								c2.5-1.3,3.5-4.4,2.2-7c-0.3-0.5-0.6-1-1-1.4c-4.3-4.1-9-8.4-13.9-9.4c-1.7-0.3-3.4-0.4-5.1-0.4c-8.9,0-22.8,2.4-28.6,4.7
								c-5.5,2.1-8.1,6-12.5,10.4c-5.7,5.7-10.4,6.4-17.1,6.9c-4.2,0.3-7.3,4.4-5.9,8.4c0.1,0.3,0.2,0.5,0.4,0.8
								c0.6,1,6.4,2.4,6.5,3.1c0.4,6.9-11.8,2.5-15.3,5.9c-1.7,1.6-0.1,6.5-1.8,8c-0.6,0.5-5.6,0.8-8.8,0.8c-1,0-1.9,0-2.9-0.2
								c-2.3-1.2-3.1-5-3.6-9.1c-0.4-3.4-3.3-5.9-6.8-5.9c-0.7,0-1.4,0.1-2.1,0.3c-11.7,3.8-21.9,7.8-33,14.3L484.8,284
								c-8.1,4.8-8.9,3-7.6,11.6c2.9,19.8,15.6,24.6,33.6,27.1c10.2,1.4,13-1,14.7,7.9c1,5.4,0.8,11.5,0.4,17.5
								c-0.2,4.3,3.1,8,7.4,8.3c0.2,0,0.3,0,0.5,0c2.2,0,4.3-1,5.7-2.6c1.5-1.9,2.8-4.1,3.8-6.3c4.3-9.1,5.4-15.1,13.9-19.2
								c5.8-2.8,21.9-3.4,25.7-8.3c3.5-4.5,0-25.2,0-30.9c0-10.4,2-11.3,11.3-17.5c4-2.6,6.5-3.6,9.2-3.6c3,0,6.2,1.2,11.7,2.5
								c5,1.1,24.3,2.5,27.3,6.4c1.5,2.1,0.4,9.2-0.8,15.7c-0.8,4.3,2,8.5,6.4,9.4c0.5,0.1,1,0.1,1.5,0.1c0.7,0,1.4-0.1,2.1-0.3
								c6.9-1.8,13.2-4.9,19.7-8.3c3.5-1.7,7.7-0.4,9.4,3.1c0.5,1.1,0.8,2.2,0.7,3.4c-0.4,8.8-0.5,18.6,2.6,23.4
								c2.2,3.3,10.6,6.5,14.3,8.7c8.2,5,7.4,5.1,7,14.8c-0.4,9.1,0.9,8.4-6.1,12.2c-3.5,1.9-14.6,2.9-15.8,6
								c-4.1,10.5,23.5,12.6,27,18c1.2,1.8,0.5,13.3-0.8,14.4c-0.9,0.7-2.1,1-3.3,0.9c-4,0-9.4-2.5-11.8-3.2
								c-7.4-2.3-32.3-4.6-26.1-18.1c1.5-3.2,8-4.2,9.5-7.6c2.2-4.8-2-12-7.3-12c-1.1,0-2.1,0.3-3,0.9c-1.8,1-0.8,6.4-2.3,7.9
								s-2.8,0.8-5,1.7c-3.5,1.5-12.8,2.3-15.2,2.4H644c-9.8,0-3.5-3.1-10.6-9.4c-2.5-2.1-8-3.3-12.7-3.3c-2.2-0.1-4.5,0.3-6.5,1
								c-5.2,2.5-8.3,10.9-4.6,15.3c3.2,3.9,16.6,4.3,21,4.9c-5.1,2-8.7,8-12.3,12.1c-2.7-5.3-6.1-7.4-9.7-7.4
								c-10.7,0-23.8,17.7-30.3,23.9c1.2,0.9,2.3,1.9,3.4,2.8c-14.3,7.9-30.8,14.4-42.6,25.6c-9.3,8.7-17.7,18.4-26.5,27.6
								c-7.3,7.5-3,12.4-7.9,21c-6.9,12.5-29.3,19.1-40.4,29.3c-6.9,6.3-13.1,10.7-14,19.4c-0.3,3.4-0.4,6.9-0.1,10.3
								c0.4,7.3-5.2,13.6-12.6,14c-0.2,0-0.4,0-0.5,0c-2.8,0-5.4-1-7.6-2.7c-0.5-0.4-1-0.9-1.4-1.5c-1.3-2-1.6-5.2-1.6-8.7
								c0-7.2-5.8-13-13-13l0,0h-22.8c-6.7,0-14.7-1-22.2-1c-3.6-0.1-7.3,0.3-10.9,1c-9.4,2.1-27.5,11.3-34.7,17.6
								c-6.7,5.9-12.6,19.7-16.1,28.1c-3.1,7.4-7.5,18.5-6.1,26.2c0.7,3.9,5.9,17.3,9,19.7s12,1.9,16.1,2.4c2.7,0.4,5.3,0.6,8,0.6
								c6.6,0,9.2-2.2,17.9-8l19.5-13c4.2-2.9,10-1.8,12.9,2.4c1.7,2.4,2.1,5.5,1.1,8.3l-0.1,0.2c-2.5,7.5-7.9,14.9-11.6,21.9
								c8.3,1.4,24.3,0.8,31.2,5.3c5.5,3.6,3.8,11.1,4.4,18.9c0.5,7-2,28,2.1,33.6c3,4,18.3,4.1,23.6,5c4.8,0.8,14.1,4,20.3,4
								c1.3,0,2.5-0.2,3.7-0.6c7.7-3.2,17.1-19.8,22.5-26.1c4.6-5.3,6-7.1,9.2-7.1c2.7,0.2,5.4,0.6,8,1.3c8.3,1.7,20.8,1.9,27.3,7.1
								c4.3,3.5,6.1,12.8,11,15.4c1.1,0.5,2.3,0.7,3.5,0.6c2.7,0,5.8-0.6,7.9-0.8c0.4,0,0.9,0,1.4,0c2.7,0,6.5,0.3,10.3,0.3
								c4,0,7.7-0.3,9.7-1.5c0.3-0.2,0.6-0.4,0.8-0.6c2.9-2.3,6.5-3.6,10.2-3.6c3,0,6,1,8.4,2.8c4.2,3.3,7.6,7.4,12.1,14.3
								c3.1,4.9,7.4,16.2,12.4,19.4c1.3,0.8,3.7,1.1,6.3,1.1c3.8,0,8.3-0.6,10.7-0.6h0.4c3,0,8.8-0.9,13.6-0.9
								c2.7,0,5.1,0.3,6.5,1.1c4,2.5,8.5,14.3,10.6,18.6c2.5,5.2,3,6.8,3.6,12.6c0.5,4.9-1.4,18.1,1.5,22.2
								c3.9,5.4,30.6,12.7,38.3,14.6c6.3,1.4,12.7,2,19.1,1.9c7.1,0,14.3-0.5,21-0.5h1.4c2.1,0,5.6-0.5,8.7-0.5
								c1.6-0.1,3.3,0.2,4.8,0.8c5.8,3.3,8.5,16.4,13,21.4c4.2,4.6,7,5,13.6,7.1c10.5,3.3,10.9,1,9.9,10.9
								c-1.4,14.8-10.5,23-19.4,34.4c-8.8,11.1-9.1,14.7-10.6,29c-1.5,14.9,0.4,36.8-5.2,50.6c-2.7,6.7-16.8,18.3-23.9,20.4
								c-1.9,0.5-3.8,0.7-5.8,0.7c-5.5,0-11.8-1.2-16.4-1.3c-2.6-0.1-4.4-0.2-5.7-0.2c-3,0-4.1,0.7-7.4,4.1
								c-12.4,12.8-7,23.4-3.5,38.6c1.4,5.9,3.5,10.5,1.5,15.6c-1.7,4.1-6.6,8.4-9.4,12c-8.6,11-18.4,21.7-26,33.4
								c-3.9,6-6.2,16.2-11.5,21.1c-4.8,4.5-14.5,7-20.4,9.8c-5.5,2.6-10.8,5.7-16.6,7.3c-5.3,1.5-18.1,0.2-21.2,4.2
								c-8.7,11.5,10.4,9.3,13.7,12.9c4.5,4.9-1.6,11.5-5.3,15.7c-6.5,7.5-13.6,8.5-3.4,17c0.4,0.3,0.8,0.7,1.2,0.9
								c9.4,6.4,15,17.2,13.1,28.4c-1,5.7-1,10.8,1.3,14.1c4.8,6.9,35.2,20.8,18.2,30.7c-1.6,0.9-4.8,1.3-8.4,1.3
								c-6.6-0.2-13.2-0.8-19.7-1.8c-7.3-1.1-8.4-2.6-14.5-8c-10.6-9.2-22.8-17.2-29.8-29.5s-20.7-28.4-23.2-42
								c-2.6-14.1,7.3-31.5,3.5-45.3c-1.9-6.9-11.3-14.9-15.6-20.8c-5-6.8-4.7-7-3.1-15.6c1.8-9.7,4.1-19.5,5.3-29.4
								c0.8-7,0.3-7.7-1.4-7.7c-0.4,0-1,0-1.5,0c-1.7,0-4-0.4-7-3.5c-5.2-5.5-0.9-32.9-0.9-40.7V961c0-7.4,2-18.5,0-25.8
								c-2.8-10.1-21.3-20.7-30.8-26.1c-6-3.4-12.5-3.3-18.4-6.4c-9.1-4.7-4.4-10.5-8.5-19.8c-5.8-12.9-19.8-25.3-28.6-36.3
								c-3.9-4.9-13-12.7-15-18.8c-1.8-5.7,1.9-13.1,2.9-19.4c1.8-11.5-2-27.9,4.5-36.7c5.4-7.3,17.6-10.2,24-16.8
								c5.7-5.8,3.8-7.2,2.7-16.6c-0.5-4.3,0.1-20.7-3-23.2c-2.5-2-8.9-2.4-15.3-2.4c-4.5,0-8.9,0.2-12.1,0.2c-1.1,0-2,0-2.8-0.1
								c-5.9-0.4-11.6,0.1-16.2-2.8c-8.4-5.4-16-18.3-22.6-25.8c-4-4.6-7.8-10.3-13-13.2c-6.8-3.8-17.1-4.9-24.8-6.6
								c-2.6-0.6-12.3-0.5-13.9-2.5c-2-2.5,2-8.6,0.9-11.9c-1.6-4.8-9.6-4.9-16.4-5.4h-0.3c-1.9,0-3.5,1.5-3.5,3.4c0,0,0,0,0,0.1
								c0,1.9-1.6,3.5-3.6,3.5c-0.3,0-0.5,0-0.8-0.1l-21.4-5.3c-7-1.7-19.8-2.3-25.7-6.4c-6.4-4.3-12.3-18.5-16.4-25.1
								c-7.4-11.9,4.3-9.5,4-21.6c-0.1-5.3-10.3-15.7-13.3-20c-5.8-8.4-14-17.3-18.3-26.6c-3.1-6.9-3.2-16-4.4-23.5
								c-1.9-11.8-1.4-12.6-10.4-12.6h-4.8c1.4,10.4,0.8,23.6,4.4,33.4c3.8,10.5,13.5,19.4,18.7,29.2c3.2,6,3.3,4.7,2.9,11.4
								c-0.5,8.6-0.6,6.7-6.4,7.6c-1.2,0.2-2.4,0.3-3.7,0.3c-11.9,0-14.8-9.9-20.6-19.7c-4.9-8.4-12-16.9-13.4-26.4
								c-1.8-11.7,4.9-30.7,0-41.2c-3.6-7.8-19.6-6.5-24.3-13.6c-3.8-5.8-0.5-24.4-0.2-32.6v-0.1c0-0.4,0-0.7,0-1c0,0,0,0,0,0.1V453
								c42.1-95.9,108.8-178.8,193.5-240.4l3.3-0.8c6.1-0.1,13.4-1.1,20.1-1.1c3-0.1,6,0.2,9,0.9c4.7,1.2,8.7,5.6,13.2,7.3
								c4.8,1.8,10.6,2.3,15.5,3.4c7.5,1.6,6.3,1.6,10.1,5.5c5.5,5.6-2.2,4.2,6.3,6.5c5,1.2,10.1,1.7,15.2,1.6
								c4.6,0,9.2-0.2,13.6-0.3c2.2,0,4-1.8,4-4c0-0.5-0.1-1-0.3-1.5c-2-5.2-2.7-6-10.1-7.4c-4.1-0.7-8.4-1-12.6-0.9
								c-3.2,0-6.4,0.1-9.5,0.1l0,0c-1.4,0-2.6-1.2-2.6-2.6c0-0.7,0.2-1.3,0.7-1.8c3.8-4.2,6.2-9-0.6-12.8c-2-1.1-5.2-1.5-8.9-1.5
								c-4.4,0-9.4,0.5-13.8,1h-0.2c-1.3,0-2.4-1.1-2.4-2.4c0-0.7,0.3-1.4,0.9-1.8c8.8-7.6,18.7-17.2,28.3-20.8
								C425.4,178,431.1,177.3,436.9,177.3 M1079.4,247.7c70.5,62.3,125.1,140.6,159.2,228.3c-0.5-0.1-1.1-0.2-1.6-0.2h-0.2
								c-4.3,0.2-8.7,0.4-13,0.4c-1.9,0-3.7,0-5.6-0.2c-8.6-0.5-8-0.4-14.2-7.2c-8.4-9.2-9.8-16.6-10.8-27c-0.4-3.7-3.7-6.3-7.3-5.9
								c-1,0.1-1.9,0.4-2.7,0.9c-3.6,2-6.5,5.1-8,9c-2.1,5.5-3.6,11.1-4.7,16.9c-0.6,3-3.3,5.1-6.3,5.1c-1.6,0-3.1-0.6-4.3-1.7
								c-5.7-5.1-11.7-10.7-14.3-16.2c-3.7-7.7,1.3-17.8-3.4-25.1c-4.3-6.7-17.6-17.3-24.8-22.1c-4.3-2.9-9.5-3.5-15-3.5
								c-1.7,0-3.4,0.1-5.1,0.1c-3.6,0.2-6.3,3.2-6.2,6.8c0,0.6,0.1,1.1,0.3,1.7c2.3,7.2,4.6,13.3,11.4,17.9
								c7.4,5.1,15.8,8.2,22.9,13.2c3,2.1,4,6.4,1.7,9.3c-1.6,2-1.1,4.7-1.1,9.3c0.1,9.2,0.5,9.6-8.7,12.7c-2.2,0.8-4.5,1.3-6.8,1.5
								c-0.2,0-0.5,0-0.7,0c-7.1,0-9-10.7-1.8-12.7l0.2-0.1c3.4-1.1,5.3-4.7,4.2-8.2c-0.4-1.4-1.3-2.6-2.6-3.4l-25.5-17.2
								c-8.1-5.5-11.5-7.6-14-13c-1-2.2-3.3-3.6-5.8-3.6c-1.8,0-3.5,0.7-4.8,2.1c-3.2,3.4-6.6,6.6-9.9,7.8c-0.8,0.3-1.7,0.4-2.6,0.4
								c-4.8,0-10.6-3.5-15.3-3.5c-0.8,0-1.7,0.1-2.5,0.4c-3.8,1.5-9,11.7-11.4,14.8c-5.6,7.2-12.8,14.5-17.3,22.5
								c-3.2,5.5-3,12.5-8.2,15.2c-2.6,1.3-6.5,1.6-10.3,1.6c-2.8,0-5.7-0.1-8.2-0.1h-1.3c-3.7,0.1-8.1,0.4-12.7,0.4
								c-11.3,0-23.5-1.6-27.8-11.2c-4.1-9.3-7.7-36.2,1.5-44.5c3.6-3.3,19.2-4.8,24-5.3c1.1-0.1,2.2-0.2,3.2-0.2
								c5.3,0,10.1,1.3,15.7,2.4c2.1,0.4,8.7,2.9,12.1,2.9c0.5,0,0.9-0.1,1.4-0.2c3.1-1.4,0.8-0.7,2.8-5c0.4-0.8,3.2-10.3,2.5-11.5
								c-1.5-2.6-11.3-0.4-12.9-3c-1.4-2.3,2.6-19.9,3.7-22c3.5-6.9,10.5-5.6,19.2-7c9.3-1.5,11-0.9,16.5-8.2
								c4.6-6.2,10.3-19.6,16.9-23.9c4.6-3,10-3.9,15.7-3.9c6.2,0,12.8,1.1,19,2.1c0.6,0.1,1.1,0.1,1.7,0.1c6.1,0,11.1-5,11.1-11.2
								c0-0.5,0-1-0.1-1.4l-0.1-1c-0.8-5.9-6.2-10.1-12.1-9.3c-0.9,0.1-1.8,0.4-2.7,0.7l-0.3,0.1c-1.3,0.5-2.8,0.8-4.2,0.8
								c-4.8,0-9-3.1-10.5-7.6c-1.2-3.6-2.6-6.9-4.4-8.7c-3.8-3.6-11.8-0.7-14.8-5c-10.5-14.8,10.6-25.7,21.2-29.8
								c6.2-2.4,12.3-3.7,16.6-8.4c2.9-3.2,4-6,3.9-8.6 M987.2,296.2c0.1,0-0.4,0.6,1.4,3.6c2.5,4.1,1.9,11.5,3.3,16.1
								c4.7,14.5,13.3,24.6,26.2,30.8c1.7,0.8,2.5,2.9,1.6,4.7c-0.1,0.2-0.3,0.5-0.4,0.7c-5.6,7-8.2,10.4-18.7,11.4
								c-6.4,0.6-12.5,1-18.8,1.1h-0.3c-6,0-10.9-4.9-10.8-10.9c0-0.1,0-0.2,0-0.3c0.1-3.9,0.6-7.5,1.8-8.9c1.8-2,4.1-2.3,6.4-2.3
								c1.2,0,2.4,0.1,3.4,0.1c2.4,0,4.2-0.5,4.1-3.8c-0.2-3.3-1.9-6.4-4.6-8.3c-17.2-12.4-18.8-9.6-18.9-21c0-0.8,0.2-1.5,0.6-2.1
								c4.2-6.2,8.6-10.3,16.7-10.3c0.8,0,1.6,0,2.5,0.1s1.5,0.1,2.1,0.1c0.8,0.1,1.7,0,2.5-0.4 M957.6,323.2
								c8.3,0,16.3,3.6,11.7,14.4c-2.5,5.9-17.2,16.5-23.5,18.7c-2.9,0.8-6,1.2-9,1.3c-1.3,0.1-2.6-0.1-3.8-0.7
								c-2.8-1.8-1.9-6.9-1.8-11.3c0-0.6,0.2-1.2,0.5-1.8c5.8-9.4,8.2-17.3,19.2-19.9C953.1,323.4,955.3,323.2,957.6,323.2
								 M647.2,393.3c1,0,2,0.1,3,0.3c3.9,0.6,6,5.2,3.7,8.4l0,0c-7.4,0.6-5.6,0.9-9.2,4.8c-2.8,3-1.2,4.9-6.3,7.5
								c-0.3,0.1-0.5,0.2-0.9,0.4c-1.3,0.5-2.6,0.7-4,0.7c-4.1-0.1-8-2.1-10.3-5.6c-0.3-0.4-0.5-0.8-0.8-1.2l0,0
								c-0.4-5,1.2-6.2,3.6-6.2s5.8,1.3,8.9,1.3c1.6,0.1,3.2-0.4,4.6-1.4c3.1-2.4,1.3-6.9,5.1-8.6
								C645.3,393.4,646.3,393.2,647.2,393.3 M605.5,403c4.9,0,5.9,4.5,5.8,8.6c-0.1,3.1-2.4,5.6-5.5,5.8h-0.5c-3.3,0-6-2.7-5.9-6.1
								c0-0.4,0.1-0.9,0.2-1.3c0.8-3.6,2.4-7,5.5-7.1L605.5,403 M1069.2,471.4c3.6,0,6.4,2.9,6.4,6.4c0,0.2,0,0.4,0,0.7
								c-0.9,9.3-2.4,22.6,0.6,26.3c4.3,5.4,28.7,7.3,35.7,9c5.2,1.3,11.4,2,16.3,4.1c3.8,1.7,6.7,6.2,10.6,7.4
								c1.8,0.6,3.6,0.9,5.5,1c9.2,0-1.2-14.7,4.5-19.5c2.3-2,12.3-2.8,20.5-2.8c4.7,0,8.8,0.3,10.5,0.9
								c10.3,3.6,17.4,17.1,27.8,20.4c3.9,1.3,9.1,1.7,14.6,1.7c9,0,18.8-1.2,25.4-1.7c0.5,0,1,0,1.5,0c0.9,0,1.8,0,2.6,0
								c1.3,0.1,2.5-0.2,3.7-0.7c55.1,190.4,10.6,395.8-118.3,546.4c0.3-4.3-1.8-8.5-5.5-10.8l-0.1-0.1c-2.9-1.9-1.6-8.8-1.6-13.2
								c0-11.6,2.1-21.7-3.9-31.3c-5.7-9-16.2-17.5-18.6-27.7c-3.2-13.3,4.4-30.4,0-43.3c-3-8.7-14.8-12.8-17.5-22.1
								c-3.8-13.4,1.4-20.9,7.4-32.2c3.8-7.2,13.3-19.3,12.2-27c-1.5-10.6-14.4-25.5-19.7-34.7c-5.9-10.3-17.1-23.6-20-35.2
								c-2.1-8.6,1.2-20.3,2-29.3c0.4-4.1,3.6-15.4,1.9-19.3c-1.6-3.5-2.2-2.3-7.5-3.1c-13-2-25.6,0.7-35.2-8.8
								c-6-5.9-13.5-9.6-22-9.6c-3.3,0-6.7,0.6-9.8,1.6c-4.8,1.6-7.4,7.5-11.9,9.9c-3.1,1.7-5.3,1.8-8.5,1.8H952
								c-1.7,0-4-0.3-6.2-0.3c-1,0-1.9,0.1-2.9,0.3c-2.1,0.6-2.4,3.6-3.5,3.9c-3.4,0.8-7.2,0.8-10.7,0.7c-6.2,0-12.3-0.7-16-3.2
								c-12.2-8.5-22.8-26-32.6-37.1c-6-6.9-18.5-16.6-21.5-25.2c-2.3-6.4,1.3-18.7-0.2-22.8s-2.5-8.2-1.8-12.5
								c3.8-20.5,5.1-10.3,11.7-17.5c2.9-3.1,2.6-14.7,3.5-19.1c-1.8,0-5.3,0.4-8.3,0.4c-2.2,0-4.1-0.2-5-1
								c-1.9-1.7-5-15.2-4.7-17.4c0.9-5.8,11.1-10.5,16.3-14.3l36-26c6.9-5,10.8-6.1,12.3-13.5c1.8-8.9-3.7-23.1,1.9-29.7
								c4.5-5.3,22.9-15.1,29.8-16.5c2.1-0.4,4.3-0.6,6.5-0.5c8,0,17.9,1.7,24.5,1.7c11.6,0,17-6.9,27.7-10.4
								c17.8-5.7,40.4-4.5,60.1-5.4h0.3 M436.9,147.3L436.9,147.3c-7,0-17.1,0.7-25.6,3.9c-13.1,4.9-23.7,14.2-33,22.4
								c-1.5,1.3-2.9,2.5-4.2,3.6c-1.3,1.1-2.5,2.3-3.6,3.6c-1.4-0.1-2.9-0.1-4.5-0.1c-4.8,0-9.3,0.4-13.4,0.7
								c-2.7,0.2-5.3,0.4-7.2,0.4c-2.1,0-4.2,0.3-6.3,0.8l-3.3,0.8c-4,0.9-7.7,2.6-11,5C236,253,165.8,340.2,121.6,440.9
								c-1.7,3.8-2.5,7.9-2.5,12v5.3c-0.1,1.3-0.3,3.7-0.5,5.8c-1.4,14.4-3,30.8,5.7,43.9v0.1c5.8,8.7,13.7,13.2,20.5,15.9
								c-0.1,0.5-0.1,1-0.2,1.5c-0.9,7.7-2,16.4-0.6,25.3l0,0c2,13.6,9,24.3,14,32.1c1.2,1.8,2.3,3.6,3.2,5.1
								c0.7,1.1,1.4,2.5,2.1,3.8c2.8,5.1,6.2,11.5,12,17.3c8.5,8.6,20.2,13.4,32.3,13.3h1.7c1.2,2.9,2.6,5.7,4.2,8.3
								c0.6,1,1.8,3.1,2.8,5.1c5.1,9.6,11.4,21.6,22.1,28.9l0,0c9.8,6.7,21.2,8.5,30.4,9.9c1.8,0.3,4.3,0.7,5.2,0.9l21.4,5.3
								c2.6,0.7,5.3,1,8,1h0.1c9.1,10.7,21.8,11.7,30.2,12.4l1.2,0.1c1.9,0.4,3.8,0.8,5.6,1.1c2.6,0.5,6.6,1.2,8.9,1.9
								c0.7,0.8,1.7,2,2.4,2.9c1,1.3,2.2,2.7,3.5,4.2s3.2,4,5.1,6.6c6,8,13.5,18.1,23.9,24.7h0.1c9.9,6.3,19.9,7,26.4,7.3
								c-4.5,3.1-8.4,7-11.6,11.4c-10.2,13.8-9.9,29.8-9.8,41.5c0.1,2.8,0.1,5.5-0.1,8.3c-0.1,0.5-0.5,1.9-0.8,2.9
								c-1.9,6.7-5,17.9-1,30.4l0.1,0.2c3.5,10.6,11,18.5,17,24.9c1.1,1.1,2.6,2.7,3,3.3c3.4,4.2,7.1,8.3,10.7,12.3
								c5,5.5,11.2,12.3,13.6,16.8c0,0.3,0,0.5,0.1,0.8c0.6,5.9,2.3,23.8,22.4,34.3c4.9,2.4,10,4.3,15.3,5.4c0.9,0.2,2,0.5,2.6,0.7
								c5.5,3,10.9,6.4,15.9,10.2c-0.1,1.7-0.2,3.7-0.3,5.1c-0.3,3.3-0.5,6.7-0.5,10.2v31.2c0,1-0.3,4.3-0.5,6.6
								c-1.7,20-3.5,40.7,9.4,54.6c-0.3,1.6-0.6,3.1-0.9,4.7c-0.6,3.3-1.3,6.6-1.9,10v0.1l-0.2,1c-1,5.4-2.1,11.6-0.4,19.3
								c1.8,8.2,5.9,13.9,9,18.1c2.3,3.1,4.9,6.1,7.5,8.9c0.9,1,2,2.3,3.1,3.4c-0.3,2.3-1,5.7-1.6,8.1c-2,9.3-4.4,20.8-2.1,33.4
								c2.9,15.8,12.2,29.6,20.4,41.8c2.5,3.7,4.8,7.1,6.3,9.8c8.2,14.2,19.9,23.8,29.3,31.5c2.4,2,4.6,3.8,6.7,5.6l1.5,1.3
								c7.3,6.5,14.1,11.7,28.4,13.8c8,1.3,16,2,24.1,2.1c6.1,0,15.1-0.6,23.3-5.3l0.1-0.1c12-7,19.3-18.2,20-30.7
								c1.1-20.1-13.7-32.8-24.3-40.8c0.6-9.7-1.3-19.4-5.5-28.2c-1.4-3-3.1-5.8-5-8.5c0.7-1.2,1.4-2.5,2-3.8
								c2.4-4.9,3.8-10.2,4-15.6l2.2-1.1c1.1-0.6,2.2-1.1,3.3-1.6c0.8-0.4,2.7-1.1,4.3-1.7c6.8-2.6,16.1-6.2,23.7-13.2
								c7.8-7.3,11.6-16.2,14.4-22.7c0.6-1.3,1.4-3.4,1.8-4.1c4.2-6.5,9.7-13,15.4-20c3-3.6,6-7.3,9-11.1l0.1-0.1
								c0.3-0.3,1.1-1.3,1.7-1.9c3.7-4,8.7-9.5,11.8-17.2c5.4-13.4,2.3-25,0.6-31.2c-0.2-0.9-0.5-1.7-0.6-2.4
								c-0.4-1.6-0.8-3.2-1.1-4.7c1.6,0.1,3.3,0.2,5,0.2c4.7,0,9.4-0.6,14-1.8c9.6-2.8,18.8-9.3,24.7-14.4
								c9.2-7.8,15.5-15.7,18.7-23.5v-0.1c5.8-14.5,6.2-30.8,6.6-45.1c0.1-5.2,0.3-10,0.6-13.6v-0.4c0.4-3.5,0.8-7.4,1.1-8.7
								c1-1.5,2-3,3.2-4.4c1.3-1.7,2.7-3.3,4.1-5c8.2-10,19.5-23.6,21.6-45c0.6-6.3,1.5-14.9-3.5-24.1
								c-6.8-12.8-18.6-15.9-23.7-17.2c-1.2-0.3-2.2-0.6-3.5-1l-0.5-0.2c-3.4-7.7-8.6-19.2-20.5-25.9l-0.1-0.1
								c-5.6-3.1-11.9-4.6-19.4-4.6c-2.9,0-5.6,0.2-7.6,0.4L746,766h-1c-3.8,0-7.6,0.1-11.2,0.2c-3.4,0.1-6.7,0.2-9.8,0.2
								c-4,0.1-7.9-0.2-11.8-1h-0.1c-5.6-1.4-11.8-3.2-16.9-4.8c0-2-0.1-4-0.3-6c-1-9.4-2.4-14.2-6.4-22.5c-0.2-0.4-0.7-1.4-1-2.3
								c-5.3-11.9-10.5-22.2-20.6-28.6c-8.2-5.1-16.7-5.7-22.4-5.7c-4,0-7.9,0.3-11,0.6c-0.9,0.1-2.2,0.2-2.8,0.2h-0.8
								c-1.1-2-2.2-4.1-3.4-6.1c-6.5-10.1-11.9-16.4-18.9-21.8l0,0c-7.7-6-17.1-9.2-26.8-9.1c-7.7,0-15.2,2-22,5.7
								c-1.2,0-2.4-0.1-3.6-0.1l-2.4-0.1c-2.2-3.2-4.9-6.1-7.9-8.6c-11.3-9-24.8-10.9-34.8-12.3c-2.1-0.3-4.1-0.6-5.3-0.8l-1.2-0.3
								c-4.2-1-8.5-1.6-12.9-1.8c-8.2,0-16.2,2.8-22.6,8c-3.2,2.6-6.1,5.6-8.7,8.8l-0.7,0.8c-2.6,3-5,6.5-7.6,10.1
								c-0.8,1.2-2,2.8-3.1,4.4c-2.8-0.7-5.4-1.4-8.1-1.8l-0.9-0.1c0.1-4,0.3-7.6,0-10.9c-0.1-0.9-0.1-2.1-0.1-3.5
								c0.1-4.9-0.3-9.7-1.3-14.5c-2.1-9.9-8-18.5-16.5-24.1c-1.8-1.2-3.6-2.2-5.5-3.1c0.5-9-2.1-17.9-7.4-25.2
								c-12.4-17.2-36.2-21.5-53.8-9.7l-19.5,13l-2.3,1.5l-0.8,0.5c0.6-1.7,1.4-3.8,2.5-6.5c3.9-9.2,6.7-15,8.6-17.4
								c4.2-3.2,16.7-9.6,21.2-10.6h0c1.4-0.2,2.8-0.3,4.2-0.3c2.9,0,6.3,0.2,9.8,0.5c4,0.3,8.2,0.5,12.4,0.5h8.2
								c1,2.9,2.4,5.6,4,8.2l0.1,0.1c2.1,3.2,4.8,6.1,7.8,8.4c7.4,5.9,16.7,9.1,26.2,9.2c11.8-0.1,23.2-5,31.3-13.6
								c8.2-8.6,12.4-20.1,11.8-31.9l0,0c0-0.7-0.1-1.4-0.1-2l1.6-1.4c1-0.9,2-1.8,3.1-2.8c1.9-1.8,7.5-4.9,11.7-7.2
								c11.7-6.6,26.3-14.8,34.6-29.6c3.1-5.5,5.1-11.5,6-17.7c2.1-2.2,4.2-4.5,6.2-6.7c5.7-6.1,11-11.8,16.5-17l0,0
								c5.6-5.3,14.6-9.8,24.1-14.6l2.2-1.1c5.8,3.7,12.5,5.7,19.4,5.7c1,0,2,0,3.1-0.1c4.6-0.4,9.1-1.7,13.3-3.8
								c3.8,1.1,7.8,1.7,11.8,1.7c5,0,9.9-0.9,14.5-2.6c1.2-0.5,2.4-1,3.5-1.5c5.7-2.7,10.6-6.7,14.4-11.7c4.1-1.8,7.7-4.5,10.6-7.8
								c2.1,0.5,4.1,1,5.8,1.3c0.9,0.2,2.2,0.5,2.8,0.6l0.7,0.3c4.3,1.6,11.6,4.3,20,4.3c8.1,0.1,16-2.6,22.3-7.7
								c9.9-8.2,11.8-19.5,12.3-28.5c0.6-11-1-18.9-5.3-25.5c-0.7-1-1.4-2-2.1-3c1.2-4.1,1.8-8.3,1.8-12.6c0-0.9,0-1.8,0.1-2.8v-0.1
								c0-0.8,0.1-1.5,0.1-2.1c0.3-5.6,0.7-14.1-4.2-23.2s-12.3-13.5-17.3-16.5c-0.9-0.5-1.7-1-2.6-1.5c0-1.1,0.1-2.3,0.1-3.7
								c0.2-5.7-0.8-11.4-3.2-16.6c0.6-0.9,1.1-1.9,1.6-2.8c8.7-0.9,18.5-3.7,26.8-12.4l0.1-0.1c9.1-9.6,12.7-23.2,9.6-36
								c-1.9-7.9-6.1-15.1-12.2-20.6c-0.2-4.4-1.1-8.8-2.9-12.8c-5.5-12.6-16.7-18.1-20.3-19.8c-3.2-1.6-6.7-3.4-10.3-5.3
								c-13-6.8-27.6-14.4-43.2-17.8c-5.2-1.1-10.4-1.6-15.7-1.5c-14.5,0.2-28.9,2.6-42.6,7.3c-1.8,0.7-3.5,1.3-5.2,2
								c-4.5-2.8-9.6-4.4-14.8-4.9l-1.3-0.1c-6.5-0.6-13.8-1.3-21.3-1.3c-3.4,0-6.5,0.1-9.5,0.4c-5.1,0.4-10.2,1.4-15.1,3.1
								c-5.1-2.6-10.8-4-16.5-4c-13.6,0-22.8,8-26.8,11.4l-0.9,0.8c-3.1-5.2-7.3-9.7-12.2-13.3C466.1,150.5,453.3,147.3,436.9,147.3
								L436.9,147.3z M527.7,293.6c2.9-1.7,5.8-3.2,8.6-4.5c2.3,2.3,5,4.2,7.9,5.7l0.4,0.2c2.7,1.4,5.6,2.3,8.6,2.8v0.1
								c-3.2,0.8-6.4,1.9-9.4,3.3l-1.5,0.8c-0.8-0.7-1.7-1.4-2.7-2.1c-3.9-2.7-8.4-4.6-13.1-5.5L527.7,293.6L527.7,293.6z
								 M1079.3,217.6c-11.8,0-22.4,6.9-27.3,17.6c-1.2,0.4-2.6,0.9-4.1,1.5c-15.3,6-34.6,17.2-41,36.9c-5.5-4.7-12.4-7.3-19.6-7.3
								c-1.3,0-2.6,0.1-3.9,0.3c-1-0.1-2-0.1-3-0.1c-25.6,0-37.5,17.7-41.5,23.5c-1.6,2.4-2.9,5-3.9,7.7
								c-15.3,6.6-22.2,18.8-26.6,26.6c-0.8,1.4-1.5,2.7-2.3,3.9c-3,5-4.7,10.6-4.9,16.5c0,0.3,0,0.9-0.1,1.5
								c-0.3,3.7-0.3,7.3,0.2,11c1.4,10.7,6.9,19.6,15.6,25.1c5.4,3.4,11.6,5.2,18,5.3c-8.6,2-15.2,4.9-20.7,9.8
								c-11,9.9-16.2,25.1-15.6,45c0.3,12.1,2.9,24.9,6.7,33.6c-2.8,2.1-5.4,4.5-7.7,7.2c-11.2,13.1-10.2,28.7-9.2,38.6l-35.7,25.8
								c-0.4,0.3-1.7,1.1-2.7,1.7c-8,5-23,14.3-25.8,32.4c-0.6,3.9-0.8,9.4,2.1,20.7c1.2,5.4,3.1,10.6,5.7,15.5
								c-2.2,5-3.5,10.8-4.8,17.6c-1.4,7.8-0.9,15.8,1.5,23.4c0,0.3,0,0.6-0.1,0.8c-0.7,7-1.6,16.6,1.8,26.4
								c4.5,12.7,14.4,22.3,22.3,30c2,1.9,4,3.9,5,5c2.5,2.8,5.3,6.6,8.4,10.6c8.2,10.7,17.4,22.9,29.6,31.4c10.7,7.4,24.2,9,33.5,9
								c6,0,12-0.7,17.8-2.1c2.6-0.7,5-1.7,7.3-2.9h24.2c7.9,0.2,15.7-1.7,22.7-5.4c3.3-1.8,6.3-4,9-6.5
								c9.9,9.5,20.7,13.1,30.3,14.7c-1.4,9-2.8,19.8-0.1,31c3.2,13.1,10.7,24.3,17.4,34.1c2.2,3.3,4.3,6.4,5.6,8.7
								c2.3,4,5,8,7.9,12.2c1.6,2.4,4.2,6,6.1,9.1c-0.8,1.3-1.5,2.5-2.1,3.5c-1.7,2.7-3.4,5.4-4.9,8.3c-0.6,1.1-1.1,2.1-1.7,3.1
								c-5.9,11-14.8,27.6-8,51.3c3.7,13,12.4,20.8,17.7,25.6c-0.2,2.2-0.5,5.1-0.8,7.3c-1.1,8.7-2.5,19.6,0.3,31.2
								c3.2,13.5,11.4,23.3,17.4,30.5c1.7,2,3.5,4.2,4.5,5.7c0.2,1.6,0,5-0.1,7.6s-0.2,5.3-0.2,8.3c0,0.3,0,1-0.1,1.6
								c-0.3,3.6-0.3,7.2,0,10.8c0.6,7.4,3.6,14.5,8.5,20.2c4.6,15.9,21.3,25.1,37.2,20.4c5.6-1.6,10.6-4.9,14.4-9.3
								c135.5-158.3,182.2-374.1,124.3-574.3c-2.5-8.7-8.8-15.7-17.1-19.3c-1.7-0.7-3.5-1.3-5.3-1.7c7.1-8.4,9.1-20,5.1-30.2
								c-35.8-92.2-93.3-174.5-167.4-240C1093.7,220.2,1086.6,217.6,1079.3,217.6L1079.3,217.6z"/>
						</g>
					</g>
				</g>
			</g>
		</g>
	</g>
</g>
</svg>
