<svg xmlns="http://www.w3.org/2000/svg" xmlns:xlink="http://www.w3.org/1999/xlink" viewBox="0 0 161.08 161.15"><defs><style>.cls-1{isolation:isolate;}.cls-2{fill:url(#linear-gradient);}.cls-3{opacity:0.2;mix-blend-mode:color-dodge;}.cls-4{fill:url(#linear-gradient-2);}.cls-5{fill:#25613e;opacity:0.12;mix-blend-mode:multiply;}</style><linearGradient id="linear-gradient" x1="666.78" y1="533.19" x2="575.26" y2="441.67" gradientTransform="translate(175 864.37) rotate(-135)" gradientUnits="userSpaceOnUse"><stop offset="0" stop-color="#b3e38d"/><stop offset="0.2" stop-color="#85d147"/><stop offset="1" stop-color="#25613e"/></linearGradient><linearGradient id="linear-gradient-2" x1="80.54" y1="0" x2="80.54" y2="161.15" gradientTransform="matrix(1, 0, 0, 1, 0, 0)" xlink:href="#linear-gradient"/></defs><title>planet green</title><g class="cls-1"><g id="Layer_2" data-name="Layer 2"><g id="Layer_1-2" data-name="Layer 1"><circle class="cls-2" cx="80.54" cy="80.58" r="64.72"/><g class="cls-3"><path class="cls-4" d="M80.54,15.86a64.72,64.72,0,1,1-45.76,19,64.51,64.51,0,0,1,45.76-19M80.54,0a80.58,80.58,0,0,0-57,137.55,80.58,80.58,0,0,0,114-114A80.06,80.06,0,0,0,80.54,0Z"/></g><path class="cls-5" d="M94.7,82.79c-2.58-4.05-8.07-9.66-13.79-13.58C69.85,61.63,57.14,72.69,65.09,83.9c3.37,4.74,9.14,8.7,18.79,9.93C94.84,95.23,98.73,89.08,94.7,82.79Zm0,0c-2.58-4.05-8.07-9.66-13.79-13.58C69.85,61.63,57.14,72.69,65.09,83.9c3.37,4.74,9.14,8.7,18.79,9.93C94.84,95.23,98.73,89.08,94.7,82.79Zm0,0c-2.58-4.05-8.07-9.66-13.79-13.58C69.85,61.63,57.14,72.69,65.09,83.9c3.37,4.74,9.14,8.7,18.79,9.93C94.84,95.23,98.73,89.08,94.7,82.79Zm47.2,9.87c-16.8,17-39.18,22.77-66.69,13.38C49,97.11,47.27,68.59,61.45,60.4,81.51,48.8,96.13,72.51,118.87,71c11.79-.79,19.82-2.26,25.26-2.51a64.27,64.27,0,0,0-12.95-28.2c-8.57,10.89-43.76,11.53-45.83-3.64-1-7.56,4.71-13.88,17.61-16.79A64.38,64.38,0,0,0,84,16C72.1,19.72,63.62,29.08,56.68,40.87c-9.41,15.93-29,28-34.51,11.73a64.45,64.45,0,0,0-6.26,24.62c.51-.28,1.06-.55,1.65-.82,11.13-5.09,18.38-1.16,19.88,3.34C39,84.51,36.33,91.67,29,96.12a23.09,23.09,0,0,1-10.27,3.7,64,64,0,0,0,7.35,15.76c5.21-5.09,14.47-7.45,24.36-7.65,10.77-.21,22.39,9.9,11.6,14.77-5.22,2.35-12.16,7.62-15.59,12.92a64.39,64.39,0,0,0,17.24,7.46C62.38,132.7,80.51,121,92.08,120.23c19.27-1.28,29.22,4.85,37.3,2.8A64.24,64.24,0,0,0,144.6,89.8C143.76,90.74,142.85,91.69,141.9,92.66ZM94.7,82.79c-2.58-4.05-8.07-9.66-13.79-13.58C69.85,61.63,57.14,72.69,65.09,83.9c3.37,4.74,9.14,8.7,18.79,9.93C94.84,95.23,98.73,89.08,94.7,82.79Zm0,0c-2.58-4.05-8.07-9.66-13.79-13.58C69.85,61.63,57.14,72.69,65.09,83.9c3.37,4.74,9.14,8.7,18.79,9.93C94.84,95.23,98.73,89.08,94.7,82.79Zm0,0c-2.58-4.05-8.07-9.66-13.79-13.58C69.85,61.63,57.14,72.69,65.09,83.9c3.37,4.74,9.14,8.7,18.79,9.93C94.84,95.23,98.73,89.08,94.7,82.79Zm0,0c-2.58-4.05-8.07-9.66-13.79-13.58C69.85,61.63,57.14,72.69,65.09,83.9c3.37,4.74,9.14,8.7,18.79,9.93C94.84,95.23,98.73,89.08,94.7,82.79Z"/></g></g></g></svg>