<svg xmlns="http://www.w3.org/2000/svg" xmlns:xlink="http://www.w3.org/1999/xlink" viewBox="0 0 171.74 171.74"><defs><style>.cls-1{isolation:isolate;}.cls-2{fill:url(#linear-gradient);}.cls-10,.cls-12,.cls-16,.cls-20,.cls-3{opacity:0.2;}.cls-4{fill:url(#linear-gradient-2);}.cls-5{opacity:0.5;}.cls-6{opacity:0.2;mix-blend-mode:overlay;}.cls-7{fill:url(#linear-gradient-3);}.cls-14,.cls-8{opacity:0.3;}.cls-10,.cls-12,.cls-14,.cls-16,.cls-18,.cls-20,.cls-22,.cls-24,.cls-26,.cls-28,.cls-8{mix-blend-mode:multiply;}.cls-8{fill:url(#linear-gradient-4);}.cls-9{fill:url(#linear-gradient-5);}.cls-10{fill:url(#linear-gradient-6);}.cls-11{fill:url(#linear-gradient-7);}.cls-12{fill:url(#linear-gradient-8);}.cls-13{fill:url(#linear-gradient-9);}.cls-14{fill:url(#linear-gradient-10);}.cls-15{fill:url(#linear-gradient-11);}.cls-16{fill:url(#linear-gradient-12);}.cls-17{fill:url(#linear-gradient-13);}.cls-18{opacity:0.1;fill:url(#linear-gradient-14);}.cls-19{fill:url(#linear-gradient-15);}.cls-20{fill:url(#linear-gradient-16);}.cls-21{fill:url(#linear-gradient-17);}.cls-22,.cls-24,.cls-26,.cls-28{opacity:0.4;}.cls-22{fill:url(#linear-gradient-18);}.cls-23{fill:url(#linear-gradient-19);}.cls-24{fill:url(#linear-gradient-20);}.cls-25{fill:url(#linear-gradient-21);}.cls-26{fill:url(#linear-gradient-22);}.cls-27{fill:url(#linear-gradient-23);}.cls-28{fill:url(#linear-gradient-24);}</style><linearGradient id="linear-gradient" x1="18.42" y1="124.81" x2="153.32" y2="46.93" gradientUnits="userSpaceOnUse"><stop offset="0" stop-color="#f2f2f2"/><stop offset="0.2" stop-color="#e8e8e8"/><stop offset="1" stop-color="#8a8a8a"/></linearGradient><linearGradient id="linear-gradient-2" x1="0" y1="85.87" x2="171.74" y2="85.87" xlink:href="#linear-gradient"/><linearGradient id="linear-gradient-3" x1="130.84" y1="59.68" x2="146.88" y2="49.2" gradientUnits="userSpaceOnUse"><stop offset="0" stop-color="#010101"/><stop offset="0.21" stop-color="#323232"/><stop offset="0.69" stop-color="#acacac"/><stop offset="1" stop-color="#fff"/></linearGradient><linearGradient id="linear-gradient-4" x1="131.7" y1="58.6" x2="146.09" y2="50.25" gradientTransform="translate(52.38 -67.08) rotate(33.15)" gradientUnits="userSpaceOnUse"><stop offset="0" stop-color="#6f256e"/><stop offset="0.42" stop-color="#af86ae"/><stop offset="0.82" stop-color="#e8dde8"/><stop offset="1" stop-color="#fff"/></linearGradient><linearGradient id="linear-gradient-5" x1="89.32" y1="51.06" x2="90.18" y2="39.08" xlink:href="#linear-gradient-3"/><linearGradient id="linear-gradient-6" x1="89.45" y1="50.68" x2="90.04" y2="39.6" gradientTransform="translate(128.24 -47.69) rotate(85.87)" xlink:href="#linear-gradient-4"/><linearGradient id="linear-gradient-7" x1="67.75" y1="14.24" x2="71.66" y2="32.56" xlink:href="#linear-gradient-3"/><linearGradient id="linear-gradient-8" x1="67.91" y1="14.85" x2="71.39" y2="31.48" gradientTransform="translate(6.42 -14.03) rotate(12.05)" xlink:href="#linear-gradient-4"/><linearGradient id="linear-gradient-9" x1="70.93" y1="91.64" x2="80.35" y2="68.72" xlink:href="#linear-gradient-3"/><linearGradient id="linear-gradient-10" x1="71.35" y1="90.87" x2="79.89" y2="69.58" gradientTransform="translate(121.04 -20.26) rotate(67.65)" xlink:href="#linear-gradient-4"/><linearGradient id="linear-gradient-11" x1="138.63" y1="101.37" x2="153.02" y2="107.11" xlink:href="#linear-gradient-3"/><linearGradient id="linear-gradient-12" x1="138.97" y1="101.5" x2="152.32" y2="106.83" gradientTransform="translate(188.55 -69.84) rotate(68.23)" xlink:href="#linear-gradient-4"/><linearGradient id="linear-gradient-13" x1="113.35" y1="24.85" x2="117.33" y2="16.93" xlink:href="#linear-gradient-3"/><linearGradient id="linear-gradient-14" x1="113.8" y1="24.32" x2="116.99" y2="17.2" gradientTransform="translate(82.14 -91.53) rotate(63.28)" xlink:href="#linear-gradient-4"/><linearGradient id="linear-gradient-15" x1="83.74" y1="132.92" x2="87.99" y2="116.84" xlink:href="#linear-gradient-3"/><linearGradient id="linear-gradient-16" x1="84.08" y1="132.29" x2="87.67" y2="117.41" gradientTransform="translate(184.68 9.97) rotate(75.21)" xlink:href="#linear-gradient-4"/><linearGradient id="linear-gradient-17" x1="112.03" y1="89.49" x2="128.05" y2="76.23" xlink:href="#linear-gradient-3"/><linearGradient id="linear-gradient-18" x1="112.94" y1="88.54" x2="127.2" y2="77.14" gradientTransform="translate(80.4 -57.51) rotate(39.61)" xlink:href="#linear-gradient-4"/><linearGradient id="linear-gradient-19" x1="21.95" y1="50.91" x2="37.84" y2="59.97" xlink:href="#linear-gradient-3"/><linearGradient id="linear-gradient-20" x1="22.64" y1="51.3" x2="36.79" y2="59.38" gradientTransform="translate(63.25 2.02) rotate(60.32)" xlink:href="#linear-gradient-4"/><linearGradient id="linear-gradient-21" x1="118.87" y1="153.35" x2="111.98" y2="139.01" xlink:href="#linear-gradient-3"/><linearGradient id="linear-gradient-22" x1="118.29" y1="152.59" x2="112.46" y2="139.53" gradientTransform="translate(74.75 -35.58) rotate(25.68)" xlink:href="#linear-gradient-4"/><linearGradient id="linear-gradient-23" x1="33.87" y1="131.24" x2="55.28" y2="109.84" xlink:href="#linear-gradient-3"/><linearGradient id="linear-gradient-24" x1="34.69" y1="130.42" x2="54.45" y2="110.66" gradientTransform="translate(98.29 3.79) rotate(45)" xlink:href="#linear-gradient-4"/></defs><title>moon</title><g class="cls-1"><g id="Layer_2" data-name="Layer 2"><g id="Layer_10" data-name="Layer 10"><circle class="cls-2" cx="85.87" cy="85.87" r="77.87"/><g class="cls-3"><path class="cls-4" d="M85.87,8A77.87,77.87,0,1,1,8,85.87,77.87,77.87,0,0,1,85.87,8m0-8a85.87,85.87,0,1,0,85.87,85.87A86,86,0,0,0,85.87,0Z"/></g><g class="cls-5"><g class="cls-6"><path class="cls-7" d="M134.23,41.47c3.86,0,8.61,3.11,11.94,8.2,4.35,6.65,4.6,14.19.57,16.83a5.85,5.85,0,0,1-3.24.91c-3.86,0-8.62-3.1-11.95-8.19C127.2,52.56,127,45,131,42.39a5.84,5.84,0,0,1,3.24-.92m0-.84h0a6.65,6.65,0,0,0-3.71,1c-2.21,1.44-3.36,4.16-3.24,7.64a20.82,20.82,0,0,0,3.56,10.36c3.41,5.21,8.37,8.58,12.66,8.58a6.65,6.65,0,0,0,3.7-1.06c2.21-1.44,3.36-4.15,3.24-7.64a20.73,20.73,0,0,0-3.56-10.36c-3.41-5.21-8.37-8.57-12.65-8.57Z"/></g><ellipse class="cls-8" cx="138.86" cy="54.44" rx="8.73" ry="14.4" transform="matrix(0.84, -0.55, 0.55, 0.84, -7.17, 84.81)"/><g class="cls-6"><path class="cls-9" d="M89.5,39.53l.65,0c3.86.28,6.8,3,6.58,6-.21,2.87-3.16,5-6.73,5-.22,0-.43,0-.65,0-3.85-.28-6.8-3-6.58-6,.21-2.88,3.16-5,6.73-5m0-.47h0c-3.88,0-7,2.35-7.2,5.47-.24,3.31,2.91,6.23,7,6.53.23,0,.45,0,.68,0,3.88,0,7-2.36,7.2-5.48a5.45,5.45,0,0,0-1.91-4.43,8.51,8.51,0,0,0-5.11-2.1l-.68,0Z"/></g><ellipse class="cls-10" cx="89.75" cy="45.07" rx="5.53" ry="7" transform="translate(38.33 131.34) rotate(-85.87)"/><g class="cls-6"><path class="cls-11" d="M74.62,14.4c6.2,0,11,2,11.7,5.46,1,4.56-5.67,9.86-14.85,11.81a32,32,0,0,1-6.69.73c-6.19,0-11-2-11.7-5.45-1-4.57,5.68-9.86,14.86-11.82a31.87,31.87,0,0,1,6.68-.73m0-.91h0a33.51,33.51,0,0,0-6.87.75C57.93,16.34,51.1,22,52.2,27.14c.8,3.75,5.74,6.17,12.58,6.17a33,33,0,0,0,6.88-.75,28.62,28.62,0,0,0,11.61-5.11c3.08-2.46,4.48-5.22,3.94-7.78-.8-3.75-5.74-6.18-12.59-6.18Z"/></g><ellipse class="cls-12" cx="69.7" cy="23.4" rx="16.99" ry="8.46" transform="translate(-3.35 15.06) rotate(-12.05)"/><g class="cls-6"><path class="cls-13" d="M74.6,68.49A14.29,14.29,0,0,1,80,69.57c6.59,2.71,10,9.66,7.57,15.52-1.76,4.27-6.11,6.78-10.89,6.78a14.06,14.06,0,0,1-5.4-1.08c-6.59-2.71-10-9.65-7.57-15.51,1.75-4.27,6.11-6.79,10.89-6.79m0-.92h0a12.41,12.41,0,0,0-11.74,7.36c-2.6,6.32,1,13.81,8.07,16.71a15.13,15.13,0,0,0,5.75,1.15,12.43,12.43,0,0,0,11.74-7.35c2.6-6.32-1-13.82-8.07-16.72a15.13,15.13,0,0,0-5.75-1.15Z"/></g><ellipse class="cls-14" cx="75.64" cy="80.18" rx="11.47" ry="12.9" transform="translate(-27.28 119.66) rotate(-67.65)"/><g class="cls-6"><path class="cls-15" d="M148.6,92.89a4.62,4.62,0,0,1,1.64.3c3.61,1.45,4.57,7.57,2.14,13.67-2.09,5.22-6,8.74-9.33,8.74a4.35,4.35,0,0,1-1.64-.31c-3.62-1.45-4.58-7.57-2.14-13.67,2.08-5.22,6-8.73,9.33-8.73m0-.7h0c-3.72,0-7.82,3.78-10,9.18-2.62,6.55-1.51,12.95,2.53,14.56a5,5,0,0,0,1.89.36c3.71,0,7.81-3.77,10-9.18,2.62-6.55,1.51-13-2.53-14.56a5,5,0,0,0-1.89-.36Z"/></g><ellipse class="cls-16" cx="145.82" cy="104.24" rx="11.89" ry="7.06" transform="translate(-5.06 201) rotate(-68.23)"/><g class="cls-6"><path class="cls-17" d="M110.55,15.52a15.56,15.56,0,0,1,6.58,1.81c4.4,2.22,7.17,5.61,6.19,7.57-.46.91-1.63,1.35-3.19,1.35a15.38,15.38,0,0,1-6.58-1.81c-4.41-2.21-7.18-5.6-6.19-7.57.46-.9,1.63-1.35,3.19-1.35m0-.45h0c-1.8,0-3.07.57-3.59,1.6-1.12,2.22,1.69,5.81,6.39,8.18a15.93,15.93,0,0,0,6.78,1.85c1.79,0,3.07-.56,3.59-1.59s.16-2.61-1.13-4.18a16.25,16.25,0,0,0-5.26-4,16,16,0,0,0-6.78-1.86Z"/></g><ellipse class="cls-18" cx="115.34" cy="20.89" rx="3.98" ry="8.93" transform="translate(44.82 114.52) rotate(-63.28)"/><g class="cls-6"><path class="cls-19" d="M85.36,117.11a9.65,9.65,0,0,1,2.47.33c4.63,1.22,7.49,5.54,6.41,9.65a7.88,7.88,0,0,1-7.87,5.56,9.65,9.65,0,0,1-2.47-.33c-4.62-1.22-7.49-5.54-6.41-9.65a7.9,7.9,0,0,1,7.87-5.56m0-.61h0a8.52,8.52,0,0,0-8.46,6c-1.17,4.44,1.9,9.11,6.84,10.41a10.28,10.28,0,0,0,2.63.35,8.55,8.55,0,0,0,8.47-6,7.85,7.85,0,0,0-1.15-6.41,9.79,9.79,0,0,0-5.7-4,10.21,10.21,0,0,0-2.63-.34Z"/></g><ellipse class="cls-20" cx="85.87" cy="124.88" rx="7.7" ry="8.66" transform="translate(-56.8 176.01) rotate(-75.21)"/><g class="cls-6"><path class="cls-21" d="M118.42,72.22a11.94,11.94,0,0,1,9,4.51c4,4.8,3.88,11.43-.21,14.82a8.68,8.68,0,0,1-5.58,1.94,11.92,11.92,0,0,1-9-4.5c-4-4.8-3.88-11.44.21-14.82a8.61,8.61,0,0,1,5.57-2m0-.78h0a9.39,9.39,0,0,0-6.07,2.12c-4.42,3.66-4.56,10.8-.32,15.93a12.78,12.78,0,0,0,9.63,4.79,9.39,9.39,0,0,0,6.08-2.12c4.42-3.66,4.56-10.81.31-15.93a12.78,12.78,0,0,0-9.63-4.79Z"/></g><ellipse class="cls-22" cx="120.04" cy="82.86" rx="9.61" ry="11.28" transform="translate(-25.26 95.57) rotate(-39.61)"/><g class="cls-6"><path class="cls-23" d="M35.21,41.26a4.89,4.89,0,0,1,2.42.61c4,2.27,3.73,10.18-.54,17.67-3.49,6.13-8.6,10.08-12.52,10.08A4.82,4.82,0,0,1,22.16,69c-4-2.27-3.74-10.18.53-17.67,3.5-6.13,8.6-10.08,12.52-10.08m0-.86h0c-4.35,0-9.68,4.22-13.26,10.51-4.58,8-4.67,16.31-.22,18.85a5.66,5.66,0,0,0,2.84.72c4.35,0,9.68-4.23,13.27-10.51a25.05,25.05,0,0,0,3.47-11.2c.11-3.67-1.05-6.39-3.26-7.65a5.66,5.66,0,0,0-2.84-.72Z"/></g><ellipse class="cls-24" cx="29.89" cy="55.44" rx="15.62" ry="8.29" transform="translate(-33.08 53.95) rotate(-60.32)"/><g class="cls-6"><path class="cls-25" d="M122.19,137.18c3,0,5.33.93,6.21,2.76,1.72,3.57-2.69,9.27-9.86,12.72a23.66,23.66,0,0,1-9.88,2.51c-3,0-5.34-.92-6.22-2.75-1.72-3.58,2.7-9.27,9.87-12.72a23.65,23.65,0,0,1,9.88-2.52m0-.76h0A24.39,24.39,0,0,0,112,139c-7.67,3.69-12.16,9.72-10.23,13.74,1,2.06,3.44,3.19,6.91,3.19a24.42,24.42,0,0,0,10.21-2.59c7.67-3.69,12.16-9.73,10.23-13.75-1-2-3.45-3.18-6.91-3.18Z"/></g><ellipse class="cls-26" cx="115.42" cy="146.18" rx="14.4" ry="7.19" transform="translate(-51.95 64.46) rotate(-25.68)"/><g class="cls-6"><path class="cls-27" d="M41.56,105a18.57,18.57,0,0,1,12.89,5.68c6.64,6.63,7.59,16.44,2.14,21.89a12.51,12.51,0,0,1-9,3.54,18.58,18.58,0,0,1-12.9-5.67c-6.63-6.64-7.59-16.44-2.13-21.9a12.51,12.51,0,0,1,9-3.54m0-1.16v0h0a13.77,13.77,0,0,0-9.83,3.88c-5.9,5.9-4.94,16.46,2.14,23.54a19.71,19.71,0,0,0,13.72,6,13.73,13.73,0,0,0,9.82-3.88,13.91,13.91,0,0,0,3.8-11.44,20,20,0,0,0-5.93-12.1,19.75,19.75,0,0,0-13.72-6Z"/></g><ellipse class="cls-28" cx="44.57" cy="120.54" rx="13.97" ry="16.99" transform="translate(-72.18 66.82) rotate(-45)"/></g></g></g></g></svg>