<?xml version="1.0" encoding="utf-8"?>
<!-- Generator: Adobe Illustrator 23.0.0, SVG Export Plug-In . SVG Version: 6.00 Build 0)  -->
<svg version="1.1" id="Layer_1" xmlns="http://www.w3.org/2000/svg" xmlns:xlink="http://www.w3.org/1999/xlink" x="0px" y="0px"
	 viewBox="0 0 189.7 189.7" style="enable-background:new 0 0 189.7 189.7;" xml:space="preserve">
<style type="text/css">
	.st0{fill:url(#SVGID_1_);}
	.st1{opacity:0.2;}
	.st2{fill:url(#SVGID_2_);}
	.st3{opacity:0.5;}
	.st4{fill:url(#SVGID_3_);}
	.st5{opacity:0.3;fill:url(#SVGID_4_);enable-background:new    ;}
	.st6{fill:url(#SVGID_5_);}
	.st7{opacity:0.3;fill:url(#SVGID_6_);enable-background:new    ;}
	.st8{fill:url(#SVGID_7_);}
	.st9{opacity:0.3;fill:url(#SVGID_8_);enable-background:new    ;}
	.st10{fill:url(#SVGID_9_);}
	.st11{opacity:0.3;fill:url(#SVGID_10_);enable-background:new    ;}
	.st12{fill:url(#SVGID_11_);}
	.st13{opacity:0.3;fill:url(#SVGID_12_);enable-background:new    ;}
	.st14{fill:url(#SVGID_13_);}
	.st15{opacity:0.3;fill:url(#SVGID_14_);enable-background:new    ;}
	.st16{fill:url(#SVGID_15_);}
	.st17{opacity:0.3;fill:url(#SVGID_16_);enable-background:new    ;}
	.st18{fill:url(#SVGID_17_);}
	.st19{opacity:0.3;fill:url(#SVGID_18_);enable-background:new    ;}
	.st20{fill:url(#SVGID_19_);}
	.st21{opacity:0.3;fill:url(#SVGID_20_);enable-background:new    ;}
	.st22{fill:url(#SVGID_21_);}
	.st23{opacity:0.3;fill:url(#SVGID_22_);enable-background:new    ;}
	.st24{fill:url(#SVGID_23_);}
	.st25{opacity:0.3;fill:url(#SVGID_24_);enable-background:new    ;}
</style>
<title>moon</title>
<g>
	<g>
		<g id="Layer_10">
			
				<linearGradient id="SVGID_1_" gradientUnits="userSpaceOnUse" x1="39.8164" y1="957.9761" x2="149.9836" y2="847.8089" gradientTransform="matrix(1 0 0 1 0 -807.9925)">
				<stop  offset="0" style="stop-color:#F2F2F2"/>
				<stop  offset="0.2" style="stop-color:#CED5E0"/>
				<stop  offset="1" style="stop-color:#595969"/>
			</linearGradient>
			<circle class="st0" cx="94.9" cy="94.9" r="77.9"/>
			<g class="st1">
				
					<linearGradient id="SVGID_2_" gradientUnits="userSpaceOnUse" x1="1.8" y1="-728.9" x2="188" y2="-728.9" gradientTransform="matrix(1 0 0 -1 0 -634)">
					<stop  offset="0" style="stop-color:#F2F2F2"/>
					<stop  offset="0.2" style="stop-color:#E8E8E8"/>
					<stop  offset="1" style="stop-color:#8A8A8A"/>
				</linearGradient>
				<path class="st2" d="M94.9,17c43,0,77.9,34.9,77.9,77.9s-34.9,77.9-77.9,77.9S17,137.9,17,94.9S51.9,17,94.9,17L94.9,17
					 M94.9,1.8C43.4,1.8,1.8,43.4,1.8,94.9S43.4,188,94.9,188S188,146.4,188,94.9C187.9,43.5,146.3,1.9,94.9,1.8z"/>
			</g>
			<g class="st3">
				<g class="st3">
					
						<linearGradient id="SVGID_3_" gradientUnits="userSpaceOnUse" x1="154.8802" y1="-690.3698" x2="140.8907" y2="-704.3593" gradientTransform="matrix(1 0 0 -1 0 -634)">
						<stop  offset="0" style="stop-color:#F2F2F2"/>
						<stop  offset="0.2" style="stop-color:#CED5E0"/>
						<stop  offset="1" style="stop-color:#595959"/>
					</linearGradient>
					<path class="st4" d="M143.2,50.5c3.9,0,8.6,3.1,11.9,8.2c4.4,6.7,4.6,14.2,0.6,16.8c-1,0.6-2.1,0.9-3.2,0.9
						c-3.9,0-8.6-3.1-11.9-8.2c-4.4-6.7-4.6-14.2-0.6-16.8C141,50.8,142.1,50.5,143.2,50.5 M143.2,49.6L143.2,49.6
						c-1.3,0-2.6,0.3-3.7,1c-2.2,1.4-3.4,4.2-3.2,7.6c0.2,3.7,1.5,7.3,3.6,10.4c3.4,5.2,8.4,8.6,12.7,8.6c1.3,0,2.6-0.3,3.7-1.1
						c2.2-1.4,3.4-4.2,3.2-7.6c-0.2-3.7-1.5-7.3-3.6-10.4C152.5,52.9,147.5,49.6,143.2,49.6L143.2,49.6z"/>
				</g>
				
					<linearGradient id="SVGID_4_" gradientUnits="userSpaceOnUse" x1="133.8492" y1="-698.3534" x2="148.2392" y2="-690.0033" gradientTransform="matrix(1.004 -1.143478e-03 -1.143478e-03 -1.004 5.5073 -633.3702)">
					<stop  offset="0" style="stop-color:#000000"/>
					<stop  offset="0.82" style="stop-color:#E8DDE8"/>
					<stop  offset="1" style="stop-color:#FFFFFF"/>
				</linearGradient>
				<path class="st5" d="M140,51.3c4.1-2.7,10.9,0.6,15.3,7.3c4.4,6.7,4.6,14.2,0.6,16.9c-4.1,2.7-10.9-0.6-15.3-7.3
					C136.2,61.6,135.9,54,140,51.3z"/>
				<g class="st3">
					
						<linearGradient id="SVGID_5_" gradientUnits="userSpaceOnUse" x1="103.4781" y1="-683.3506" x2="94.0527" y2="-692.7759" gradientTransform="matrix(1 0 0 -1 0 -634)">
						<stop  offset="0" style="stop-color:#F2F2F2"/>
						<stop  offset="0.2" style="stop-color:#CED5E0"/>
						<stop  offset="1" style="stop-color:#595959"/>
					</linearGradient>
					<path class="st6" d="M98.5,48.5h0.7c3.9,0.3,6.8,3,6.6,6c-0.2,2.9-3.2,5-6.7,5c-0.2,0-0.4,0-0.7,0c-3.8-0.3-6.8-3-6.6-6
						C92,50.6,94.9,48.5,98.5,48.5 M98.5,48.1L98.5,48.1c-3.9,0-7,2.3-7.2,5.5c-0.2,3.3,2.9,6.2,7,6.5c0.2,0,0.4,0,0.7,0
						c3.9,0,7-2.4,7.2-5.5c0.1-1.7-0.6-3.3-1.9-4.4c-1.4-1.2-3.2-2-5.1-2.1H98.5L98.5,48.1z"/>
				</g>
				
					<linearGradient id="SVGID_6_" gradientUnits="userSpaceOnUse" x1="98.5009" y1="-693.6863" x2="99.0909" y2="-682.6062" gradientTransform="matrix(1 0 0 -1 -3.560664e-04 -634.0016)">
					<stop  offset="0" style="stop-color:#000000"/>
					<stop  offset="0.82" style="stop-color:#E8DDE8"/>
					<stop  offset="1" style="stop-color:#FFFFFF"/>
				</linearGradient>
				<path class="st7" d="M91.8,53.6c0.2-3,3.5-5.3,7.4-5s6.8,3,6.6,6c-0.2,3-3.5,5.3-7.4,5S91.5,56.6,91.8,53.6z"/>
				<g class="st3">
					
						<linearGradient id="SVGID_7_" gradientUnits="userSpaceOnUse" x1="89.9596" y1="-655.2091" x2="67.502" y2="-677.6667" gradientTransform="matrix(1 0 0 -1 0 -634)">
						<stop  offset="0" style="stop-color:#F2F2F2"/>
						<stop  offset="0.2" style="stop-color:#CED5E0"/>
						<stop  offset="1" style="stop-color:#595959"/>
					</linearGradient>
					<path class="st8" d="M83.6,23.4c6.2,0,11,2,11.7,5.5c1,4.6-5.7,9.9-14.8,11.8c-2.2,0.5-4.4,0.7-6.7,0.7c-6.2,0-11-2-11.7-5.5
						c-1-4.6,5.7-9.9,14.9-11.8C79.1,23.7,81.4,23.4,83.6,23.4 M83.6,22.5L83.6,22.5c-2.3,0-4.6,0.3-6.9,0.8
						c-9.8,2.1-16.6,7.8-15.5,12.9c0.8,3.8,5.7,6.2,12.6,6.2c2.3,0,4.6-0.3,6.9-0.8c4.2-0.8,8.2-2.6,11.6-5.1
						c3.1-2.5,4.5-5.2,3.9-7.8C95.4,24.9,90.5,22.5,83.6,22.5z"/>
				</g>
				
					<linearGradient id="SVGID_8_" gradientUnits="userSpaceOnUse" x1="76.9218" y1="-657.8521" x2="80.4018" y2="-674.4821" gradientTransform="matrix(1 0 0 -1 -4.353954e-04 -634.0011)">
					<stop  offset="0" style="stop-color:#000000"/>
					<stop  offset="0.82" style="stop-color:#E8DDE8"/>
					<stop  offset="1" style="stop-color:#FFFFFF"/>
				</linearGradient>
				<path class="st9" d="M76.9,24.1c9.2-2,17.4,0.2,18.4,4.7c1,4.6-5.7,9.9-14.8,11.8s-17.4-0.2-18.4-4.7S67.8,26.1,76.9,24.1z"/>
				<g class="st3">
					
						<linearGradient id="SVGID_9_" gradientUnits="userSpaceOnUse" x1="93.6348" y1="-714.3317" x2="75.7909" y2="-732.1757" gradientTransform="matrix(1 0 0 -1 0 -634)">
						<stop  offset="0" style="stop-color:#F2F2F2"/>
						<stop  offset="0.2" style="stop-color:#CED5E0"/>
						<stop  offset="1" style="stop-color:#595959"/>
					</linearGradient>
					<path class="st10" d="M83.6,77.5c1.9,0,3.7,0.4,5.4,1.1c6.6,2.7,10,9.7,7.6,15.5c-1.8,4.3-6.1,6.8-10.9,6.8
						c-1.9,0-3.7-0.4-5.4-1.1c-6.6-2.7-10-9.7-7.6-15.5C74.5,80,78.8,77.5,83.6,77.5 M83.6,76.6L83.6,76.6c-5-0.2-9.7,2.7-11.7,7.4
						c-2.6,6.3,1,13.8,8.1,16.7c1.8,0.8,3.8,1.1,5.8,1.2c5,0.2,9.7-2.7,11.7-7.3c2.6-6.3-1-13.8-8.1-16.7
						C87.5,77,85.6,76.6,83.6,76.6z"/>
				</g>
				
					<linearGradient id="SVGID_10_" gradientUnits="userSpaceOnUse" x1="80.3557" y1="-733.8745" x2="88.8962" y2="-712.5833" gradientTransform="matrix(1 0 0 -1 9.046817e-03 -633.9914)">
					<stop  offset="0" style="stop-color:#000000"/>
					<stop  offset="0.82" style="stop-color:#E8DDE8"/>
					<stop  offset="1" style="stop-color:#FFFFFF"/>
				</linearGradient>
				<path class="st11" d="M72.7,84.3c2.4-5.9,9.7-8.4,16.3-5.7c6.6,2.7,10,9.7,7.6,15.5c-2.4,5.9-9.7,8.4-16.3,5.7
					S70.3,90.1,72.7,84.3z"/>
				<g class="st3">
					
						<linearGradient id="SVGID_11_" gradientUnits="userSpaceOnUse" x1="163.2882" y1="-738.8119" x2="146.3505" y2="-755.7495" gradientTransform="matrix(1 0 0 -1 0 -634)">
						<stop  offset="0" style="stop-color:#F2F2F2"/>
						<stop  offset="0.2" style="stop-color:#CED5E0"/>
						<stop  offset="1" style="stop-color:#595959"/>
					</linearGradient>
					<path class="st12" d="M157.6,101.9c0.6,0,1.1,0.1,1.6,0.3c3.6,1.4,4.6,7.6,2.1,13.7c-2.1,5.2-6,8.7-9.3,8.7
						c-0.6,0-1.1-0.1-1.6-0.3c-3.6-1.4-4.6-7.6-2.1-13.7C150.4,105.4,154.3,101.9,157.6,101.9 M157.6,101.2L157.6,101.2
						c-3.7,0-7.8,3.8-10,9.2c-2.6,6.6-1.5,12.9,2.5,14.6c0.6,0.2,1.2,0.4,1.9,0.4c3.7,0,7.8-3.8,10-9.2c2.6-6.6,1.5-13-2.5-14.6
						C158.9,101.3,158.2,101.2,157.6,101.2z"/>
				</g>
				
					<linearGradient id="SVGID_12_" gradientUnits="userSpaceOnUse" x1="147.9703" y1="-744.5125" x2="161.3203" y2="-749.8425" gradientTransform="matrix(1 0 0 -1 1.070399e-02 -634.005)">
					<stop  offset="0" style="stop-color:#000000"/>
					<stop  offset="0.82" style="stop-color:#E8DDE8"/>
					<stop  offset="1" style="stop-color:#FFFFFF"/>
				</linearGradient>
				<path class="st13" d="M148.3,110.6c2.4-6.1,7.3-9.9,11-8.4c3.6,1.4,4.6,7.6,2.1,13.7c-2.4,6.1-7.3,9.9-11,8.4
					C146.8,122.8,145.8,116.7,148.3,110.6z"/>
				<g class="st3">
					
						<linearGradient id="SVGID_13_" gradientUnits="userSpaceOnUse" x1="128.0328" y1="-660.3173" x2="120.7549" y2="-667.5951" gradientTransform="matrix(1 0 0 -1 0 -634)">
						<stop  offset="0" style="stop-color:#F2F2F2"/>
						<stop  offset="0.2" style="stop-color:#CED5E0"/>
						<stop  offset="1" style="stop-color:#595959"/>
					</linearGradient>
					<path class="st14" d="M119.6,24.5c2.3,0.1,4.5,0.7,6.6,1.8c4.4,2.2,7.2,5.6,6.2,7.6c-0.5,0.9-1.6,1.4-3.2,1.4
						c-2.3-0.1-4.5-0.7-6.6-1.8c-4.4-2.2-7.2-5.6-6.2-7.6C116.8,25,118,24.5,119.6,24.5 M119.6,24.1L119.6,24.1
						c-1.8,0-3.1,0.6-3.6,1.6c-1.1,2.2,1.7,5.8,6.4,8.2c2.1,1.1,4.4,1.7,6.8,1.9c1.8,0,3.1-0.6,3.6-1.6s0.2-2.6-1.1-4.2
						c-1.5-1.7-3.3-3-5.3-4C124.2,24.8,121.9,24.2,119.6,24.1z"/>
				</g>
				
					<linearGradient id="SVGID_14_" gradientUnits="userSpaceOnUse" x1="122.8774" y1="-667.3568" x2="126.0674" y2="-660.2368" gradientTransform="matrix(1 0 0 -1 -3.243290e-03 -634.0033)">
					<stop  offset="0" style="stop-color:#000000"/>
					<stop  offset="0.82" style="stop-color:#E8DDE8"/>
					<stop  offset="1" style="stop-color:#FFFFFF"/>
				</linearGradient>
				<path class="st15" d="M116.4,25.9c1-2,5.4-1.8,9.8,0.5c4.4,2.2,7.2,5.6,6.2,7.6s-5.4,1.8-9.8-0.5
					C118.1,31.2,115.4,27.8,116.4,25.9z"/>
				<g class="st3">
					
						<linearGradient id="SVGID_15_" gradientUnits="userSpaceOnUse" x1="100.9197" y1="-761.8303" x2="88.8006" y2="-773.9494" gradientTransform="matrix(1 0 0 -1 0 -634)">
						<stop  offset="0" style="stop-color:#F2F2F2"/>
						<stop  offset="0.2" style="stop-color:#CED5E0"/>
						<stop  offset="1" style="stop-color:#595959"/>
					</linearGradient>
					<path class="st16" d="M94.4,126.1c0.8,0,1.7,0.1,2.5,0.3c4.6,1.2,7.5,5.5,6.4,9.7c-1.1,3.4-4.3,5.7-7.9,5.6
						c-0.8,0-1.7-0.1-2.5-0.3c-4.6-1.2-7.5-5.5-6.4-9.7C87.5,128.2,90.8,126,94.4,126.1 M94.4,125.5L94.4,125.5
						c-3.9-0.1-7.3,2.3-8.5,6c-1.2,4.4,1.9,9.1,6.8,10.4c0.9,0.2,1.7,0.3,2.6,0.4c3.9,0.1,7.3-2.3,8.5-6c0.6-2.2,0.1-4.5-1.2-6.4
						c-1.3-2-3.4-3.4-5.7-4C96.1,125.6,95.2,125.5,94.4,125.5L94.4,125.5z"/>
				</g>
				
					<linearGradient id="SVGID_16_" gradientUnits="userSpaceOnUse" x1="93.0944" y1="-775.2964" x2="96.6844" y2="-760.4164" gradientTransform="matrix(1 0 0 -1 -1.576434e-02 -634.0061)">
					<stop  offset="0" style="stop-color:#000000"/>
					<stop  offset="0.82" style="stop-color:#E8DDE8"/>
					<stop  offset="1" style="stop-color:#FFFFFF"/>
				</linearGradient>
				<path class="st17" d="M86.5,131.7c1.1-4.1,5.7-6.5,10.3-5.2s7.5,5.5,6.4,9.7c-1.1,4.1-5.7,6.5-10.3,5.2
					C88.3,140.1,85.4,135.8,86.5,131.7z"/>
				<g class="st3">
					
						<linearGradient id="SVGID_17_" gradientUnits="userSpaceOnUse" x1="136.401" y1="-718.399" x2="121.6507" y2="-733.1493" gradientTransform="matrix(1 0 0 -1 0 -634)">
						<stop  offset="0" style="stop-color:#F2F2F2"/>
						<stop  offset="0.2" style="stop-color:#CED5E0"/>
						<stop  offset="1" style="stop-color:#595959"/>
					</linearGradient>
					<path class="st18" d="M127.4,81.2c3.5,0.1,6.8,1.8,9,4.5c4,4.8,3.9,11.4-0.2,14.8c-1.6,1.3-3.6,2-5.6,1.9
						c-3.5-0.1-6.8-1.7-9-4.5c-4-4.8-3.9-11.4,0.2-14.8C123.4,81.9,125.4,81.2,127.4,81.2 M127.4,80.4L127.4,80.4
						c-2.2,0-4.4,0.7-6.1,2.1c-4.4,3.7-4.6,10.8-0.3,15.9c2.3,2.9,5.9,4.7,9.6,4.8c2.2,0,4.4-0.7,6.1-2.1c4.4-3.7,4.6-10.8,0.3-15.9
						C134.7,82.2,131.2,80.5,127.4,80.4z"/>
				</g>
				
					<linearGradient id="SVGID_18_" gradientUnits="userSpaceOnUse" x1="121.9736" y1="-731.5812" x2="136.2336" y2="-720.1811" gradientTransform="matrix(1 0 0 -1 1.433212e-02 -633.9955)">
					<stop  offset="0" style="stop-color:#000000"/>
					<stop  offset="0.82" style="stop-color:#E8DDE8"/>
					<stop  offset="1" style="stop-color:#FFFFFF"/>
				</linearGradient>
				<path class="st19" d="M121.9,83.2c4.1-3.4,10.6-2.2,14.6,2.6c4,4.8,3.9,11.4-0.2,14.8s-10.6,2.2-14.6-2.6
					C117.7,93.2,117.8,86.6,121.9,83.2z"/>
				<g class="st3">
					
						<linearGradient id="SVGID_19_" gradientUnits="userSpaceOnUse" x1="50.2309" y1="-687.0192" x2="27.4798" y2="-709.7703" gradientTransform="matrix(1 0 0 -1 0 -634)">
						<stop  offset="0" style="stop-color:#F2F2F2"/>
						<stop  offset="0.2" style="stop-color:#CED5E0"/>
						<stop  offset="1" style="stop-color:#595959"/>
					</linearGradient>
					<path class="st20" d="M44.2,50.3c0.8,0,1.7,0.2,2.4,0.6c4,2.3,3.7,10.2-0.5,17.7c-3.5,6.1-8.6,10.1-12.5,10.1
						c-0.8,0-1.7-0.2-2.4-0.6c-4-2.3-3.7-10.2,0.5-17.7C35.2,54.2,40.3,50.3,44.2,50.3 M44.2,49.4L44.2,49.4
						c-4.4,0-9.7,4.2-13.3,10.5c-4.6,8-4.7,16.3-0.2,18.8c0.9,0.5,1.8,0.7,2.8,0.7c4.4,0,9.7-4.2,13.3-10.5c2-3.4,3.2-7.2,3.5-11.2
						c0.1-3.7-1-6.4-3.3-7.7C46.2,49.6,45.2,49.4,44.2,49.4z"/>
				</g>
				
					<linearGradient id="SVGID_20_" gradientUnits="userSpaceOnUse" x1="31.665" y1="-694.2667" x2="45.815" y2="-702.3466" gradientTransform="matrix(1 0 0 -1 -6.436409e-03 -634.0017)">
					<stop  offset="0" style="stop-color:#000000"/>
					<stop  offset="0.82" style="stop-color:#E8DDE8"/>
					<stop  offset="1" style="stop-color:#FFFFFF"/>
				</linearGradient>
				<path class="st21" d="M31.7,60.3c4.3-7.5,11-11.7,14.9-9.5s3.7,10.2-0.5,17.7s-11,11.7-14.9,9.5C27.2,75.7,27.4,67.8,31.7,60.3z
					"/>
				<g class="st3">
					
						<linearGradient id="SVGID_21_" gradientUnits="userSpaceOnUse" x1="134.7424" y1="-778.855" x2="114.1584" y2="-799.439" gradientTransform="matrix(1 0 0 -1 0 -634)">
						<stop  offset="0" style="stop-color:#F2F2F2"/>
						<stop  offset="0.2" style="stop-color:#CED5E0"/>
						<stop  offset="1" style="stop-color:#595959"/>
					</linearGradient>
					<path class="st22" d="M131.2,146.2c3,0,5.3,0.9,6.2,2.8c1.7,3.6-2.7,9.3-9.9,12.7c-3.1,1.5-6.4,2.4-9.9,2.5
						c-3,0-5.3-0.9-6.2-2.8c-1.7-3.6,2.7-9.3,9.9-12.7C124.4,147.2,127.8,146.3,131.2,146.2 M131.2,145.4L131.2,145.4
						c-3.5,0.1-7,1-10.2,2.6c-7.7,3.7-12.2,9.7-10.2,13.7c1,2.1,3.4,3.2,6.9,3.2c3.6-0.1,7-1,10.2-2.6c7.7-3.7,12.2-9.7,10.2-13.8
						C137.1,146.6,134.7,145.4,131.2,145.4L131.2,145.4z"/>
				</g>
				
					<linearGradient id="SVGID_22_" gradientUnits="userSpaceOnUse" x1="127.2809" y1="-795.5995" x2="121.4509" y2="-782.5395" gradientTransform="matrix(1 0 0 -1 -1.578806e-03 -633.9982)">
					<stop  offset="0" style="stop-color:#000000"/>
					<stop  offset="0.82" style="stop-color:#E8DDE8"/>
					<stop  offset="1" style="stop-color:#FFFFFF"/>
				</linearGradient>
				<path class="st23" d="M121.3,148.7c7.2-3.4,14.4-3.3,16.1,0.2c1.7,3.6-2.7,9.3-9.9,12.7c-7.2,3.4-14.4,3.3-16.1-0.2
					S114.1,152.2,121.3,148.7z"/>
				<g class="st3">
					
						<linearGradient id="SVGID_23_" gradientUnits="userSpaceOnUse" x1="64.2717" y1="-752.8282" x2="42.8688" y2="-774.2313" gradientTransform="matrix(1 0 0 -1 0 -634)">
						<stop  offset="0" style="stop-color:#F2F2F2"/>
						<stop  offset="0.2" style="stop-color:#CED5E0"/>
						<stop  offset="1" style="stop-color:#595959"/>
					</linearGradient>
					<path class="st24" d="M50.6,114c4.9,0.1,9.5,2.2,12.9,5.7c6.6,6.6,7.6,16.4,2.1,21.9c-2.4,2.3-5.6,3.6-9,3.5
						c-4.9-0.1-9.5-2.2-12.9-5.7c-6.6-6.6-7.6-16.4-2.1-21.9C44,115.2,47.2,113.9,50.6,114 M50.6,112.8L50.6,112.8L50.6,112.8
						c-3.7-0.1-7.2,1.3-9.8,3.9c-5.9,5.9-4.9,16.5,2.1,23.5c3.6,3.7,8.5,5.9,13.7,6c3.7,0.1,7.2-1.3,9.8-3.9c2.9-3,4.3-7.2,3.8-11.4
						c-0.5-4.6-2.6-8.9-5.9-12.1C60.7,115.1,55.7,113,50.6,112.8z"/>
				</g>
				
					<linearGradient id="SVGID_24_" gradientUnits="userSpaceOnUse" x1="43.6986" y1="-773.4016" x2="63.4551" y2="-753.645" gradientTransform="matrix(1 0 0 -1 1.459303e-03 -634.0016)">
					<stop  offset="0" style="stop-color:#000000"/>
					<stop  offset="0.82" style="stop-color:#E8DDE8"/>
					<stop  offset="1" style="stop-color:#FFFFFF"/>
				</linearGradient>
				<path class="st25" d="M41.6,117.5c5.5-5.5,15.3-4.5,21.9,2.1s7.6,16.4,2.1,21.9s-15.3,4.5-21.9-2.1
					C37.1,132.8,36.1,123,41.6,117.5z"/>
			</g>
		</g>
	</g>
</g>
</svg>
