<svg xmlns="http://www.w3.org/2000/svg" xmlns:xlink="http://www.w3.org/1999/xlink" viewBox="0 0 218.34 218.34"><defs><style>.cls-1{fill:none;}.cls-2{isolation:isolate;}.cls-3{fill:url(#linear-gradient);}.cls-4{opacity:0.2;mix-blend-mode:color-dodge;}.cls-5{fill:url(#linear-gradient-2);}.cls-6{clip-path:url(#clip-path);}.cls-7{mix-blend-mode:overlay;}.cls-10,.cls-11,.cls-12,.cls-13,.cls-14,.cls-15,.cls-16,.cls-17,.cls-8,.cls-9{fill:#fef2c9;}.cls-8{opacity:0.12;}.cls-9{opacity:0.11;}.cls-10{opacity:0.23;}.cls-11{opacity:0.15;}.cls-12{opacity:0.06;}.cls-13{opacity:0.14;}.cls-14{opacity:0.1;}.cls-15{opacity:0.16;}.cls-16{opacity:0.08;}.cls-17{opacity:0.21;}</style><linearGradient id="linear-gradient" x1="1046.69" y1="334.79" x2="919.8" y2="207.89" gradientTransform="translate(380.51 -874.07) rotate(90)" gradientUnits="userSpaceOnUse"><stop offset="0" stop-color="#fcdb6a"/><stop offset="0.2" stop-color="#fd944d"/><stop offset="1" stop-color="#6e1934"/></linearGradient><linearGradient id="linear-gradient-2" x1="31.97" y1="186.36" x2="186.36" y2="31.97" gradientTransform="matrix(1, 0, 0, 1, 0, 0)" xlink:href="#linear-gradient"/><clipPath id="clip-path"><circle class="cls-1" cx="109.17" cy="109.17" r="89.73"/></clipPath></defs><title>planet orange</title><g class="cls-2"><g id="Layer_2" data-name="Layer 2"><g id="Layer_1-2" data-name="Layer 1"><circle class="cls-3" cx="109.17" cy="109.17" r="89.73"/><g class="cls-4"><path class="cls-5" d="M109.17,19.44a89.73,89.73,0,1,1-89.73,89.73,89.72,89.72,0,0,1,89.73-89.73m0-19.44A109.17,109.17,0,0,0,32,186.36,109.17,109.17,0,1,0,186.36,32,108.48,108.48,0,0,0,109.17,0Z"/></g><g class="cls-6"><g class="cls-7"><rect class="cls-8" x="14.14" y="46.81" width="189.76" height="6.3"/><rect class="cls-9" x="14.44" y="14.74" width="189.76" height="21.88"/><rect class="cls-10" x="14.14" y="57.59" width="189.76" height="9.19"/><rect class="cls-11" x="14.14" y="73.05" width="189.76" height="5.75"/><rect class="cls-12" x="14.14" y="93.96" width="189.76" height="11.56"/><rect class="cls-13" x="14.14" y="111.77" width="189.76" height="6.71"/><rect class="cls-14" x="14.14" y="123.67" width="189.76" height="14.51"/><rect class="cls-15" x="14.14" y="147.6" width="189.76" height="5.87"/><rect class="cls-16" x="14.14" y="157.76" width="189.76" height="11.18"/><rect class="cls-17" x="14.14" y="173.1" width="189.76" height="6.92"/><rect class="cls-9" x="14.14" y="186.09" width="189.76" height="15.68"/></g></g></g></g></g></svg>