<svg xmlns="http://www.w3.org/2000/svg" xmlns:xlink="http://www.w3.org/1999/xlink" viewBox="0 0 200 200"><defs><style>.cls-1{isolation:isolate;}.cls-2{fill:url(#linear-gradient);}.cls-3{opacity:0.2;mix-blend-mode:color-dodge;}.cls-4{fill:url(#linear-gradient-2);}.cls-5{opacity:0.2;mix-blend-mode:overlay;}.cls-6{fill:url(#linear-gradient-3);}.cls-13,.cls-7{opacity:0.3;}.cls-11,.cls-13,.cls-15,.cls-17,.cls-19,.cls-21,.cls-23,.cls-25,.cls-27,.cls-7,.cls-9{mix-blend-mode:multiply;}.cls-7{fill:url(#linear-gradient-4);}.cls-8{fill:url(#linear-gradient-5);}.cls-11,.cls-15,.cls-19,.cls-9{opacity:0.2;}.cls-9{fill:url(#linear-gradient-6);}.cls-10{fill:url(#linear-gradient-7);}.cls-11{fill:url(#linear-gradient-8);}.cls-12{fill:url(#linear-gradient-9);}.cls-13{fill:url(#linear-gradient-10);}.cls-14{fill:url(#linear-gradient-11);}.cls-15{fill:url(#linear-gradient-12);}.cls-16{fill:url(#linear-gradient-13);}.cls-17{opacity:0.1;fill:url(#linear-gradient-14);}.cls-18{fill:url(#linear-gradient-15);}.cls-19{fill:url(#linear-gradient-16);}.cls-20{fill:url(#linear-gradient-17);}.cls-21,.cls-23,.cls-25,.cls-27{opacity:0.4;}.cls-21{fill:url(#linear-gradient-18);}.cls-22{fill:url(#linear-gradient-19);}.cls-23{fill:url(#linear-gradient-20);}.cls-24{fill:url(#linear-gradient-21);}.cls-25{fill:url(#linear-gradient-22);}.cls-26{fill:url(#linear-gradient-23);}.cls-27{fill:url(#linear-gradient-24);}</style><linearGradient id="linear-gradient" x1="1026.28" y1="314.38" x2="921.86" y2="209.96" gradientTransform="translate(362.17 -874.07) rotate(90)" gradientUnits="userSpaceOnUse"><stop offset="0" stop-color="#fda3ca"/><stop offset="0.2" stop-color="#fc59a0"/><stop offset="1" stop-color="#70156e"/></linearGradient><linearGradient id="linear-gradient-2" x1="36.51" y1="163.49" x2="163.49" y2="36.51" gradientTransform="matrix(1, 0, 0, 1, 0, 0)" xlink:href="#linear-gradient"/><linearGradient id="linear-gradient-3" x1="142.61" y1="75.19" x2="157.89" y2="65.21" gradientUnits="userSpaceOnUse"><stop offset="0"/><stop offset="0.21" stop-color="#313131"/><stop offset="0.68" stop-color="#ababab"/><stop offset="1" stop-color="#fff"/></linearGradient><linearGradient id="linear-gradient-4" x1="143.46" y1="74.14" x2="157.1" y2="66.22" gradientTransform="translate(62.85 -70.74) rotate(33.15)" gradientUnits="userSpaceOnUse"><stop offset="0" stop-color="#70156e"/><stop offset="0.45" stop-color="#b586b4"/><stop offset="0.83" stop-color="#eaddea"/><stop offset="1" stop-color="#fff"/></linearGradient><linearGradient id="linear-gradient-5" x1="103.27" y1="67.02" x2="104.09" y2="55.61" xlink:href="#linear-gradient-3"/><linearGradient id="linear-gradient-6" x1="103.4" y1="66.63" x2="103.95" y2="56.13" gradientTransform="translate(157.36 -46.51) rotate(85.87)" xlink:href="#linear-gradient-4"/><linearGradient id="linear-gradient-7" x1="82.81" y1="32.04" x2="86.53" y2="49.5" xlink:href="#linear-gradient-3"/><linearGradient id="linear-gradient-8" x1="82.97" y1="32.66" x2="86.28" y2="48.42" gradientTransform="translate(10.37 -16.77) rotate(12.05)" xlink:href="#linear-gradient-4"/><linearGradient id="linear-gradient-9" x1="85.82" y1="105.52" x2="94.78" y2="83.7" xlink:href="#linear-gradient-3"/><linearGradient id="linear-gradient-10" x1="86.23" y1="104.74" x2="94.34" y2="84.55" gradientTransform="translate(143.47 -24.88) rotate(67.65)" xlink:href="#linear-gradient-4"/><linearGradient id="linear-gradient-11" x1="149.99" y1="114.68" x2="163.71" y2="120.16" xlink:href="#linear-gradient-3"/><linearGradient id="linear-gradient-12" x1="150.35" y1="114.83" x2="163.01" y2="119.88" gradientTransform="translate(207.73 -71.79) rotate(68.23)" xlink:href="#linear-gradient-4"/><linearGradient id="linear-gradient-13" x1="126.04" y1="42.16" x2="129.84" y2="34.61" xlink:href="#linear-gradient-3"/><linearGradient id="linear-gradient-14" x1="126.48" y1="41.64" x2="129.51" y2="34.89" gradientTransform="translate(104.7 -93.16) rotate(63.28)" xlink:href="#linear-gradient-4"/><linearGradient id="linear-gradient-15" x1="97.98" y1="144.65" x2="102.02" y2="129.34" xlink:href="#linear-gradient-3"/><linearGradient id="linear-gradient-16" x1="98.3" y1="144.02" x2="101.71" y2="129.91" gradientTransform="translate(206.92 5.33) rotate(75.21)" xlink:href="#linear-gradient-4"/><linearGradient id="linear-gradient-17" x1="124.78" y1="103.46" x2="140.03" y2="90.83" xlink:href="#linear-gradient-3"/><linearGradient id="linear-gradient-18" x1="125.67" y1="102.54" x2="139.19" y2="91.72" gradientTransform="translate(92.35 -62.11) rotate(39.61)" xlink:href="#linear-gradient-4"/><linearGradient id="linear-gradient-19" x1="39.35" y1="66.83" x2="54.49" y2="75.46" xlink:href="#linear-gradient-3"/><linearGradient id="linear-gradient-20" x1="40.05" y1="67.22" x2="53.47" y2="74.88" gradientTransform="translate(85.49 -4.85) rotate(60.32)" xlink:href="#linear-gradient-4"/><linearGradient id="linear-gradient-21" x1="131.31" y1="164.02" x2="124.74" y2="150.35" xlink:href="#linear-gradient-3"/><linearGradient id="linear-gradient-22" x1="130.74" y1="163.27" x2="125.21" y2="150.89" gradientTransform="translate(80.76 -39.95) rotate(25.68)" xlink:href="#linear-gradient-4"/><linearGradient id="linear-gradient-23" x1="50.65" y1="143.07" x2="71.03" y2="122.68" xlink:href="#linear-gradient-3"/><linearGradient id="linear-gradient-24" x1="51.47" y1="142.24" x2="70.21" y2="123.51" gradientTransform="translate(111.78 -4.1) rotate(45)" xlink:href="#linear-gradient-4"/></defs><title>planet_purple</title><g class="cls-1"><g id="Layer_1" data-name="Layer 1"><circle class="cls-2" cx="100" cy="100" r="73.84"/><g class="cls-3"><path class="cls-4" d="M100,26.16A73.84,73.84,0,1,1,26.16,100,73.84,73.84,0,0,1,100,26.16m0-16A89.84,89.84,0,1,0,189.84,100,89.94,89.94,0,0,0,100,10.16Z"/></g><g class="cls-5"><path class="cls-6" d="M145.85,57.9c3.66,0,8.17,3,11.33,7.77,4.12,6.32,4.36,13.46.54,16a5.53,5.53,0,0,1-3.08.87c-3.66,0-8.17-3-11.32-7.77-4.12-6.32-4.36-13.46-.54-16a5.52,5.52,0,0,1,3.07-.87m0-.84h0a6.31,6.31,0,0,0-3.53,1c-4.28,2.8-4.16,10.32.29,17.13,3.24,5,8,8.15,12,8.15a6.32,6.32,0,0,0,3.54-1c2.11-1.38,3.21-4,3.1-7.29a19.76,19.76,0,0,0-3.39-9.84c-3.24-4.95-8-8.15-12-8.15Z"/></g><ellipse class="cls-7" cx="150.25" cy="70.2" rx="8.28" ry="13.65" transform="translate(-13.93 93.6) rotate(-33.15)"/><g class="cls-5"><path class="cls-8" d="M103.45,56.06l.61,0c3.66.27,6.45,2.82,6.24,5.71-.2,2.73-3,4.78-6.39,4.78-.2,0-.4,0-.61,0-3.65-.26-6.45-2.82-6.24-5.71.2-2.73,3-4.78,6.39-4.78m0-.47h0c-3.7,0-6.64,2.24-6.86,5.21-.23,3.15,2.77,5.94,6.68,6.22.22,0,.43,0,.64,0,3.7,0,6.65-2.24,6.86-5.21.23-3.15-2.77-5.93-6.68-6.22l-.64,0Z"/></g><ellipse class="cls-9" cx="103.68" cy="61.32" rx="5.25" ry="6.64" transform="translate(35.05 160.31) rotate(-85.87)"/><g class="cls-5"><path class="cls-10" d="M89.34,32.23c5.87,0,10.4,1.94,11.09,5.18.92,4.33-5.38,9.34-14.08,11.2A30.63,30.63,0,0,1,80,49.3c-5.88,0-10.41-1.93-11.1-5.17C68,39.8,74.3,34.78,83,32.92a30.55,30.55,0,0,1,6.34-.69m0-.9h0a31.51,31.51,0,0,0-6.53.71C73.48,34,67,39.42,68,44.32c.76,3.58,5.46,5.89,12,5.89a31.49,31.49,0,0,0,6.52-.71c9.34-2,15.83-7.39,14.79-12.28-.77-3.58-5.47-5.89-12-5.89Z"/></g><ellipse class="cls-11" cx="84.67" cy="40.77" rx="16.11" ry="8.02" transform="translate(-6.64 18.57) rotate(-12.05)"/><g class="cls-5"><path class="cls-12" d="M89.31,83.52a13.46,13.46,0,0,1,5.13,1c6.24,2.57,9.46,9.15,7.17,14.71a10.87,10.87,0,0,1-10.32,6.43,13.55,13.55,0,0,1-5.12-1C79.92,102.1,76.7,95.51,79,90a10.88,10.88,0,0,1,10.32-6.44m0-.92h0a11.82,11.82,0,0,0-11.17,7,11.14,11.14,0,0,0,.41,9.23,13.92,13.92,0,0,0,7.27,6.68,14.39,14.39,0,0,0,5.47,1.09,11.81,11.81,0,0,0,11.17-7,11.14,11.14,0,0,0-.41-9.23,13.84,13.84,0,0,0-7.27-6.68,14.21,14.21,0,0,0-5.47-1.1Z"/></g><ellipse class="cls-13" cx="90.3" cy="94.61" rx="10.88" ry="12.23" transform="translate(-31.54 142.16) rotate(-67.65)"/><g class="cls-5"><path class="cls-14" d="M159.48,106.65a4.07,4.07,0,0,1,1.55.3c3.44,1.37,4.35,7.17,2,13-2,4.95-5.68,8.29-8.85,8.29a4.27,4.27,0,0,1-1.55-.29c-3.43-1.38-4.34-7.18-2-13,2-5,5.67-8.29,8.84-8.29m0-.69h0c-3.53,0-7.44,3.59-9.49,8.72a16.63,16.63,0,0,0-1.18,8.5c.43,2.7,1.71,4.6,3.6,5.36a4.81,4.81,0,0,0,1.81.34c3.54,0,7.44-3.59,9.49-8.72a16.63,16.63,0,0,0,1.18-8.5c-.43-2.7-1.7-4.6-3.6-5.36a5,5,0,0,0-1.81-.34Z"/></g><ellipse class="cls-15" cx="156.85" cy="117.42" rx="11.28" ry="6.69" transform="translate(-10.37 219.54) rotate(-68.23)"/><g class="cls-5"><path class="cls-16" d="M123.4,33.3A14.67,14.67,0,0,1,129.64,35c4.18,2.11,6.81,5.32,5.87,7.18-.43.86-1.54,1.28-3,1.28a14.67,14.67,0,0,1-6.23-1.71c-4.18-2.11-6.81-5.32-5.87-7.18.43-.86,1.54-1.28,3-1.28m0-.45c-1.71,0-2.93.54-3.42,1.52s-.16,2.49,1.07,4a15.53,15.53,0,0,0,5,3.8,15.22,15.22,0,0,0,6.44,1.76c1.72,0,2.94-.54,3.43-1.52s.16-2.49-1.07-4a15.58,15.58,0,0,0-5-3.8,15.15,15.15,0,0,0-6.44-1.76Z"/></g><ellipse class="cls-17" cx="127.94" cy="38.38" rx="3.78" ry="8.47" transform="translate(36.13 135.41) rotate(-63.28)"/><g class="cls-5"><path class="cls-18" d="M99.52,129.63a9.45,9.45,0,0,1,2.34.3c4.39,1.16,7.11,5.26,6.08,9.16a7.48,7.48,0,0,1-7.46,5.27,9.15,9.15,0,0,1-2.35-.31c-4.38-1.16-7.1-5.26-6.07-9.15a7.47,7.47,0,0,1,7.46-5.27m0-.62h0a8.14,8.14,0,0,0-8.06,5.73c-1.11,4.22,1.81,8.66,6.52,9.91a10.08,10.08,0,0,0,2.5.32,8.12,8.12,0,0,0,8-5.72,7.46,7.46,0,0,0-1.09-6.11,9.31,9.31,0,0,0-5.42-3.8,9.64,9.64,0,0,0-2.5-.33Z"/></g><ellipse class="cls-19" cx="100" cy="136.99" rx="7.3" ry="8.21" transform="matrix(0.26, -0.97, 0.97, 0.26, -57.99, 198.7)"/><g class="cls-5"><path class="cls-20" d="M130.87,87.06a11.35,11.35,0,0,1,8.56,4.27c3.76,4.55,3.67,10.85-.2,14.06a8.23,8.23,0,0,1-5.29,1.84,11.35,11.35,0,0,1-8.56-4.27c-3.76-4.55-3.67-10.84.2-14a8.19,8.19,0,0,1,5.29-1.85m0-.79h0a8.92,8.92,0,0,0-5.79,2,9.22,9.22,0,0,0-3.25,7.12,12.36,12.36,0,0,0,3,8,12.17,12.17,0,0,0,9.16,4.56,8.94,8.94,0,0,0,5.79-2c4.2-3.48,4.34-10.28.3-15.16a12.17,12.17,0,0,0-9.16-4.56Z"/></g><ellipse class="cls-21" cx="132.4" cy="97.15" rx="9.12" ry="10.7" transform="translate(-31.54 106.73) rotate(-39.61)"/><g class="cls-5"><path class="cls-22" d="M52,57.7a4.62,4.62,0,0,1,2.3.58C58,60.43,57.8,67.93,53.75,75c-3.31,5.81-8.16,9.55-11.87,9.55A4.49,4.49,0,0,1,39.59,84c-3.77-2.15-3.54-9.65.51-16.75C43.41,61.45,48.25,57.7,52,57.7m0-.86h0c-4.14,0-9.21,4-12.61,10a23.64,23.64,0,0,0-3.3,10.64c-.11,3.5,1,6.09,3.11,7.29a5.42,5.42,0,0,0,2.72.69c4.14,0,9.21-4,12.61-10a23.61,23.61,0,0,0,3.3-10.63c.11-3.5-1-6.09-3.11-7.3A5.39,5.39,0,0,0,52,56.84Z"/></g><ellipse class="cls-23" cx="46.92" cy="71.15" rx="14.81" ry="7.86" transform="translate(-38.12 76.68) rotate(-60.32)"/><g class="cls-5"><path class="cls-24" d="M134.44,148.66c2.86,0,5.06.87,5.89,2.61,1.63,3.39-2.55,8.79-9.35,12.06a22.49,22.49,0,0,1-9.37,2.39c-2.86,0-5.06-.88-5.89-2.61-1.63-3.4,2.55-8.79,9.35-12.06a22.33,22.33,0,0,1,9.37-2.39m0-.77h0a23.3,23.3,0,0,0-9.7,2.46c-7.29,3.51-11.56,9.26-9.72,13.09,1,2,3.29,3.05,6.59,3.05a23.17,23.17,0,0,0,9.7-2.47,22.84,22.84,0,0,0,8.11-6.2c2-2.52,2.53-5,1.61-6.88s-3.29-3.05-6.59-3.05Z"/></g><ellipse class="cls-25" cx="128.02" cy="157.19" rx="13.66" ry="6.81" transform="translate(-55.47 71.01) rotate(-25.68)"/><g class="cls-5"><path class="cls-26" d="M58,118.12a17.62,17.62,0,0,1,12.23,5.39c6.29,6.29,7.2,15.58,2,20.76a11.86,11.86,0,0,1-8.54,3.36,17.62,17.62,0,0,1-12.23-5.39c-6.29-6.29-7.19-15.58-2-20.76A11.9,11.9,0,0,1,58,118.12M58,117v0h0a13,13,0,0,0-9.35,3.7c-5.62,5.62-4.72,15.67,2,22.41a18.81,18.81,0,0,0,13.05,5.72,13.07,13.07,0,0,0,9.36-3.7c5.62-5.62,4.71-15.67-2-22.41A18.79,18.79,0,0,0,58,117Z"/></g><ellipse class="cls-27" cx="60.84" cy="132.88" rx="13.25" ry="16.11" transform="translate(-76.14 81.94) rotate(-45)"/></g></g></svg>