<svg xmlns="http://www.w3.org/2000/svg" xmlns:xlink="http://www.w3.org/1999/xlink" viewBox="0 0 472.65 472.65"><defs><style>.cls-1{isolation:isolate;}.cls-2{fill:url(#linear-gradient);}.cls-3,.cls-5{opacity:0.2;}.cls-3{mix-blend-mode:color-dodge;}.cls-4{fill:url(#linear-gradient-2);}.cls-5{mix-blend-mode:multiply;}.cls-6{fill:url(#linear-gradient-3);}</style><linearGradient id="linear-gradient" x1="95.87" y1="376.78" x2="376.78" y2="95.87" gradientUnits="userSpaceOnUse"><stop offset="0" stop-color="#f88182"/><stop offset="0.2" stop-color="#f54345"/><stop offset="1" stop-color="#70156e"/></linearGradient><linearGradient id="linear-gradient-2" x1="69.22" y1="403.43" x2="403.43" y2="69.22" xlink:href="#linear-gradient"/><linearGradient id="linear-gradient-3" x1="101.44" y1="367.4" x2="374.88" y2="93.96" gradientUnits="userSpaceOnUse"><stop offset="0" stop-color="#f87c7e"/><stop offset="0.2" stop-color="#f43335"/><stop offset="1" stop-color="#70156e"/></linearGradient></defs><title>red planet</title><g class="cls-1"><g id="Layer_2" data-name="Layer 2"><g id="planets"><circle class="cls-2" cx="236.33" cy="236.33" r="198.64"/><g class="cls-3"><path class="cls-4" d="M236.33,37.69C346,37.69,435,126.62,435,236.33S346,435,236.33,435,37.69,346,37.69,236.33,126.62,37.69,236.33,37.69m0-37.69A236.26,236.26,0,0,0,69.22,403.43,236.32,236.32,0,1,0,328.33,18.59,234.79,234.79,0,0,0,236.33,0Z"/></g><g class="cls-5"><path class="cls-6" d="M351.58,74.53c-28.76,27.56-67,68.91-142.49,79.89-80.83,11.77-121.67-13.63-140.6-24.35A191.8,191.8,0,0,0,56.1,152.69c24.76,17.63,64.19,35.46,131.39,40.93,98.91,8,185.25-30.34,219.56-58.9A199.42,199.42,0,0,0,351.58,74.53ZM201.71,358C143.24,352.65,114.5,293.23,43.44,284A196,196,0,0,0,58.06,324c42.6,13.11,78.4,66.4,146.05,81.34,83.37,18.41,150.88-24.43,201.43-65a197.26,197.26,0,0,0,29.12-93.09C377.22,238.94,335.91,370.28,201.71,358ZM265.33,39.81c-26,27.47-63.11,51.54-120.87,51.54-5.07,0-19.63-2.23-36-7.06a196.23,196.23,0,0,0-26.89,27.48c21.82,14.94,47.67,21.84,75.54,21.65,69.41-.48,146.28-39.55,173.91-71.72A196.12,196.12,0,0,0,265.33,39.81ZM423,168.2c-70.1-3.81-93.15,88.56-217.66,77.9C126,239.3,96.79,195.5,43.68,187.74a198.6,198.6,0,0,0-6,48.58c0,2.47.05,4.92.15,7.37C94.7,245.52,138.38,289,202.75,305.87c69.4,18.18,116.88-15.81,162.64-55.09,29.27-25.13,49.13-35.78,68.72-32.92A197.34,197.34,0,0,0,423,168.2Z"/></g></g></g></g></svg>