<svg xmlns="http://www.w3.org/2000/svg" xmlns:xlink="http://www.w3.org/1999/xlink" viewBox="0 0 300 300"><defs><style>.cls-1{isolation:isolate;}.cls-2{fill:url(#linear-gradient);}.cls-3,.cls-5{opacity:0.2;}.cls-3{mix-blend-mode:color-dodge;}.cls-4{fill:url(#linear-gradient-2);}.cls-5{mix-blend-mode:multiply;}.cls-6{fill:url(#linear-gradient-3);}</style><linearGradient id="linear-gradient" x1="232" y1="232" x2="68" y2="68" gradientUnits="userSpaceOnUse"><stop offset="0" stop-color="#f88182"/><stop offset="0.2" stop-color="#f54345"/><stop offset="1" stop-color="#6e1934"/></linearGradient><linearGradient id="linear-gradient-2" x1="247.55" y1="247.55" x2="52.45" y2="52.45" xlink:href="#linear-gradient"/><linearGradient id="linear-gradient-3" x1="34.04" y1="143.26" x2="265.78" y2="143.26" gradientUnits="userSpaceOnUse"><stop offset="0" stop-color="#f87c7e"/><stop offset="0.2" stop-color="#f43335"/><stop offset="1" stop-color="#6e1934"/></linearGradient></defs><title>planet_red</title><g class="cls-1"><g id="Layer_1" data-name="Layer 1"><circle class="cls-2" cx="150" cy="150" r="115.96"/><g class="cls-3"><path class="cls-4" d="M150,34A116,116,0,1,1,34,150,116,116,0,0,1,150,34m0-22A138,138,0,0,0,52.45,247.55a138,138,0,1,0,195.1-195.1A137,137,0,0,0,150,12Z"/></g><g class="cls-5"><path class="cls-6" d="M217.28,55.55c-16.79,16.09-39.09,40.23-83.18,46.64-47.19,6.87-71-8-82.08-14.22a112.47,112.47,0,0,0-7.23,13.21c14.45,10.29,37.47,20.7,76.7,23.89,57.74,4.69,108.14-17.71,128.17-34.38A116.42,116.42,0,0,0,217.28,55.55ZM129.79,221c-34.13-3.12-50.91-37.81-92.39-43.23a114.4,114.4,0,0,0,8.53,23.39C70.8,208.84,91.7,240,131.19,248.67c48.67,10.75,88.08-14.26,117.59-37.92a115.14,115.14,0,0,0,17-54.34C232.25,151.53,208.13,228.2,129.79,221ZM166.93,35.28c-15.17,16-36.84,30.09-70.56,30.09-3,0-11.46-1.3-21-4.12a114.46,114.46,0,0,0-15.7,16C72.42,86,87.51,90,103.78,89.93c40.52-.28,85.39-23.09,101.52-41.87A114.47,114.47,0,0,0,166.93,35.28Zm92,75C218,108,204.58,161.93,131.9,155.71c-46.32-4-63.36-29.54-94.36-34.07A115.83,115.83,0,0,0,34,150c0,1.44,0,2.87.09,4.3,33.19,1.07,58.69,26.46,96.27,36.3,40.51,10.61,68.23-9.23,94.94-32.16,17.09-14.67,28.68-20.89,40.12-19.22A115.38,115.38,0,0,0,259,110.23Z"/></g></g></g></svg>