<svg xmlns="http://www.w3.org/2000/svg" xmlns:xlink="http://www.w3.org/1999/xlink" viewBox="0 0 260 260"><defs><style>.cls-1{isolation:isolate;}.cls-2{fill:url(#linear-gradient);}.cls-3,.cls-5{opacity:0.2;}.cls-3{mix-blend-mode:color-dodge;}.cls-4{fill:url(#linear-gradient-2);}.cls-5{fill:#fff9e7;mix-blend-mode:overlay;}.cls-6{fill:#6b1d1d;opacity:0.7;mix-blend-mode:soft-light;}</style><linearGradient id="linear-gradient" x1="1570.97" y1="83.86" x2="1428.77" y2="-58.34" gradientTransform="translate(1199.59 -921.54) rotate(135)" gradientUnits="userSpaceOnUse"><stop offset="0" stop-color="#fdecaf"/><stop offset="0.2" stop-color="#fbd348"/><stop offset="1" stop-color="#6b1d1d"/></linearGradient><linearGradient id="linear-gradient-2" x1="11.45" y1="130" x2="248.55" y2="130" gradientTransform="matrix(1, 0, 0, 1, 0, 0)" xlink:href="#linear-gradient"/></defs><title>planet_yellow</title><g class="cls-1"><g id="Layer_1" data-name="Layer 1"><circle class="cls-2" cx="130" cy="130" r="100.55"/><g class="cls-3"><path class="cls-4" d="M130,29.45A100.55,100.55,0,1,1,58.9,58.9,100.25,100.25,0,0,1,130,29.45m0-18A118.55,118.55,0,0,0,46.17,213.83,118.55,118.55,0,0,0,213.83,46.17,117.77,117.77,0,0,0,130,11.45Z"/></g><path class="cls-5" d="M213.89,74.55c-2.31,2.35-4.76,4.22-9.21,4.22-24.55,0-28.65-13.55-55.79-13.55H53.11A99.78,99.78,0,0,0,37.6,90.3H64.24c29.84,0,36.39-15.22,55-15.22,22.19,0,27.37,15.22,53.12,15.22h50.1A100.39,100.39,0,0,0,213.89,74.55Zm-20,70.42c-14,0-21.64,13-40.38,13-17.71,0-22.27-13-45.41-13H30.56A99.27,99.27,0,0,0,36.8,167.8H223.2A99.27,99.27,0,0,0,229.44,145Zm-77,52.28c-19.82,0-27.09,13.31-46.68,13.31H69.8A100,100,0,0,0,86,220.45H174a100.84,100.84,0,0,0,30.78-23.2Z"/><path class="cls-6" d="M42.21,179.05A100.69,100.69,0,0,0,59.77,202a30.26,30.26,0,0,0,6.42.67c17.57,0,22.3-13.21,43.74-13.21h101.2a99.8,99.8,0,0,0,6.66-10.36Zm186.4-68.81h-62.8c-20.89,0-28.82-16.48-50.81-16.48-21,0-30.16,16.48-53.32,16.48H31.39a100.6,100.6,0,0,0-1.9,16.86H106c25.53,0,32.82,15.93,50.06,15.93,18.23,0,29.63-15.92,44.28-15.93h30.22A100.6,100.6,0,0,0,228.61,110.24ZM130,29.45A100.1,100.1,0,0,0,66.35,52.16L148.41,52C176,52,179.86,65.91,206.26,65.91a8.51,8.51,0,0,0,1.16-.07A100.34,100.34,0,0,0,130,29.45Z"/></g></g></svg>