<svg xmlns="http://www.w3.org/2000/svg" xmlns:xlink="http://www.w3.org/1999/xlink" viewBox="0 0 686.82 416.81"><defs><style>.cls-1{isolation:isolate;}.cls-10,.cls-12,.cls-16,.cls-2,.cls-20{opacity:0.2;}.cls-2{fill:url(#linear-gradient);}.cls-22,.cls-24,.cls-26,.cls-28,.cls-3{opacity:0.4;}.cls-3{fill:url(#linear-gradient-2);}.cls-4{fill:url(#linear-gradient-3);}.cls-5{fill:url(#linear-gradient-4);}.cls-6{opacity:0.2;mix-blend-mode:overlay;}.cls-7{fill:url(#linear-gradient-5);}.cls-14,.cls-8{opacity:0.3;}.cls-10,.cls-12,.cls-14,.cls-16,.cls-18,.cls-20,.cls-22,.cls-24,.cls-26,.cls-28,.cls-8{mix-blend-mode:multiply;}.cls-8{fill:url(#linear-gradient-6);}.cls-9{fill:url(#linear-gradient-7);}.cls-10{fill:url(#linear-gradient-8);}.cls-11{fill:url(#linear-gradient-9);}.cls-12{fill:url(#linear-gradient-10);}.cls-13{fill:url(#linear-gradient-11);}.cls-14{fill:url(#linear-gradient-12);}.cls-15{fill:url(#linear-gradient-13);}.cls-16{fill:url(#linear-gradient-14);}.cls-17{fill:url(#linear-gradient-15);}.cls-18{opacity:0.1;fill:url(#linear-gradient-16);}.cls-19{fill:url(#linear-gradient-17);}.cls-20{fill:url(#linear-gradient-18);}.cls-21{fill:url(#linear-gradient-19);}.cls-22{fill:url(#linear-gradient-20);}.cls-23{fill:url(#linear-gradient-21);}.cls-24{fill:url(#linear-gradient-22);}.cls-25{fill:url(#linear-gradient-23);}.cls-26{fill:url(#linear-gradient-24);}.cls-27{fill:url(#linear-gradient-25);}.cls-28{fill:url(#linear-gradient-26);}</style><linearGradient id="linear-gradient" x1="-7977.58" y1="-7796.08" x2="-7012.01" y2="-7796.08" gradientTransform="translate(8654.65 2604.85) rotate(-30) scale(0.8)" gradientUnits="userSpaceOnUse"><stop offset="0" stop-color="#595b64"/><stop offset="0.3" stop-color="#894f55" stop-opacity="0.69"/><stop offset="1" stop-color="#f43335" stop-opacity="0"/></linearGradient><linearGradient id="linear-gradient-2" x1="8.89" y1="307.29" x2="304.95" y2="307.29" gradientUnits="userSpaceOnUse"><stop offset="0" stop-color="#595b64"/><stop offset="0.12" stop-color="#6c565e" stop-opacity="0.93"/><stop offset="1" stop-color="#f43335" stop-opacity="0.4"/></linearGradient><linearGradient id="linear-gradient-3" x1="54.64" y1="348.31" x2="149.78" y2="348.31" gradientUnits="userSpaceOnUse"><stop offset="0" stop-color="#fbcf38"/><stop offset="0.33" stop-color="#fc8528"/><stop offset="0.37" stop-color="#fc7c26"/><stop offset="1" stop-color="#f43335"/></linearGradient><linearGradient id="linear-gradient-4" x1="-7151.22" y1="9015.51" x2="-7189.22" y2="8977.51" gradientTransform="translate(9141.07 1746.68) rotate(60) scale(0.8)" gradientUnits="userSpaceOnUse"><stop offset="0" stop-color="#fbcf38"/><stop offset="0.2" stop-color="#fc7c26"/><stop offset="1" stop-color="#6e1934"/></linearGradient><linearGradient id="linear-gradient-5" x1="-7918.95" y1="-7804.66" x2="-7913.53" y2="-7808.2" gradientTransform="translate(8654.65 2604.85) rotate(-30) scale(0.8)" gradientUnits="userSpaceOnUse"><stop offset="0"/><stop offset="0.21" stop-color="#313131"/><stop offset="0.68" stop-color="#ababab"/><stop offset="1" stop-color="#fff"/></linearGradient><linearGradient id="linear-gradient-6" x1="-7918.65" y1="-7805.03" x2="-7913.81" y2="-7807.84" gradientTransform="translate(1934.01 9054.84) rotate(33.15) scale(0.8)" gradientUnits="userSpaceOnUse"><stop offset="0" stop-color="#6e1934"/><stop offset="0.45" stop-color="#b28694"/><stop offset="0.83" stop-color="#e9dde1"/><stop offset="1" stop-color="#fff"/></linearGradient><linearGradient id="linear-gradient-7" x1="-7932.47" y1="-7806.28" x2="-7932.18" y2="-7810.32" xlink:href="#linear-gradient-5"/><linearGradient id="linear-gradient-8" x1="-7932.42" y1="-7806.42" x2="-7932.23" y2="-7810.14" gradientTransform="translate(6815.23 6141.05) rotate(-4.13) scale(0.8)" xlink:href="#linear-gradient-6"/><linearGradient id="linear-gradient-9" x1="-7939.3" y1="-7818.58" x2="-7937.98" y2="-7812.38" xlink:href="#linear-gradient-5"/><linearGradient id="linear-gradient-10" x1="-7939.24" y1="-7818.35" x2="-7938.07" y2="-7812.76" gradientTransform="translate(4934.6 7805.72) rotate(12.05) scale(0.8)" xlink:href="#linear-gradient-6"/><linearGradient id="linear-gradient-11" x1="-7938.12" y1="-7794.12" x2="-7934.94" y2="-7801.86" xlink:href="#linear-gradient-5"/><linearGradient id="linear-gradient-12" x1="-7937.98" y1="-7794.4" x2="-7935.1" y2="-7801.56" gradientTransform="translate(8281.07 3732.92) rotate(-22.35) scale(0.8)" xlink:href="#linear-gradient-6"/><linearGradient id="linear-gradient-13" x1="-7916.12" y1="-7790.55" x2="-7911.25" y2="-7788.61" xlink:href="#linear-gradient-5"/><linearGradient id="linear-gradient-14" x1="-7915.99" y1="-7790.5" x2="-7911.5" y2="-7788.71" gradientTransform="matrix(0.74, -0.3, 0.3, 0.74, 8246.65, 3812.82)" xlink:href="#linear-gradient-6"/><linearGradient id="linear-gradient-15" x1="-7925.04" y1="-7813.6" x2="-7923.69" y2="-7816.27" xlink:href="#linear-gradient-5"/><linearGradient id="linear-gradient-16" x1="-7924.88" y1="-7813.78" x2="-7923.8" y2="-7816.18" gradientTransform="translate(8512.11 3094.14) rotate(-26.72) scale(0.8)" xlink:href="#linear-gradient-6"/><linearGradient id="linear-gradient-17" x1="-7934.67" y1="-7780.25" x2="-7933.23" y2="-7785.68" xlink:href="#linear-gradient-5"/><linearGradient id="linear-gradient-18" x1="-7934.55" y1="-7780.47" x2="-7933.34" y2="-7785.47" gradientTransform="translate(7771.24 4785.57) rotate(-14.79) scale(0.8)" xlink:href="#linear-gradient-6"/><linearGradient id="linear-gradient-19" x1="-7925.16" y1="-7795.07" x2="-7919.75" y2="-7799.54" xlink:href="#linear-gradient-5"/><linearGradient id="linear-gradient-20" x1="-7924.85" y1="-7795.39" x2="-7920.05" y2="-7799.23" gradientTransform="matrix(0.62, 0.51, -0.51, 0.62, 951.92, 9218.25)" xlink:href="#linear-gradient-6"/><linearGradient id="linear-gradient-21" x1="-7952.85" y1="-7806.73" x2="-7947.48" y2="-7803.67" xlink:href="#linear-gradient-5"/><linearGradient id="linear-gradient-22" x1="-7952.61" y1="-7806.59" x2="-7947.85" y2="-7803.87" gradientTransform="matrix(0.7, -0.4, 0.4, 0.7, 8642.24, 2652.36)" xlink:href="#linear-gradient-6"/><linearGradient id="linear-gradient-23" x1="-7922.1" y1="-7775.09" x2="-7924.43" y2="-7779.93" xlink:href="#linear-gradient-5"/><linearGradient id="linear-gradient-24" x1="-7922.3" y1="-7775.35" x2="-7924.26" y2="-7779.74" gradientTransform="translate(3070.44 8740.02) rotate(25.68) scale(0.8)" xlink:href="#linear-gradient-6"/><linearGradient id="linear-gradient-25" x1="-7949.85" y1="-7781.98" x2="-7942.62" y2="-7789.21" xlink:href="#linear-gradient-5"/><linearGradient id="linear-gradient-26" x1="-7949.55" y1="-7782.28" x2="-7942.91" y2="-7788.92" gradientTransform="translate(125.97 9288.59) rotate(45) scale(0.8)" xlink:href="#linear-gradient-6"/></defs><title>astroid</title><g class="cls-1"><g id="Layer_2" data-name="Layer 2"><g id="meteors"><path class="cls-2" d="M678.25,14.92,607.09,56a5.71,5.71,0,0,1-5.71-9.9l54.81-31.64a5.71,5.71,0,0,0-5.71-9.9L580.46,45a5.71,5.71,0,0,1-5.71-9.9L617,10.66A5.71,5.71,0,1,0,611.33.77L20,342.17a40,40,0,0,0,40,69.28h0L647.92,72A5.72,5.72,0,0,0,650,64.21h0a5.71,5.71,0,0,0-7.8-2.09L591.37,91.47a5.72,5.72,0,1,1-5.72-9.9L684,24.81a5.7,5.7,0,0,0,2.09-7.8h0A5.71,5.71,0,0,0,678.25,14.92Z"/><path class="cls-3" d="M246.6,225.07a4.68,4.68,0,0,0,6.4,1.71l22.65-13.07a4.69,4.69,0,0,0-4.69-8.12l-22.64,13.08a4.68,4.68,0,0,0-1.72,6.4Zm58.68-12.24h0a4.69,4.69,0,0,0-6.4-1.72l-5.27,3a4.68,4.68,0,0,0-1.71,6.4h0a4.69,4.69,0,0,0,6.4,1.71l5.27-3A4.68,4.68,0,0,0,305.28,212.83Zm-25.89,52.82-9.65,5.58a4.69,4.69,0,0,0-1.72,6.4h0a4.68,4.68,0,0,0,6.4,1.71l9.66-5.57a4.69,4.69,0,0,0-4.69-8.12Zm2-22.8-58.34,33.69a4.69,4.69,0,0,1-4.69-8.12l42.15-24.33a4.69,4.69,0,0,0-4.69-8.12l-54.61,31.54a4.69,4.69,0,0,1-4.69-8.12l34.69-20a4.69,4.69,0,0,0-4.69-8.12L23.61,348.4a32.8,32.8,0,1,0,32.8,56.81h0L256.53,289.67a4.68,4.68,0,0,0-4.69-8.11l-48.49,28a4.68,4.68,0,1,1-4.68-8.11L286.08,251a4.69,4.69,0,1,0-4.69-8.12Z"/><path class="cls-4" d="M157.62,300.84l-17.86,10.31a2.33,2.33,0,1,0,2.33,4L160,304.87a2.33,2.33,0,0,0-2.33-4Zm-23.74,46a2.33,2.33,0,1,0,3.18.85A2.32,2.32,0,0,0,133.88,346.8Zm37.86-51.42a2.33,2.33,0,0,0-3.18-.85l-1.05.6a2.33,2.33,0,0,0,2.33,4l1-.6A2.33,2.33,0,0,0,171.74,295.38Zm-39.43,14.7,11.8-6.82a2.33,2.33,0,1,0-2.32-4L130,306.05a2.33,2.33,0,1,0,2.33,4Zm19.56,15.58-4.71,2.72a2.33,2.33,0,0,0,2.32,4l4.72-2.72a2.33,2.33,0,1,0-2.33-4Zm4-10.36a2.34,2.34,0,0,0-3.18-.85L71.16,361.51a2.33,2.33,0,0,1-2.32-4l51.3-29.61a2.33,2.33,0,0,0-2.33-4l-44,25.39a2.33,2.33,0,0,1-2.32-4L120.38,317a2.33,2.33,0,0,0-2.33-4L65.2,343.45a2.33,2.33,0,1,1-2.33-4l39.75-22.95a2.33,2.33,0,0,0-2.33-4l-73.08,42.2a25.6,25.6,0,0,0,25.16,44.58h0l74.72-43.14a2.33,2.33,0,0,0-2.33-4L77.08,379.59a2.33,2.33,0,0,1-2.32-4l64.18-37.06a2.33,2.33,0,0,0-2.33-4L78.22,368.18a2.33,2.33,0,1,1-2.32-4L155,318.48a2.32,2.32,0,0,0,.86-3.18Z"/><path class="cls-5" d="M50.57,395.11c-1.62.94-3.14,2.48-4.87,2.95a23.47,23.47,0,0,1-5.69,1,23.85,23.85,0,0,1-5.77-.76c-1.76-.47-2.58-3.38-4.17-4.3s-3.43-1.21-4.74-2.53-1.67-3.07-2.61-4.69a20.06,20.06,0,0,1-2.38-4.71c-.48-1.79-2.51-3.46-2.51-5.27s1.58-3.63,2.05-5.4S22.05,368.56,23,367s.91-3.67,2.22-5,3.18-1.59,4.81-2.53,2.75-2.84,4.48-3.3,3.72.7,5.53.71a19.17,19.17,0,0,1,5.18.59c1.76.48,3.89-.05,5.48.87a21.32,21.32,0,0,1,4.2,3.6,21.11,21.11,0,0,1,3.5,4.27c.93,1.62,1.11,3.53,1.58,5.26s1.86,3.53,1.85,5.34a23.1,23.1,0,0,1-.57,5.69,22.7,22.7,0,0,1-2.45,5.15c-.9,1.56-3.14,2.17-4.45,3.48S52.2,394.17,50.57,395.11Z"/><g class="cls-6"><path class="cls-7" d="M44.72,360.49a4.37,4.37,0,0,1,3.88.31c1.91,1,3,2.68,2.4,3.84a1.64,1.64,0,0,1-.63.65,4.35,4.35,0,0,1-3.89-.3c-1.9-1-3-2.69-2.39-3.85a1.58,1.58,0,0,1,.63-.65m-.12-.2h0a1.79,1.79,0,0,0-.73.74c-.65,1.3.45,3.13,2.51,4.17a4.55,4.55,0,0,0,4.11.3,1.79,1.79,0,0,0,.72-.75c.66-1.3-.44-3.13-2.5-4.17a4.55,4.55,0,0,0-4.11-.29Z"/></g><ellipse class="cls-8" cx="47.54" cy="362.89" rx="2.35" ry="3.87" transform="translate(-297.71 241.44) rotate(-63.15)"/><g class="cls-6"><path class="cls-9" d="M34.85,366.77l.15-.08a1.73,1.73,0,0,1,2.35.52,1.68,1.68,0,0,1-.89,2.08l-.16.08a1.71,1.71,0,0,1-2.34-.52,1.68,1.68,0,0,1,.89-2.08m-.07-.11h0a1.8,1.8,0,0,0-.94,2.25,1.84,1.84,0,0,0,2.52.58l.16-.08a1.81,1.81,0,0,0,.95-2.26,1.87,1.87,0,0,0-2.53-.58l-.16.09Z"/></g><ellipse class="cls-10" cx="35.65" cy="368.03" rx="1.88" ry="1.49" transform="translate(-156.99 52.43) rotate(-25.87)"/><g class="cls-6"><path class="cls-11" d="M28.34,362.82c1.44-.83,2.83-1,3.46-.3.84.94,0,3.06-1.87,4.75a8.24,8.24,0,0,1-1.46,1.07c-1.44.84-2.83,1-3.46.3-.84-.93,0-3.06,1.87-4.75a9.87,9.87,0,0,1,1.46-1.07m-.13-.22h0a9,9,0,0,0-1.5,1.1,7.88,7.88,0,0,0-2,2.76,2.24,2.24,0,0,0,.13,2.36c.7.77,2.18.67,3.78-.26a8.6,8.6,0,0,0,1.5-1.1c2-1.81,2.84-4.06,1.89-5.11-.69-.77-2.18-.67-3.78.25Z"/></g><ellipse class="cls-12" cx="28.41" cy="365.58" rx="4.57" ry="2.28" transform="translate(-237.53 113.12) rotate(-42.05)"/><g class="cls-6"><path class="cls-13" d="M35,374.28a3.86,3.86,0,0,1,1.41-.48,3.3,3.3,0,0,1,3.85,2.6,3.08,3.08,0,0,1-1.63,3,3.81,3.81,0,0,1-1.4.48,3.3,3.3,0,0,1-3.85-2.6,3.07,3.07,0,0,1,1.62-3m-.13-.23h0a3.37,3.37,0,0,0-1.75,3.31,3.14,3.14,0,0,0,1.41,2.2,3.93,3.93,0,0,0,2.73.62,4.23,4.23,0,0,0,1.5-.51,3.37,3.37,0,0,0,1.76-3.31,3.57,3.57,0,0,0-4.15-2.82,4.17,4.17,0,0,0-1.5.51Z"/></g><ellipse class="cls-14" cx="36.86" cy="376.86" rx="3.47" ry="3.09" transform="translate(-49.87 8.27) rotate(-7.65)"/><g class="cls-6"><path class="cls-15" d="M55.17,370.53a1.16,1.16,0,0,1,.43-.15c1-.15,2.08,1.14,2.33,2.89.22,1.5-.22,2.84-1,3.29a1.06,1.06,0,0,1-.42.15c-1,.15-2.08-1.14-2.33-2.89-.22-1.5.21-2.84,1-3.29m-.09-.17h0c-.87.5-1.32,1.93-1.1,3.48a4.63,4.63,0,0,0,.92,2.26,1.83,1.83,0,0,0,1.64.81,1.45,1.45,0,0,0,.49-.18c.87-.5,1.32-1.93,1.1-3.48-.28-1.89-1.4-3.23-2.56-3.07a1.45,1.45,0,0,0-.49.18Z"/></g><ellipse class="cls-16" cx="56.05" cy="373.54" rx="1.9" ry="3.2" transform="translate(-52.9 11.87) rotate(-8.23)"/><g class="cls-6"><path class="cls-17" d="M36.68,359.64a4.2,4.2,0,0,1,1.77-.46c1.33-.08,2.43.34,2.46.93,0,.27-.19.54-.56.75a4.24,4.24,0,0,1-1.77.46c-1.33.07-2.43-.34-2.46-.93,0-.27.19-.54.56-.75m-.07-.11h0c-.42.25-.64.55-.62.86s.31.64.83.83a4.59,4.59,0,0,0,1.76.23,4.4,4.4,0,0,0,1.84-.48c.42-.25.64-.55.62-.86s-.31-.64-.83-.83a4.8,4.8,0,0,0-3.6.25Z"/></g><ellipse class="cls-18" cx="38.51" cy="360.25" rx="2.4" ry="1.07" transform="translate(-20.55 2.79) rotate(-3.28)"/><g class="cls-6"><path class="cls-19" d="M43.5,384.5a2.62,2.62,0,0,1,.62-.26,2.21,2.21,0,0,1,2.79,1.39A2.12,2.12,0,0,1,45.82,388a2.46,2.46,0,0,1-.62.26,2.22,2.22,0,0,1-2.79-1.39,2.12,2.12,0,0,1,1.09-2.35m-.09-.16h0a2.31,2.31,0,0,0-1.17,2.55,2.39,2.39,0,0,0,3,1.51,2.55,2.55,0,0,0,.66-.27,2.3,2.3,0,0,0,1.17-2.55,2.4,2.4,0,0,0-3-1.51,3.16,3.16,0,0,0-.66.27Z"/></g><ellipse class="cls-20" cx="44.66" cy="386.24" rx="2.33" ry="2.07" transform="translate(-99.75 25.24) rotate(-15.21)"/><g class="cls-6"><path class="cls-21" d="M45.08,369.44a3.21,3.21,0,0,1,2.71-.16,2.83,2.83,0,0,1,1.94,3.48,2.27,2.27,0,0,1-1,1.2,3.2,3.2,0,0,1-2.71.17A2.83,2.83,0,0,1,44,370.65a2.33,2.33,0,0,1,1-1.21m-.11-.19a2.57,2.57,0,0,0-1.14,1.32,3.06,3.06,0,0,0,2.08,3.77,3.45,3.45,0,0,0,2.89-.18,2.57,2.57,0,0,0,1.14-1.32,2.62,2.62,0,0,0-.21-2.21,3.49,3.49,0,0,0-1.87-1.56,3.42,3.42,0,0,0-2.89.18Z"/></g><ellipse class="cls-22" cx="46.89" cy="371.7" rx="2.59" ry="3.03" transform="translate(-317.87 286.18) rotate(-69.61)"/><g class="cls-6"><path class="cls-23" d="M23.86,373.3a1.28,1.28,0,0,1,.65-.18c1.23,0,2.24,1.87,2.25,4.19,0,1.89-.65,3.5-1.56,4a1.28,1.28,0,0,1-.65.18c-1.23,0-2.24-1.87-2.25-4.19,0-1.9.65-3.5,1.56-4m-.12-.21h0c-1,.59-1.69,2.29-1.68,4.24,0,2.5,1.11,4.44,2.49,4.43a1.51,1.51,0,0,0,.77-.21c1-.59,1.69-2.29,1.68-4.24a6.59,6.59,0,0,0-.7-3.09,2.16,2.16,0,0,0-1.79-1.35,1.66,1.66,0,0,0-.77.22Z"/></g><ellipse class="cls-24" cx="24.53" cy="377.32" rx="2.23" ry="4.2" transform="translate(-2.08 0.14) rotate(-0.32)"/><g class="cls-6"><path class="cls-25" d="M54.61,382.74a1.73,1.73,0,0,1,1.82-.2c.88.6.62,2.52-.59,4.29a6.44,6.44,0,0,1-2,1.92,1.74,1.74,0,0,1-1.82.19c-.88-.6-.62-2.52.59-4.29a6.29,6.29,0,0,1,2-1.91m-.11-.19h0a6.55,6.55,0,0,0-2,2,6.44,6.44,0,0,0-1.11,2.67,1.87,1.87,0,0,0,.58,1.92,1.91,1.91,0,0,0,2.05-.19,7.14,7.14,0,0,0,3.14-4.65,1.87,1.87,0,0,0-.58-1.92,1.91,1.91,0,0,0-2,.19Z"/></g><ellipse class="cls-26" cx="54.25" cy="385.74" rx="3.87" ry="1.93" transform="translate(-294.92 213.06) rotate(-55.68)"/><g class="cls-6"><path class="cls-27" d="M32.3,386.11a5,5,0,0,1,3.77-.42c2.44.66,4,2.81,3.44,4.82a3.34,3.34,0,0,1-1.62,2,4.94,4.94,0,0,1-3.76.41c-2.44-.65-4-2.8-3.45-4.81a3.41,3.41,0,0,1,1.62-2m-.16-.29h0a3.71,3.71,0,0,0-1.78,2.24,3.78,3.78,0,0,0,.66,3.19,5.61,5.61,0,0,0,7,1.58,3.73,3.73,0,0,0,1.77-2.24,3.77,3.77,0,0,0-.65-3.19,5.41,5.41,0,0,0-3-2,5.32,5.32,0,0,0-4,.44Z"/></g><ellipse class="cls-28" cx="35.1" cy="389.32" rx="3.76" ry="4.57" transform="translate(-350.04 322.46) rotate(-75)"/></g></g></g></svg>