<svg xmlns="http://www.w3.org/2000/svg" xmlns:xlink="http://www.w3.org/1999/xlink" viewBox="0 0 119.64 119.64"><defs><style>.cls-1{isolation:isolate;}.cls-2{opacity:0.4;mix-blend-mode:color-dodge;fill:url(#linear-gradient);}.cls-3{opacity:0.8;fill:url(#linear-gradient-2);}.cls-4{fill:#fff;}</style><linearGradient id="linear-gradient" x1="2.81" y1="116.83" x2="116.83" y2="2.81" gradientUnits="userSpaceOnUse"><stop offset="0" stop-color="#3fe5e9" stop-opacity="0.5"/><stop offset="0.2" stop-color="#a115ff" stop-opacity="0.5"/><stop offset="1" stop-color="#30323d" stop-opacity="0"/></linearGradient><linearGradient id="linear-gradient-2" x1="7.88" y1="111.76" x2="111.86" y2="7.78" gradientUnits="userSpaceOnUse"><stop offset="0" stop-color="#3fe5e9"/><stop offset="0.2" stop-color="#a115ff"/><stop offset="0.75" stop-color="#30323d" stop-opacity="0"/></linearGradient></defs><title>blue comet </title><g class="cls-1"><g id="Layer_2" data-name="Layer 2"><g id="comets"><path class="cls-2" d="M9.6,119.64a9.6,9.6,0,0,1-6.79-16.39L103.25,2.81a9.6,9.6,0,0,1,13.58,13.58L16.39,116.83A9.6,9.6,0,0,1,9.6,119.64Z"/><path class="cls-3" d="M7.9,108.34,109.6,9.16a.62.62,0,0,1,.87,0,.62.62,0,0,1,0,.87L11.3,111.74a2.4,2.4,0,0,1-3.44-3.36Z"/><circle class="cls-4" cx="9.6" cy="110.04" r="3.32"/></g></g></g></svg>